SplineFontDB: 3.2
FontName: ATM026-Regular
FullName: ATM026-Regular
FamilyName: ATM 026
Weight: Book
Copyright: AzhaguThamizh
Version: 1.001
ItalicAngle: -11
UnderlinePosition: -271
UnderlineWidth: 102
Ascent: 1600
Descent: 400
InvalidEm: 0
sfntRevision: 0x00010042
LayerCount: 2
Layer: 0 1 "Back" 1
Layer: 1 1 "Fore" 0
XUID: [1021 192 2086997156 20364]
StyleMap: 0x0040
FSType: 8
OS2Version: 3
OS2_WeightWidthSlopeOnly: 0
OS2_UseTypoMetrics: 0
CreationTime: 1536147074
ModificationTime: 1537844804
PfmFamily: 17
TTFWeight: 400
TTFWidth: 5
LineGap: 0
VLineGap: 0
Panose: 2 11 6 4 2 2 2 2 2 4
OS2TypoAscent: 2000
OS2TypoAOffset: 0
OS2TypoDescent: -1320
OS2TypoDOffset: 0
OS2TypoLinegap: 0
OS2WinAscent: 2000
OS2WinAOffset: 0
OS2WinDescent: 744
OS2WinDOffset: 0
HheadAscent: 2000
HheadAOffset: 0
HheadDescent: -1320
HheadDOffset: 0
OS2SubXSize: 1400
OS2SubYSize: 1300
OS2SubXOff: 0
OS2SubYOff: 0
OS2SupXSize: 1400
OS2SupYSize: 1300
OS2SupXOff: 0
OS2SupYOff: 0
OS2StrikeYSize: 100
OS2StrikeYPos: 518
OS2CapHeight: 1586
OS2XHeight: -200
OS2Vendor: '    '
OS2CodePages: 00000001.00000000
OS2UnicodeRanges: 00100003.00000000.00000000.00000000
Lookup: 4 0 0 "'akhn' Akhand in Tamil2 lookup 0" { "'akhn' Akhand in Tamil2 lookup 0 subtable"  } ['akhn' ('tml2' <'dflt' > ) ]
Lookup: 4 0 0 "'akhn' Akhand in Tamil lookup 1" { "'akhn' Akhand in Tamil lookup 1 subtable"  } ['akhn' ('taml' <'dflt' > ) ]
Lookup: 4 0 0 "'half' Half Forms in Tamil lookup 2" { "'half' Half Forms in Tamil lookup 2 subtable"  } ['half' ('taml' <'dflt' > ) ]
Lookup: 4 0 0 "'haln' Halant Forms in Tamil2 lookup 3" { "'haln' Halant Forms in Tamil2 lookup 3 subtable"  } ['haln' ('tml2' <'dflt' > ) ]
Lookup: 4 0 0 "'haln' Halant Forms in Tamil lookup 4" { "'haln' Halant Forms in Tamil lookup 4 subtable"  } ['haln' ('taml' <'dflt' > ) ]
Lookup: 4 0 0 "'abvs' Above Base Substitutions lookup 5" { "'abvs' Above Base Substitutions lookup 5 subtable"  } ['abvs' ('taml' <'dflt' > 'tml2' <'dflt' > ) ]

StartChar: .notdef
Encoding: 65536 -1 0
Width: 1600
Flags: W
LayerCount: 2
Fore
SplineSet
100 0 m 1,0,-1
 100 1600 l 1,1,-1
 1500 1600 l 1,2,-1
 1500 0 l 1,3,-1
 100 0 l 1,0,-1
1400 100 m 1,4,-1
 1400 1500 l 1,5,-1
 200 1500 l 1,6,-1
 200 100 l 1,7,-1
 1400 100 l 1,4,-1
EndSplineSet
EndChar

StartChar: exclam
Encoding: 33 33 4
Width: 576
GlyphClass: 2
Flags: W
LayerCount: 2
Fore
SplineSet
418 1104 m 0,0,1
 418 976 418 976 390 810 c 0,2,3
 324 420 324 420 324 324 c 0,4,5
 324 286 324 286 284 286 c 1,6,7
 246 290 246 290 246 324 c 0,8,9
 246 444 246 444 220 616 c 0,10,11
 162 998 162 998 162 1104 c 0,12,13
 162 1216 162 1216 200 1294 c 128,-1,14
 238 1372 238 1372 294 1372 c 0,15,16
 346 1372 346 1372 382 1295 c 128,-1,17
 418 1218 418 1218 418 1104 c 0,0,1
400 96 m 0,18,19
 400 48 400 48 366 14 c 128,-1,20
 332 -20 332 -20 284 -20 c 0,21,22
 240 -20 240 -20 210 14 c 128,-1,23
 180 48 180 48 180 96 c 0,24,25
 180 142 180 142 210 176 c 128,-1,26
 240 210 240 210 284 210 c 0,27,28
 332 210 332 210 366 176 c 128,-1,29
 400 142 400 142 400 96 c 0,18,19
EndSplineSet
EndChar

StartChar: quotedbl
Encoding: 34 34 5
Width: 710
GlyphClass: 2
Flags: W
LayerCount: 2
Fore
SplineSet
616 1198 m 1,0,-1
 570 924 l 1,1,-1
 464 924 l 1,2,-1
 416 1198 l 1,3,-1
 416 1432 l 1,4,-1
 616 1432 l 1,5,-1
 616 1198 l 1,0,-1
292 1198 m 1,6,-1
 248 924 l 1,7,-1
 140 924 l 1,8,-1
 92 1198 l 1,9,-1
 92 1432 l 1,10,-1
 292 1432 l 1,11,-1
 292 1198 l 1,6,-1
EndSplineSet
EndChar

StartChar: numbersign
Encoding: 35 35 6
Width: 1112
GlyphClass: 2
Flags: W
LayerCount: 2
Fore
SplineSet
1086 392 m 1,0,-1
 786 392 l 1,1,-1
 702 -24 l 1,2,-1
 554 -24 l 1,3,-1
 638 392 l 1,4,-1
 332 392 l 1,5,-1
 248 -24 l 1,6,-1
 100 -24 l 1,7,-1
 186 392 l 1,8,-1
 20 392 l 1,9,-1
 20 538 l 1,10,-1
 214 538 l 1,11,-1
 288 892 l 1,12,-1
 20 892 l 1,13,-1
 20 1038 l 1,14,-1
 316 1038 l 1,15,-1
 402 1456 l 1,16,-1
 548 1456 l 1,17,-1
 462 1038 l 1,18,-1
 770 1038 l 1,19,-1
 856 1456 l 1,20,-1
 1002 1456 l 1,21,-1
 918 1038 l 1,22,-1
 1086 1038 l 1,23,-1
 1086 892 l 1,24,-1
 888 892 l 1,25,-1
 816 538 l 1,26,-1
 1086 538 l 1,27,-1
 1086 392 l 1,0,-1
742 892 m 1,28,-1
 434 892 l 1,29,-1
 362 538 l 1,30,-1
 668 538 l 1,31,-1
 742 892 l 1,28,-1
EndSplineSet
EndChar

StartChar: dollar
Encoding: 36 36 7
Width: 1112
GlyphClass: 2
Flags: W
LayerCount: 2
Fore
SplineSet
1018 408 m 0,0,1
 1018 224 1018 224 902 102 c 0,2,3
 848 42 848 42 768 7 c 128,-1,4
 688 -28 688 -28 602 -28 c 1,5,-1
 602 -206 l 1,6,-1
 498 -206 l 1,7,-1
 498 -30 l 1,8,9
 370 -18 370 -18 289 24 c 128,-1,10
 208 66 208 66 140 166 c 0,11,12
 86 252 86 252 72 398 c 1,13,-1
 248 430 l 1,14,15
 266 298 266 298 320 222 c 1,16,17
 392 132 392 132 498 118 c 1,18,-1
 498 678 l 1,19,20
 446 684 446 684 391 706 c 128,-1,21
 336 728 336 728 276 762 c 0,22,23
 202 804 202 804 146 892 c 1,24,-1
 114 980 l 1,25,26
 102 1028 102 1028 102 1080 c 0,27,28
 102 1260 102 1260 234 1384 c 1,29,30
 318 1456 318 1456 498 1480 c 1,31,-1
 498 1564 l 1,32,-1
 602 1564 l 1,33,-1
 602 1480 l 1,34,35
 674 1480 674 1480 732 1458 c 128,-1,36
 790 1436 790 1436 844 1390 c 0,37,38
 954 1296 954 1296 984 1126 c 1,39,-1
 802 1100 l 1,40,41
 790 1200 790 1200 736 1256 c 1,42,43
 692 1308 692 1308 602 1332 c 1,44,-1
 602 824 l 1,45,46
 748 790 748 790 778 772 c 1,47,48
 856 742 856 742 908 689 c 128,-1,49
 960 636 960 636 989 561 c 128,-1,50
 1018 486 1018 486 1018 408 c 0,0,1
498 846 m 1,51,-1
 498 1334 l 1,52,53
 396 1322 396 1322 336 1250 c 1,54,55
 278 1188 278 1188 278 1094 c 0,56,57
 278 1008 278 1008 326 942 c 1,58,59
 374 884 374 884 498 846 c 1,51,-1
838 396 m 0,60,61
 838 486 838 486 793 543 c 128,-1,62
 748 600 748 600 602 654 c 1,63,-1
 602 118 l 1,64,65
 704 130 704 130 771 207 c 128,-1,66
 838 284 838 284 838 396 c 0,60,61
EndSplineSet
EndChar

StartChar: percent
Encoding: 37 37 8
Width: 1778
GlyphClass: 2
Flags: W
LayerCount: 2
Fore
SplineSet
1656 326 m 0,0,1
 1656 148 1656 148 1565 48 c 128,-1,2
 1474 -52 1474 -52 1344 -52 c 0,3,4
 1218 -52 1218 -52 1128 44 c 0,5,6
 1090 88 1090 88 1064 164 c 0,7,8
 1054 198 1054 198 1048 241 c 128,-1,9
 1042 284 1042 284 1042 336 c 0,10,11
 1042 490 1042 490 1119 597 c 128,-1,12
 1196 704 1196 704 1344 704 c 0,13,14
 1476 704 1476 704 1566 608 c 128,-1,15
 1656 512 1656 512 1656 326 c 0,0,1
1348 1456 m 1,16,-1
 568 -52 l 1,17,-1
 422 -52 l 1,18,-1
 1206 1456 l 1,19,-1
 1348 1456 l 1,16,-1
728 1078 m 0,20,21
 728 900 728 900 639 800 c 128,-1,22
 550 700 550 700 418 700 c 0,23,24
 292 700 292 700 202 796 c 0,25,26
 164 840 164 840 138 916 c 0,27,28
 128 950 128 950 122 993 c 128,-1,29
 116 1036 116 1036 116 1088 c 0,30,31
 116 1240 116 1240 193 1348 c 128,-1,32
 270 1456 270 1456 416 1456 c 0,33,34
 548 1456 548 1456 638 1359 c 128,-1,35
 728 1262 728 1262 728 1078 c 0,20,21
1502 332 m 0,36,37
 1502 472 1502 472 1456 526 c 1,38,39
 1414 584 1414 584 1348 584 c 0,40,41
 1284 584 1284 584 1240 528 c 128,-1,42
 1196 472 1196 472 1196 318 c 0,43,44
 1196 188 1196 188 1238 124 c 1,45,46
 1282 68 1282 68 1348 68 c 256,47,48
 1414 68 1414 68 1458 124 c 128,-1,49
 1502 180 1502 180 1502 332 c 0,36,37
576 1084 m 0,50,51
 576 1218 576 1218 533 1276 c 128,-1,52
 490 1334 490 1334 422 1334 c 0,53,54
 356 1334 356 1334 313 1279 c 128,-1,55
 270 1224 270 1224 270 1070 c 0,56,57
 270 936 270 936 312 876 c 0,58,59
 356 820 356 820 422 820 c 256,60,61
 488 820 488 820 532 880 c 128,-1,62
 576 940 576 940 576 1084 c 0,50,51
EndSplineSet
EndChar

StartChar: ampersand
Encoding: 38 38 9
Width: 1334
GlyphClass: 2
Flags: W
LayerCount: 2
Fore
SplineSet
1288 106 m 1,0,-1
 1170 -34 l 1,1,2
 1068 32 1068 32 950 168 c 1,3,4
 864 70 864 70 761 23 c 128,-1,5
 658 -24 658 -24 540 -24 c 0,6,7
 318 -24 318 -24 190 124 c 0,8,9
 86 246 86 246 86 394 c 0,10,11
 86 526 86 526 170 634 c 128,-1,12
 254 742 254 742 426 822 c 1,13,14
 338 926 338 926 298 998 c 1,15,16
 266 1074 266 1074 266 1136 c 0,17,18
 266 1266 266 1266 367 1361 c 128,-1,19
 468 1456 468 1456 622 1456 c 0,20,21
 762 1456 762 1456 858 1366 c 128,-1,22
 954 1276 954 1276 954 1150 c 0,23,24
 954 946 954 946 684 802 c 1,25,-1
 940 474 l 1,26,27
 978 552 978 552 1008 674 c 1,28,-1
 1192 634 l 1,29,30
 1144 448 1144 448 1064 326 c 1,31,32
 1160 200 1160 200 1288 106 c 1,0,-1
774 1146 m 0,33,34
 774 1218 774 1218 728 1265 c 128,-1,35
 682 1312 682 1312 612 1312 c 0,36,37
 544 1312 544 1312 495 1266 c 128,-1,38
 446 1220 446 1220 446 1154 c 1,39,-1
 448 1122 l 1,40,-1
 460 1090 l 1,41,-1
 482 1048 l 1,42,-1
 514 1006 l 1,43,-1
 592 916 l 1,44,45
 702 978 702 978 738 1031 c 128,-1,46
 774 1084 774 1084 774 1146 c 0,33,34
840 308 m 1,47,-1
 518 708 l 1,48,49
 374 622 374 622 326 548 c 0,50,51
 304 514 304 514 290 477 c 128,-1,52
 276 440 276 440 276 406 c 0,53,54
 276 318 276 318 345 224 c 128,-1,55
 414 130 414 130 542 130 c 0,56,57
 620 130 620 130 703 178 c 128,-1,58
 786 226 786 226 840 308 c 1,47,-1
EndSplineSet
EndChar

StartChar: quotesingle
Encoding: 39 39 10
Width: 382
GlyphClass: 2
Flags: W
LayerCount: 2
Fore
SplineSet
288 1192 m 1,0,-1
 242 924 l 1,1,-1
 132 924 l 1,2,-1
 88 1192 l 1,3,-1
 88 1432 l 1,4,-1
 288 1432 l 1,5,-1
 288 1192 l 1,0,-1
EndSplineSet
EndChar

StartChar: parenleft
Encoding: 40 40 11
Width: 1328
GlyphClass: 2
Flags: W
LayerCount: 2
Fore
SplineSet
1168 -450 m 1,0,1
 1078 -572 1078 -572 976 -572 c 0,2,3
 636 -572 636 -572 396 -288 c 128,-1,4
 156 -4 156 -4 156 400 c 0,5,6
 156 802 156 802 397 1087 c 128,-1,7
 638 1372 638 1372 976 1372 c 0,8,9
 1088 1372 1088 1372 1168 1260 c 1,10,11
 1102 1270 1102 1270 1050 1270 c 0,12,13
 736 1270 736 1270 508 1016 c 128,-1,14
 280 762 280 762 280 400 c 0,15,16
 280 44 280 44 507 -208 c 128,-1,17
 734 -460 734 -460 1046 -460 c 0,18,19
 1076 -460 1076 -460 1107 -458 c 128,-1,20
 1138 -456 1138 -456 1168 -450 c 1,0,1
EndSplineSet
EndChar

StartChar: parenright
Encoding: 41 41 12
Width: 1328
GlyphClass: 2
Flags: W
LayerCount: 2
Fore
SplineSet
1170 400 m 0,0,1
 1170 -2 1170 -2 929 -287 c 128,-1,2
 688 -572 688 -572 350 -572 c 0,3,4
 246 -572 246 -572 160 -450 c 1,5,6
 218 -458 218 -458 237 -459 c 128,-1,7
 256 -460 256 -460 280 -460 c 0,8,9
 592 -460 592 -460 819 -209 c 128,-1,10
 1046 42 1046 42 1046 400 c 0,11,12
 1046 760 1046 760 818 1015 c 128,-1,13
 590 1270 590 1270 278 1270 c 0,14,15
 248 1270 248 1270 218 1268 c 128,-1,16
 188 1266 188 1266 158 1260 c 1,17,18
 234 1372 234 1372 350 1372 c 0,19,20
 690 1372 690 1372 930 1088 c 128,-1,21
 1170 804 1170 804 1170 400 c 0,0,1
EndSplineSet
EndChar

StartChar: asterisk
Encoding: 42 42 13
Width: 778
GlyphClass: 2
Flags: W
LayerCount: 2
Fore
SplineSet
708 1168 m 1,0,1
 586 1132 586 1132 464 1114 c 1,2,3
 530 1058 530 1058 632 930 c 1,4,-1
 516 846 l 1,5,6
 466 912 466 912 382 1056 c 1,7,8
 308 916 308 916 254 846 c 1,9,-1
 140 930 l 1,10,11
 200 1004 200 1004 232 1040 c 128,-1,12
 264 1076 264 1076 302 1114 c 1,13,14
 176 1138 176 1138 62 1168 c 1,15,-1
 108 1308 l 1,16,17
 254 1258 254 1258 334 1212 c 1,18,-1
 314 1456 l 1,19,-1
 456 1456 l 1,20,-1
 456 1388 l 1,21,-1
 448 1342 l 1,22,-1
 432 1214 l 1,23,-1
 534 1260 l 1,24,-1
 664 1308 l 1,25,-1
 708 1168 l 1,0,1
EndSplineSet
EndChar

StartChar: plus
Encoding: 43 43 14
Width: 1168
GlyphClass: 2
Flags: W
LayerCount: 2
Fore
SplineSet
1056 624 m 1,0,-1
 666 624 l 1,1,-1
 666 232 l 1,2,-1
 500 232 l 1,3,-1
 500 624 l 1,4,-1
 112 624 l 1,5,-1
 112 788 l 1,6,-1
 500 788 l 1,7,-1
 500 1178 l 1,8,-1
 666 1178 l 1,9,-1
 666 788 l 1,10,-1
 1056 788 l 1,11,-1
 1056 624 l 1,0,-1
EndSplineSet
EndChar

StartChar: comma
Encoding: 44 44 15
Width: 680
GlyphClass: 2
Flags: W
LayerCount: 2
Fore
SplineSet
522 144 m 0,0,1
 526 120 526 120 526 104 c 0,2,3
 526 -6 526 -6 432 -166 c 0,4,5
 378 -254 378 -254 324 -303 c 128,-1,6
 270 -352 270 -352 226 -352 c 0,7,8
 216 -352 216 -352 158 -318 c 1,9,10
 380 -92 380 -92 390 8 c 1,11,12
 382 4 382 4 364 4 c 0,13,14
 324 4 324 4 294 42 c 128,-1,15
 264 80 264 80 264 134 c 256,16,17
 264 188 264 188 303 227 c 128,-1,18
 342 266 342 266 396 266 c 0,19,20
 446 266 446 266 482 232 c 128,-1,21
 518 198 518 198 522 144 c 0,0,1
EndSplineSet
EndChar

StartChar: hyphen
Encoding: 45 45 16
Width: 666
GlyphClass: 2
Flags: W
LayerCount: 2
Fore
SplineSet
604 430 m 1,0,-1
 64 430 l 1,1,-1
 64 606 l 1,2,-1
 604 606 l 1,3,-1
 604 430 l 1,0,-1
EndSplineSet
EndChar

StartChar: period
Encoding: 46 46 17
Width: 584
GlyphClass: 2
Flags: W
LayerCount: 2
Fore
SplineSet
428 134 m 0,0,1
 428 78 428 78 389 39 c 128,-1,2
 350 0 350 0 294 0 c 0,3,4
 240 0 240 0 201 39 c 128,-1,5
 162 78 162 78 162 134 c 0,6,7
 162 188 162 188 201 227 c 128,-1,8
 240 266 240 266 294 266 c 0,9,10
 350 266 350 266 389 227 c 128,-1,11
 428 188 428 188 428 134 c 0,0,1
EndSplineSet
EndChar

StartChar: slash
Encoding: 47 47 18
Width: 1008
GlyphClass: 2
Flags: W
LayerCount: 2
Fore
SplineSet
826 940 m 2,0,-1
 204 -394 l 1,1,2
 160 -332 160 -332 160 -250 c 0,3,4
 160 -196 160 -196 184 -144 c 2,5,-1
 802 1186 l 1,6,7
 850 1128 850 1128 850 1046 c 0,8,9
 850 992 850 992 826 940 c 2,0,-1
EndSplineSet
EndChar

StartChar: zero
Encoding: 48 48 19
Width: 1050
GlyphClass: 2
Flags: W
LayerCount: 2
Fore
SplineSet
1028 531 m 0,0,1
 1028 312 1028 312 878 156 c 256,2,3
 728 0 728 0 519 0 c 256,4,5
 310 0 310 0 161 155 c 0,6,7
 87 234 87 234 50 327 c 128,-1,8
 13 420 13 420 13 531 c 0,9,10
 13 655 13 655 50 758 c 128,-1,11
 87 861 87 861 159 948 c 0,12,13
 307 1123 307 1123 519 1123 c 0,14,15
 729 1123 729 1123 879 949 c 0,16,17
 1028 776 1028 776 1028 531 c 0,0,1
901 531 m 0,18,19
 901 728 901 728 787 871 c 0,20,21
 676 1011 676 1011 519 1011 c 0,22,23
 361 1011 361 1011 250 872 c 256,24,25
 139 733 139 733 139 531 c 0,26,27
 139 356 139 356 249 234 c 256,28,29
 359 112 359 112 519 112 c 256,30,31
 679 112 679 112 789 234 c 0,32,33
 901 358 901 358 901 531 c 0,18,19
EndSplineSet
EndChar

StartChar: one
Encoding: 49 49 20
Width: 1055
GlyphClass: 2
Flags: W
LayerCount: 2
Fore
SplineSet
375 0 m 2,0,1
 347 0 347 0 316.5 29 c 128,-1,2
 286 58 286 58 254 112 c 1,3,-1
 490 112 l 1,4,-1
 490 918 l 1,5,-1
 199 918 l 1,6,-1
 199 1031 l 1,7,-1
 363 1031 l 2,8,9
 420 1031 420 1031 458 1057 c 0,10,11
 495 1082 495 1082 495 1127 c 1,12,13
 523 1127 523 1127 546 1115 c 128,-1,14
 569 1103 569 1103 585 1081 c 0,15,16
 599 1060 599 1060 607.5 1033 c 128,-1,17
 616 1006 616 1006 616 976 c 2,18,-1
 616 112 l 1,19,-1
 714 112 l 2,20,21
 749 112 749 112 787 81.5 c 128,-1,22
 825 51 825 51 854 0 c 1,23,-1
 375 0 l 2,0,1
EndSplineSet
EndChar

StartChar: two
Encoding: 50 50 21
Width: 1055
GlyphClass: 2
Flags: W
LayerCount: 2
Fore
SplineSet
962 112 m 1,0,1
 885 0 885 0 788 0 c 2,2,-1
 115 0 l 1,3,4
 115 85 115 85 143 162.5 c 128,-1,5
 171 240 171 240 222 307 c 0,6,7
 276 374 276 374 347.5 425.5 c 128,-1,8
 419 477 419 477 508 509 c 1,9,-1
 507 509 l 1,10,11
 576 541 576 541 630.5 575.5 c 128,-1,12
 685 610 685 610 726 651 c 0,13,14
 807 728 807 728 807 791 c 0,15,16
 807 882 807 882 730 945 c 0,17,18
 654 1011 654 1011 542 1011 c 0,19,20
 495 1011 495 1011 451 996.5 c 128,-1,21
 407 982 407 982 368 956 c 128,-1,22
 329 930 329 930 296.5 893.5 c 128,-1,23
 264 857 264 857 242 812 c 0,24,25
 213 750 213 750 96 729 c 1,26,27
 131 911 131 911 254 1016 c 0,28,29
 379 1123 379 1123 542 1123 c 0,30,31
 706 1123 706 1123 820 1027 c 0,32,33
 936 931 936 931 936 791 c 0,34,35
 936 695 936 695 830 587 c 0,36,37
 779 536 779 536 708 489 c 128,-1,38
 637 442 637 442 552 402 c 0,39,40
 490 373 490 373 437 336.5 c 128,-1,41
 384 300 384 300 345 261 c 0,42,43
 307 222 307 222 284 186.5 c 128,-1,44
 261 151 261 151 253 112 c 1,45,-1
 962 112 l 1,0,1
EndSplineSet
EndChar

StartChar: three
Encoding: 51 51 22
Width: 1055
GlyphClass: 2
Flags: W
LayerCount: 2
Fore
SplineSet
955 348 m 0,0,1
 955 202 955 202 829 101 c 0,2,3
 704 0 704 0 526 0 c 0,4,5
 345 0 345 0 218 137 c 0,6,7
 90 277 90 277 90 478 c 1,8,9
 113 478 113 478 135 469 c 128,-1,10
 157 460 157 460 174.5 445 c 128,-1,11
 192 430 192 430 204 410 c 128,-1,12
 216 390 216 390 221 367 c 0,13,14
 230 310 230 310 256 264.5 c 128,-1,15
 282 219 282 219 324 184 c 0,16,17
 409 112 409 112 526 112 c 0,18,19
 657 112 657 112 742 181 c 0,20,21
 830 249 830 249 830 348 c 0,22,23
 830 416 830 416 776 467 c 0,24,25
 748 493 748 493 712 510 c 128,-1,26
 676 527 676 527 635 535 c 1,27,-1
 456 535 l 2,28,29
 411 535 411 535 375.5 564.5 c 128,-1,30
 340 594 340 594 323 648 c 1,31,-1
 594 648 l 2,32,33
 630 648 630 648 668.5 661.5 c 128,-1,34
 707 675 707 675 745 701 c 0,35,36
 781 727 781 727 801.5 753.5 c 128,-1,37
 822 780 822 780 822 806 c 0,38,39
 822 890 822 890 738 951 c 0,40,41
 652 1011 652 1011 533 1011 c 0,42,43
 485 1011 485 1011 442 999 c 128,-1,44
 399 987 399 987 362 965.5 c 128,-1,45
 325 944 325 944 296 912.5 c 128,-1,46
 267 881 267 881 248 842 c 0,47,48
 233 810 233 810 126 771 c 1,49,50
 126 925 126 925 245 1024 c 0,51,52
 367 1123 367 1123 533 1123 c 0,53,54
 705 1123 705 1123 827 1031 c 256,55,56
 949 939 949 939 949 806 c 0,57,58
 949 774 949 774 939 743.5 c 128,-1,59
 929 713 929 713 910 685 c 128,-1,60
 891 657 891 657 865 633.5 c 128,-1,61
 839 610 839 610 806 593 c 1,62,63
 876 554 876 554 915.5 488.5 c 128,-1,64
 955 423 955 423 955 348 c 0,0,1
EndSplineSet
EndChar

StartChar: four
Encoding: 52 52 23
Width: 1050
GlyphClass: 2
Flags: W
LayerCount: 2
Fore
SplineSet
929 -19 m 1,0,1
 868 19 868 19 834.5 53.5 c 128,-1,2
 801 88 801 88 801 118 c 2,3,-1
 801 245 l 1,4,-1
 113 245 l 1,5,-1
 113 343 l 1,6,-1
 816 1123 l 1,7,-1
 929 1123 l 1,8,-1
 929 -19 l 1,0,1
801 357 m 1,9,-1
 801 930 l 1,10,-1
 292 357 l 1,11,-1
 801 357 l 1,9,-1
EndSplineSet
EndChar

StartChar: five
Encoding: 53 53 24
Width: 1055
GlyphClass: 2
Flags: W
LayerCount: 2
Fore
SplineSet
975 1123 m 1,0,1
 943 1069 943 1069 906 1040 c 128,-1,2
 869 1011 869 1011 827 1011 c 2,3,-1
 362 1011 l 1,4,5
 342 950 342 950 322 893.5 c 128,-1,6
 302 837 302 837 282 774 c 1,7,8
 325 785 325 785 372.5 789.5 c 128,-1,9
 420 794 420 794 475 794 c 0,10,11
 573 794 573 794 657.5 765 c 128,-1,12
 742 736 742 736 811 681 c 0,13,14
 877 626 877 626 914 556.5 c 128,-1,15
 951 487 951 487 951 409 c 0,16,17
 951 239 951 239 822 119 c 0,18,19
 692 0 692 0 513 0 c 256,20,21
 334 0 334 0 207 118 c 0,22,23
 81 236 81 236 81 413 c 1,24,25
 122 413 122 413 155.5 388 c 128,-1,26
 189 363 189 363 206 325 c 0,27,28
 241 228 241 228 325 170 c 0,29,30
 367 140 367 140 413.5 126 c 128,-1,31
 460 112 460 112 513 112 c 0,32,33
 643 112 643 112 733 198 c 0,34,35
 825 287 825 287 825 409 c 0,36,37
 825 519 825 519 723 601 c 0,38,39
 623 683 623 683 475 683 c 0,40,41
 298 683 298 683 211 632 c 0,42,43
 198 624 198 624 171 624 c 0,44,45
 145 624 145 624 112 636 c 1,46,-1
 272 1123 l 1,47,-1
 975 1123 l 1,0,1
EndSplineSet
EndChar

StartChar: six
Encoding: 54 54 25
Width: 1050
GlyphClass: 2
Flags: W
LayerCount: 2
Fore
SplineSet
982 348 m 0,0,1
 982 203 982 203 861 101 c 0,2,3
 742 0 742 0 574 0 c 0,4,5
 361 0 361 0 210 159 c 0,6,7
 59 319 59 319 59 545 c 0,8,9
 59 665 59 665 98.5 767.5 c 128,-1,10
 138 870 138 870 213 954 c 0,11,12
 289 1035 289 1035 384.5 1079 c 128,-1,13
 480 1123 480 1123 589 1123 c 0,14,15
 808 1123 808 1123 989 998 c 1,16,17
 960 976 960 976 931.5 964.5 c 128,-1,18
 903 953 903 953 874 953 c 0,19,20
 866 953 866 953 856.5 954.5 c 128,-1,21
 847 956 847 956 836 958 c 0,22,23
 721 1011 721 1011 589 1011 c 0,24,25
 421 1011 421 1011 303 874 c 0,26,27
 185 738 185 738 185 545 c 0,28,29
 185 363 185 363 299 237 c 0,30,31
 412 112 412 112 574 112 c 0,32,33
 693 112 693 112 775 181 c 0,34,35
 856 250 856 250 856 348 c 0,36,37
 856 429 856 429 774 491 c 0,38,39
 692 552 692 552 574 552 c 0,40,41
 470 552 470 552 397 480 c 0,42,43
 325 409 325 409 325 306 c 0,44,45
 325 292 325 292 326 276 c 128,-1,46
 327 260 327 260 329 245 c 1,47,48
 221 306 221 306 221 393 c 0,49,50
 221 504 221 504 324 585 c 0,51,52
 429 664 429 664 574 664 c 0,53,54
 659 664 659 664 730.5 640.5 c 128,-1,55
 802 617 802 617 861 572 c 0,56,57
 919 527 919 527 950.5 470 c 128,-1,58
 982 413 982 413 982 348 c 0,0,1
EndSplineSet
EndChar

StartChar: seven
Encoding: 55 55 26
Width: 1055
GlyphClass: 2
Flags: W
LayerCount: 2
Fore
SplineSet
596 -22 m 1,0,1
 516 57 516 57 516 119 c 1,2,-1
 816 967 l 2,3,4
 817 968 817 968 817 981 c 256,5,6
 817 994 817 994 809 1002.5 c 128,-1,7
 801 1011 801 1011 790 1011 c 2,8,-1
 204 1011 l 2,9,10
 130 1011 130 1011 77 1123 c 1,11,-1
 878 1123 l 2,12,13
 916 1123 916 1123 942.5 1097.5 c 128,-1,14
 969 1072 969 1072 969 1034 c 0,15,16
 969 1022 969 1022 963 1007 c 1,17,-1
 963 1008 l 1,18,-1
 596 -22 l 1,0,1
EndSplineSet
EndChar

StartChar: eight
Encoding: 56 56 27
Width: 1050
GlyphClass: 2
Flags: W
LayerCount: 2
Fore
SplineSet
942 348 m 0,0,1
 942 276 942 276 909.5 214 c 128,-1,2
 877 152 877 152 816 101 c 0,3,4
 754 52 754 52 679.5 26 c 128,-1,5
 605 0 605 0 519 0 c 0,6,7
 345 0 345 0 221 100 c 0,8,9
 96 204 96 204 96 348 c 0,10,11
 96 391 96 391 110 431 c 128,-1,12
 124 471 124 471 150 506 c 0,13,14
 172 534 172 534 202 556.5 c 128,-1,15
 232 579 232 579 265 593 c 1,16,17
 205 616 205 616 162 667 c 0,18,19
 113 728 113 728 113 806 c 0,20,21
 113 938 113 938 231 1031 c 0,22,23
 350 1123 350 1123 519 1123 c 0,24,25
 605 1123 605 1123 679 1099.5 c 128,-1,26
 753 1076 753 1076 813 1031 c 0,27,28
 871 985 871 985 903.5 927.5 c 128,-1,29
 936 870 936 870 936 806 c 0,30,31
 936 727 936 727 883 667 c 0,32,33
 860 641 860 641 834.5 622.5 c 128,-1,34
 809 604 809 604 776 593 c 1,35,36
 809 579 809 579 836.5 557.5 c 128,-1,37
 864 536 864 536 887 508 c 0,38,39
 942 438 942 438 942 348 c 0,0,1
809 806 m 0,40,41
 809 892 809 892 726 951 c 0,42,43
 640 1011 640 1011 519 1011 c 0,44,45
 403 1011 403 1011 319 951 c 0,46,47
 238 891 238 891 238 806 c 0,48,49
 238 744 238 744 318 696 c 0,50,51
 360 674 360 674 411 661 c 128,-1,52
 462 648 462 648 519 648 c 0,53,54
 582 648 582 648 634 659.5 c 128,-1,55
 686 671 686 671 728 694 c 0,56,57
 809 739 809 739 809 806 c 0,40,41
817 348 m 0,58,59
 817 424 817 424 732 479 c 0,60,61
 644 535 644 535 519 535 c 0,62,63
 398 535 398 535 309 479 c 0,64,65
 224 424 224 424 224 348 c 0,66,67
 224 249 224 249 309 181 c 0,68,69
 394 112 394 112 519 112 c 0,70,71
 647 112 647 112 732 181 c 0,72,73
 817 249 817 249 817 348 c 0,58,59
EndSplineSet
EndChar

StartChar: nine
Encoding: 57 57 28
Width: 1055
GlyphClass: 2
Flags: W
LayerCount: 2
Fore
SplineSet
995 593 m 0,0,1
 995 346 995 346 840 173 c 256,2,3
 685 0 685 0 464 0 c 0,4,5
 324 0 324 0 215 47 c 0,6,7
 105 95 105 95 50 191 c 1,8,9
 101 211 101 211 140 211 c 0,10,11
 166 211 166 211 183 201 c 0,12,13
 311 112 311 112 464 112 c 0,14,15
 633 112 633 112 750 251 c 0,16,17
 868 393 868 393 868 593 c 0,18,19
 868 767 868 767 756 889 c 256,20,21
 644 1011 644 1011 479 1011 c 0,22,23
 361 1011 361 1011 280 937 c 1,24,-1
 280 938 l 1,25,26
 198 866 198 866 198 761 c 0,27,28
 198 685 198 685 280 628 c 0,29,30
 365 572 365 572 479 572 c 0,31,32
 532 572 532 572 577 591.5 c 128,-1,33
 622 611 622 611 659 653 c 0,34,35
 734 734 734 734 734 866 c 1,36,37
 778 851 778 851 806 817.5 c 128,-1,38
 834 784 834 784 834 746 c 0,39,40
 834 643 834 643 717 550 c 0,41,42
 603 459 603 459 479 459 c 0,43,44
 314 459 314 459 193 547 c 256,45,46
 72 635 72 635 72 761 c 0,47,48
 72 912 72 912 191 1017 c 0,49,50
 314 1123 314 1123 479 1123 c 0,51,52
 692 1123 692 1123 844 967 c 0,53,54
 995 808 995 808 995 593 c 0,0,1
EndSplineSet
EndChar

StartChar: colon
Encoding: 58 58 29
Width: 556
GlyphClass: 2
Flags: W
LayerCount: 2
Fore
SplineSet
380 788 m 1,0,-1
 180 788 l 1,1,-1
 180 1038 l 1,2,-1
 380 1038 l 1,3,-1
 380 788 l 1,0,-1
380 0 m 1,4,-1
 180 0 l 1,5,-1
 180 248 l 1,6,-1
 380 248 l 1,7,-1
 380 0 l 1,4,-1
EndSplineSet
EndChar

StartChar: semicolon
Encoding: 59 59 30
Width: 688
GlyphClass: 2
Flags: W
LayerCount: 2
Fore
SplineSet
530 666 m 0,0,1
 530 612 530 612 491 573 c 128,-1,2
 452 534 452 534 396 534 c 0,3,4
 342 534 342 534 303 573 c 128,-1,5
 264 612 264 612 264 666 c 0,6,7
 264 722 264 722 303 761 c 128,-1,8
 342 800 342 800 396 800 c 0,9,10
 452 800 452 800 491 761 c 128,-1,11
 530 722 530 722 530 666 c 0,0,1
522 144 m 0,12,13
 526 120 526 120 526 104 c 0,14,15
 526 -6 526 -6 432 -166 c 0,16,17
 378 -254 378 -254 324 -303 c 128,-1,18
 270 -352 270 -352 226 -352 c 0,19,20
 216 -352 216 -352 158 -318 c 1,21,22
 380 -92 380 -92 390 8 c 1,23,24
 382 4 382 4 364 4 c 0,25,26
 324 4 324 4 294 42 c 128,-1,27
 264 80 264 80 264 134 c 256,28,29
 264 188 264 188 303 227 c 128,-1,30
 342 266 342 266 396 266 c 0,31,32
 446 266 446 266 482 232 c 128,-1,33
 518 198 518 198 522 144 c 0,12,13
EndSplineSet
EndChar

StartChar: less
Encoding: 60 60 31
Width: 1168
GlyphClass: 2
Flags: W
LayerCount: 2
Fore
SplineSet
1058 220 m 1,0,-1
 110 626 l 1,1,-1
 110 790 l 1,2,-1
 1058 1190 l 1,3,-1
 1058 1016 l 1,4,-1
 306 708 l 1,5,-1
 1058 396 l 1,6,-1
 1058 220 l 1,0,-1
EndSplineSet
EndChar

StartChar: equal
Encoding: 61 61 32
Width: 1424
GlyphClass: 2
Flags: W
LayerCount: 2
Fore
SplineSet
1260 850 m 1,0,1
 1194 736 1194 736 1088 736 c 2,2,-1
 160 736 l 1,3,4
 226 850 226 850 306 850 c 2,5,-1
 1260 850 l 1,0,1
1260 468 m 1,6,7
 1194 354 1194 354 1088 354 c 2,8,-1
 160 354 l 1,9,10
 226 468 226 468 306 468 c 2,11,-1
 1260 468 l 1,6,7
EndSplineSet
EndChar

StartChar: greater
Encoding: 62 62 33
Width: 1168
GlyphClass: 2
Flags: W
LayerCount: 2
Fore
SplineSet
1058 626 m 1,0,-1
 110 220 l 1,1,-1
 110 396 l 1,2,-1
 860 708 l 1,3,-1
 110 1016 l 1,4,-1
 110 1190 l 1,5,-1
 1058 790 l 1,6,-1
 1058 626 l 1,0,-1
EndSplineSet
EndChar

StartChar: question
Encoding: 63 63 34
Width: 1288
GlyphClass: 2
Flags: W
LayerCount: 2
Fore
SplineSet
1130 972 m 0,0,1
 1130 850 1130 850 1032 732 c 128,-1,2
 934 614 934 614 766 536 c 0,3,4
 694 504 694 504 652 447 c 128,-1,5
 610 390 610 390 610 330 c 0,6,7
 610 304 610 304 618 282 c 1,8,9
 566 296 566 296 534 338 c 128,-1,10
 502 380 502 380 502 438 c 0,11,12
 502 488 502 488 558 544 c 128,-1,13
 614 600 614 600 712 646 c 0,14,15
 844 706 844 706 920 794 c 128,-1,16
 996 882 996 882 996 972 c 0,17,18
 996 1090 996 1090 890 1174 c 128,-1,19
 784 1258 784 1258 634 1258 c 0,20,21
 492 1258 492 1258 392 1174 c 128,-1,22
 292 1090 292 1090 292 972 c 0,23,24
 292 948 292 948 311 908 c 128,-1,25
 330 868 330 868 330 848 c 0,26,27
 330 776 330 776 296 742 c 1,28,29
 232 788 232 788 195 848 c 128,-1,30
 158 908 158 908 158 972 c 0,31,32
 158 1136 158 1136 298 1254 c 128,-1,33
 438 1372 438 1372 634 1372 c 0,34,35
 840 1372 840 1372 985 1255 c 128,-1,36
 1130 1138 1130 1138 1130 972 c 0,0,1
710 74 m 0,37,38
 710 18 710 18 671 -21 c 128,-1,39
 632 -60 632 -60 578 -60 c 0,40,41
 522 -60 522 -60 483 -21 c 128,-1,42
 444 18 444 18 444 74 c 0,43,44
 444 128 444 128 483 167 c 128,-1,45
 522 206 522 206 578 206 c 0,46,47
 632 206 632 206 671 167 c 128,-1,48
 710 128 710 128 710 74 c 0,37,38
EndSplineSet
EndChar

StartChar: at
Encoding: 64 64 35
Width: 2030
GlyphClass: 2
Flags: W
LayerCount: 2
Fore
SplineSet
1958 18 m 1,0,1
 1908 -88 1908 -88 1791 -190 c 128,-1,2
 1674 -292 1674 -292 1500 -358 c 0,3,4
 1426 -384 1426 -384 1316 -404 c 0,5,6
 1268 -412 1268 -412 1217 -416 c 128,-1,7
 1166 -420 1166 -420 1096 -420 c 0,8,9
 878 -420 878 -420 698 -365 c 128,-1,10
 518 -310 518 -310 390 -202 c 128,-1,11
 262 -94 262 -94 190 60 c 1,12,13
 108 248 108 248 108 458 c 0,14,15
 108 698 108 698 206 912 c 0,16,17
 326 1170 326 1170 543 1314 c 128,-1,18
 760 1458 760 1458 1076 1458 c 0,19,20
 1198 1458 1198 1458 1304 1434 c 128,-1,21
 1410 1410 1410 1410 1510 1358 c 0,22,23
 1702 1262 1702 1262 1816 1064 c 0,24,25
 1910 894 1910 894 1910 696 c 0,26,27
 1910 414 1910 414 1710 194 c 0,28,29
 1532 -4 1532 -4 1322 -4 c 2,30,-1
 1296 -4 l 1,31,-1
 1258 0 l 2,32,33
 1232 4 1232 4 1212 16 c 0,34,35
 1176 38 1176 38 1152 76 c 0,36,37
 1140 98 1140 98 1134 160 c 1,38,39
 1082 96 1082 96 999 47 c 128,-1,40
 916 -2 916 -2 834 -2 c 0,41,42
 746 -2 746 -2 666 47 c 128,-1,43
 586 96 586 96 533 206 c 128,-1,44
 480 316 480 316 480 436 c 0,45,46
 480 586 480 586 558 744 c 128,-1,47
 636 902 636 902 756 980 c 128,-1,48
 876 1058 876 1058 988 1058 c 0,49,50
 1078 1058 1078 1058 1150 1012 c 1,51,52
 1226 970 1226 970 1282 878 c 1,53,-1
 1316 1030 l 1,54,-1
 1490 1030 l 1,55,-1
 1350 376 l 1,56,-1
 1320 224 l 1,57,58
 1320 200 1320 200 1340 178 c 1,59,60
 1362 160 1362 160 1388 160 c 0,61,62
 1442 160 1442 160 1524 218 c 0,63,64
 1630 292 1630 292 1698 426 c 128,-1,65
 1766 560 1766 560 1766 700 c 0,66,67
 1766 858 1766 858 1682 1001 c 128,-1,68
 1598 1144 1598 1144 1432 1230 c 0,69,70
 1350 1272 1350 1272 1261 1294 c 128,-1,71
 1172 1316 1172 1316 1068 1316 c 0,72,73
 838 1316 838 1316 650 1210 c 128,-1,74
 462 1104 462 1104 357 898 c 128,-1,75
 252 692 252 692 252 474 c 0,76,77
 252 240 252 240 354 66 c 128,-1,78
 456 -108 456 -108 655 -192 c 128,-1,79
 854 -276 854 -276 1094 -276 c 0,80,81
 1346 -276 1346 -276 1517 -193 c 128,-1,82
 1688 -110 1688 -110 1782 18 c 1,83,-1
 1958 18 l 1,0,1
1226 634 m 0,84,85
 1226 762 1226 762 1161 838 c 128,-1,86
 1096 914 1096 914 1000 914 c 0,87,88
 938 914 938 914 882 880 c 0,89,90
 826 850 826 850 779 782 c 128,-1,91
 732 714 732 714 692 606 c 1,92,93
 662 510 662 510 662 424 c 0,94,95
 662 292 662 292 724 217 c 128,-1,96
 786 142 786 142 870 142 c 0,97,98
 924 142 924 142 986 175 c 128,-1,99
 1048 208 1048 208 1100 272 c 1,100,101
 1154 332 1154 332 1190 434 c 128,-1,102
 1226 536 1226 536 1226 634 c 0,84,85
EndSplineSet
EndChar

StartChar: bracketleft
Encoding: 91 91 36
Width: 556
GlyphClass: 2
Flags: W
LayerCount: 2
Fore
SplineSet
524 -398 m 1,0,-1
 136 -398 l 1,1,-1
 136 1432 l 1,2,-1
 524 1432 l 1,3,-1
 524 1286 l 1,4,-1
 312 1286 l 1,5,-1
 312 -252 l 1,6,-1
 524 -252 l 1,7,-1
 524 -398 l 1,0,-1
EndSplineSet
EndChar

StartChar: backslash
Encoding: 92 92 37
Width: 556
GlyphClass: 2
Flags: W
LayerCount: 2
Fore
SplineSet
556 -24 m 1,0,-1
 416 -24 l 1,1,-1
 0 1456 l 1,2,-1
 142 1456 l 1,3,-1
 556 -24 l 1,0,-1
EndSplineSet
EndChar

StartChar: bracketright
Encoding: 93 93 38
Width: 556
GlyphClass: 2
Flags: W
LayerCount: 2
Fore
SplineSet
426 -398 m 1,0,-1
 38 -398 l 1,1,-1
 38 -252 l 1,2,-1
 250 -252 l 1,3,-1
 250 1286 l 1,4,-1
 38 1286 l 1,5,-1
 38 1432 l 1,6,-1
 426 1432 l 1,7,-1
 426 -398 l 1,0,-1
EndSplineSet
EndChar

StartChar: asciicircum
Encoding: 94 94 39
Width: 938
GlyphClass: 2
Flags: W
LayerCount: 2
Fore
SplineSet
886 674 m 1,0,-1
 708 674 l 1,1,-1
 468 1256 l 1,2,-1
 234 674 l 1,3,-1
 52 674 l 1,4,-1
 398 1456 l 1,5,-1
 540 1456 l 1,6,-1
 886 674 l 1,0,-1
EndSplineSet
EndChar

StartChar: underscore
Encoding: 95 95 40
Width: 1112
GlyphClass: 2
Flags: W
LayerCount: 2
Fore
SplineSet
1134 -398 m 1,0,-1
 -30 -398 l 1,1,-1
 -30 -270 l 1,2,-1
 1134 -270 l 1,3,-1
 1134 -398 l 1,0,-1
EndSplineSet
EndChar

StartChar: grave
Encoding: 96 96 41
Width: 384
GlyphClass: 2
Flags: W
LayerCount: 2
Fore
SplineSet
348 822 m 1,0,-1
 314 784 l 1,1,-1
 234 784 l 1,2,-1
 176 834 l 1,3,-1
 124 890 l 2,4,5
 102 918 102 918 80 964 c 1,6,-1
 68 998 l 1,7,-1
 64 1038 l 2,8,9
 60 1070 60 1070 72 1092 c 1,10,11
 78 1118 78 1118 88 1132 c 128,-1,12
 98 1146 98 1146 118 1160 c 0,13,14
 126 1164 126 1164 135 1167 c 128,-1,15
 144 1170 144 1170 176 1176 c 1,16,-1
 254 1176 l 1,17,-1
 286 1170 l 1,18,-1
 312 1152 l 1,19,-1
 328 1126 l 2,20,21
 334 1114 334 1114 334 1098 c 0,22,23
 334 1074 334 1074 327 1053 c 128,-1,24
 320 1032 320 1032 298 1022 c 2,25,-1
 276 1010 l 1,26,-1
 256 1008 l 1,27,-1
 174 1008 l 1,28,-1
 164 1010 l 1,29,-1
 148 1014 l 1,30,-1
 134 1018 l 1,31,-1
 214 1018 l 1,32,-1
 218 1000 l 1,33,-1
 220 982 l 2,34,35
 220 970 220 970 230 954 c 2,36,-1
 248 922 l 1,37,-1
 268 894 l 1,38,-1
 294 870 l 1,39,-1
 320 846 l 1,40,-1
 348 822 l 1,0,-1
EndSplineSet
EndChar

StartChar: braceleft
Encoding: 123 123 42
Width: 668
GlyphClass: 2
Flags: W
LayerCount: 2
Fore
SplineSet
622 -420 m 1,0,-1
 566 -420 l 2,1,2
 468 -420 468 -420 428 -406 c 0,3,4
 372 -384 372 -384 328 -334 c 0,5,6
 292 -292 292 -292 270 -206 c 1,7,8
 258 -128 258 -128 258 48 c 0,9,10
 258 228 258 228 242 293 c 128,-1,11
 226 358 226 358 178 398 c 1,12,13
 122 438 122 438 56 438 c 1,14,-1
 56 598 l 1,15,16
 130 598 130 598 177 638 c 128,-1,17
 224 678 224 678 242 744 c 1,18,-1
 252 854 l 1,19,-1
 258 974 l 1,20,21
 258 1140 258 1140 264 1204 c 128,-1,22
 270 1268 270 1268 295 1318 c 128,-1,23
 320 1368 320 1368 352 1397 c 128,-1,24
 384 1426 384 1426 446 1446 c 1,25,26
 492 1456 492 1456 566 1456 c 2,27,-1
 622 1456 l 1,28,-1
 622 1302 l 1,29,-1
 590 1302 l 2,30,31
 492 1302 492 1302 454 1264 c 1,32,33
 422 1226 422 1226 422 1102 c 2,34,-1
 422 1042 l 1,35,-1
 422 994 l 1,36,-1
 422 956 l 1,37,-1
 422 924 l 1,38,-1
 422 898 l 1,39,-1
 420 824 l 2,40,41
 420 796 420 796 412 780 c 1,42,43
 394 680 394 680 352 624 c 128,-1,44
 310 568 310 568 218 518 c 1,45,46
 326 476 326 476 374 385 c 128,-1,47
 422 294 422 294 422 78 c 2,48,-1
 426 -148 l 1,49,50
 432 -214 432 -214 466 -242 c 1,51,-1
 506 -258 l 2,52,53
 540 -268 540 -268 590 -268 c 2,54,-1
 622 -268 l 1,55,-1
 622 -420 l 1,0,-1
EndSplineSet
EndChar

StartChar: bar
Encoding: 124 124 43
Width: 520
GlyphClass: 2
Flags: W
LayerCount: 2
Fore
SplineSet
336 -420 m 1,0,-1
 184 -420 l 1,1,-1
 184 1456 l 1,2,-1
 336 1456 l 1,3,-1
 336 -420 l 1,0,-1
EndSplineSet
EndChar

StartChar: braceright
Encoding: 125 125 44
Width: 668
GlyphClass: 2
Flags: W
LayerCount: 2
Fore
SplineSet
612 438 m 1,0,1
 540 438 540 438 491 401 c 128,-1,2
 442 364 442 364 424 290 c 1,3,-1
 414 200 l 1,4,-1
 410 62 l 1,5,-1
 410 24 l 1,6,-1
 410 -8 l 1,7,-1
 410 -34 l 2,8,9
 410 -118 410 -118 404 -154 c 1,10,11
 404 -226 404 -226 370 -282 c 1,12,13
 346 -330 346 -330 312 -364 c 1,14,-1
 276 -386 l 1,15,-1
 222 -410 l 1,16,-1
 176 -418 l 1,17,-1
 100 -420 l 1,18,-1
 46 -420 l 1,19,-1
 46 -268 l 1,20,-1
 76 -268 l 2,21,22
 178 -268 178 -268 210 -230 c 1,23,24
 244 -196 244 -196 244 -66 c 2,25,-1
 246 124 l 1,26,-1
 252 244 l 1,27,28
 264 352 264 352 316 416 c 1,29,30
 362 480 362 480 448 518 c 1,31,32
 340 566 340 566 292 656 c 128,-1,33
 244 746 244 746 244 958 c 2,34,-1
 244 1078 l 1,35,-1
 238 1200 l 2,36,37
 238 1244 238 1244 204 1273 c 128,-1,38
 170 1302 170 1302 76 1302 c 2,39,-1
 46 1302 l 1,40,-1
 46 1456 l 1,41,-1
 100 1456 l 2,42,43
 200 1456 200 1456 252 1437 c 128,-1,44
 304 1418 304 1418 341 1370 c 128,-1,45
 378 1322 378 1322 396 1240 c 1,46,-1
 406 1138 l 1,47,-1
 410 988 l 1,48,49
 410 800 410 800 425 741 c 128,-1,50
 440 682 440 682 488 638 c 0,51,52
 512 620 512 620 544 608 c 2,53,-1
 576 600 l 1,54,-1
 612 598 l 1,55,-1
 612 438 l 1,0,1
EndSplineSet
EndChar

StartChar: asciitilde
Encoding: 126 126 45
Width: 1168
GlyphClass: 2
Flags: W
LayerCount: 2
Fore
SplineSet
1084 658 m 1,0,1
 1024 604 1024 604 960 572 c 1,2,3
 888 546 888 546 814 546 c 0,4,5
 786 546 786 546 758 548 c 128,-1,6
 730 550 730 550 704 556 c 0,7,8
 656 568 656 568 537 622 c 128,-1,9
 418 676 418 676 340 676 c 0,10,11
 276 676 276 676 222 650 c 1,12,-1
 162 612 l 2,13,14
 146 600 146 600 136 592 c 0,15,16
 112 572 112 572 84 544 c 1,17,-1
 84 744 l 1,18,19
 190 862 190 862 356 862 c 0,20,21
 408 862 408 862 480 844 c 0,22,23
 534 832 534 832 664 776 c 1,24,-1
 764 740 l 1,25,-1
 806 730 l 1,26,-1
 832 730 l 2,27,28
 884 730 884 730 954 766 c 128,-1,29
 1024 802 1024 802 1084 864 c 1,30,-1
 1084 658 l 1,0,1
EndSplineSet
EndChar

StartChar: cent
Encoding: 162 162 46
Width: 721
GlyphClass: 2
Flags: W
LayerCount: 2
Fore
SplineSet
598 156 m 1,0,1
 537 71 537 71 467 31 c 128,-1,2
 397 -9 397 -9 304 -17 c 1,3,-1
 228 -265 l 1,4,-1
 187 -265 l 1,5,-1
 262 -17 l 1,6,7
 177 -8 177 -8 128.5 47 c 128,-1,8
 80 102 80 102 80 188 c 0,9,10
 80 345 80 345 191.5 478.5 c 128,-1,11
 303 612 303 612 457 638 c 1,12,-1
 541 917 l 1,13,-1
 580 917 l 1,14,-1
 499 638 l 1,15,16
 580 638 580 638 616.5 607 c 128,-1,17
 653 576 653 576 653 523 c 0,18,19
 653 482 653 482 631.5 455.5 c 128,-1,20
 610 429 610 429 580 429 c 0,21,22
 557 429 557 429 544 442 c 128,-1,23
 531 455 531 455 531 476 c 0,24,25
 531 491 531 491 536 502 c 128,-1,26
 541 513 541 513 560.5 534.5 c 128,-1,27
 580 556 580 556 580 570 c 0,28,29
 580 578 580 578 575 585 c 0,30,31
 565 596 565 596 549.5 601 c 128,-1,32
 534 606 534 606 489 606 c 1,33,-1
 322 49 l 1,34,-1
 352 47 l 1,35,36
 470 47 470 47 580 173 c 1,37,-1
 598 156 l 1,0,1
284 57 m 1,38,-1
 445 598 l 1,39,40
 383 570 383 570 342 533 c 0,41,42
 274 467 274 467 237 380.5 c 128,-1,43
 200 294 200 294 200 205 c 0,44,45
 200 146 200 146 224 108 c 0,46,47
 243 81 243 81 284 57 c 1,38,-1
EndSplineSet
EndChar

StartChar: multiply
Encoding: 215 215 47
Width: 975
GlyphClass: 2
Flags: W
LayerCount: 2
Fore
SplineSet
267 230 m 1,0,-1
 515 479 l 1,1,-1
 267 728 l 1,2,-1
 308 768 l 1,3,-1
 556 520 l 1,4,-1
 805 768 l 1,5,-1
 844 728 l 1,6,-1
 595 480 l 1,7,-1
 845 230 l 1,8,-1
 805 190 l 1,9,-1
 555 439 l 1,10,-1
 307 190 l 1,11,-1
 267 230 l 1,0,-1
EndSplineSet
EndChar

StartChar: divide
Encoding: 247 247 48
Width: 792
GlyphClass: 2
Flags: W
LayerCount: 2
Fore
SplineSet
418 757 m 0,0,1
 443 757 443 757 461 739 c 128,-1,2
 479 721 479 721 479 695 c 0,3,4
 479 670 479 670 461 652 c 128,-1,5
 443 634 443 634 417 634 c 0,6,7
 392 634 392 634 373.5 652 c 128,-1,8
 355 670 355 670 355 695 c 0,9,10
 355 721 355 721 373.5 739 c 128,-1,11
 392 757 392 757 418 757 c 0,0,1
797 450 m 1,12,-1
 38 450 l 1,13,-1
 38 508 l 1,14,-1
 797 508 l 1,15,-1
 797 450 l 1,12,-1
418 320 m 0,16,17
 443 320 443 320 461 301.5 c 128,-1,18
 479 283 479 283 479 257 c 0,19,20
 479 233 479 233 461 215 c 128,-1,21
 443 197 443 197 418 197 c 0,22,23
 392 197 392 197 373.5 215 c 128,-1,24
 355 233 355 233 355 257 c 0,25,26
 355 283 355 283 373.5 301.5 c 128,-1,27
 392 320 392 320 418 320 c 0,16,17
EndSplineSet
EndChar

StartChar: tm_visarga
Encoding: 2947 2947 49
Width: 1366
GlyphClass: 2
Flags: W
LayerCount: 2
Fore
SplineSet
930 1086 m 0,0,1
 930 990 930 990 862 924 c 128,-1,2
 794 858 794 858 692 858 c 0,3,4
 592 858 592 858 523 925 c 128,-1,5
 454 992 454 992 454 1086 c 0,6,7
 454 1182 454 1182 522 1248 c 128,-1,8
 590 1314 590 1314 692 1314 c 0,9,10
 792 1314 792 1314 861 1247 c 128,-1,11
 930 1180 930 1180 930 1086 c 0,0,1
1292 228 m 256,12,13
 1292 132 1292 132 1224 66 c 128,-1,14
 1156 0 1156 0 1054 0 c 0,15,16
 954 0 954 0 885 67 c 128,-1,17
 816 134 816 134 816 228 c 0,18,19
 816 324 816 324 885 391 c 128,-1,20
 954 458 954 458 1054 458 c 256,21,22
 1154 458 1154 458 1223 391 c 128,-1,23
 1292 324 1292 324 1292 228 c 256,12,13
548 228 m 0,24,25
 548 132 548 132 476 66 c 128,-1,26
 404 0 404 0 300 0 c 0,27,28
 204 0 204 0 138 66 c 128,-1,29
 72 132 72 132 72 228 c 0,30,31
 72 320 72 320 140 384 c 128,-1,32
 208 448 208 448 310 448 c 0,33,34
 408 448 408 448 478 384 c 128,-1,35
 548 320 548 320 548 228 c 0,24,25
796 1086 m 0,36,37
 796 1128 796 1128 763 1159 c 128,-1,38
 730 1190 730 1190 682 1190 c 0,39,40
 642 1190 642 1190 614 1160 c 128,-1,41
 586 1130 586 1130 586 1086 c 256,42,43
 586 1042 586 1042 617 1011 c 128,-1,44
 648 980 648 980 692 980 c 256,45,46
 736 980 736 980 766 1010 c 128,-1,47
 796 1040 796 1040 796 1086 c 0,36,37
1158 228 m 0,48,49
 1158 270 1158 270 1128 302 c 128,-1,50
 1098 334 1098 334 1054 334 c 256,51,52
 1010 334 1010 334 979 303 c 128,-1,53
 948 272 948 272 948 228 c 256,54,55
 948 184 948 184 978 154 c 128,-1,56
 1008 124 1008 124 1054 124 c 0,57,58
 1098 124 1098 124 1128 154 c 128,-1,59
 1158 184 1158 184 1158 228 c 0,48,49
416 228 m 0,60,61
 416 272 416 272 385 303 c 128,-1,62
 354 334 354 334 310 334 c 256,63,64
 266 334 266 334 236 304 c 128,-1,65
 206 274 206 274 206 228 c 0,66,67
 206 180 206 180 233 147 c 128,-1,68
 260 114 260 114 300 114 c 0,69,70
 348 114 348 114 382 148 c 128,-1,71
 416 182 416 182 416 228 c 0,60,61
EndSplineSet
EndChar

StartChar: tm_a
Encoding: 2949 2949 50
Width: 1848
GlyphClass: 2
Flags: W
LayerCount: 2
Fore
SplineSet
1686 -286 m 1,0,1
 1554 -208 1554 -208 1554 -96 c 2,2,-1
 1554 152 l 1,3,-1
 1316 152 l 1,4,5
 1266 -34 1266 -34 1068 -150 c 128,-1,6
 870 -266 870 -266 600 -266 c 0,7,8
 370 -266 370 -266 209 -163 c 128,-1,9
 48 -60 48 -60 48 86 c 0,10,11
 48 162 48 162 120 214 c 128,-1,12
 192 266 192 266 296 266 c 2,13,-1
 1198 266 l 1,14,15
 1200 288 1200 288 1200 300 c 0,16,17
 1200 458 1200 458 1078 572 c 128,-1,18
 956 686 956 686 782 686 c 0,19,20
 720 686 720 686 675 653 c 128,-1,21
 630 620 630 620 630 572 c 0,22,23
 630 532 630 532 664 504 c 128,-1,24
 698 476 698 476 744 476 c 0,25,26
 786 476 786 476 812 509 c 128,-1,27
 838 542 838 542 838 590 c 0,28,29
 838 624 838 624 824 652 c 1,30,31
 876 652 876 652 914 620 c 128,-1,32
 952 588 952 588 952 542 c 0,33,34
 952 464 952 464 892 408 c 128,-1,35
 832 352 832 352 744 352 c 0,36,37
 642 352 642 352 569 417 c 128,-1,38
 496 482 496 482 496 572 c 0,39,40
 496 666 496 666 579 733 c 128,-1,41
 662 800 662 800 782 800 c 0,42,43
 1010 800 1010 800 1170 644 c 128,-1,44
 1330 488 1330 488 1330 266 c 1,45,-1
 1554 266 l 1,46,-1
 1554 812 l 1,47,48
 1614 796 1614 796 1650 752 c 128,-1,49
 1686 708 1686 708 1686 648 c 2,50,-1
 1686 -286 l 1,0,1
1176 152 m 1,51,-1
 298 152 l 2,52,53
 248 152 248 152 215 133 c 128,-1,54
 182 114 182 114 182 86 c 0,55,56
 182 -12 182 -12 305 -82 c 128,-1,57
 428 -152 428 -152 600 -152 c 0,58,59
 808 -152 808 -152 967 -68 c 128,-1,60
 1126 16 1126 16 1176 152 c 1,51,-1
EndSplineSet
EndChar

StartChar: tm_aa
Encoding: 2950 2950 51
Width: 2058
GlyphClass: 2
Flags: W
LayerCount: 2
Fore
SplineSet
2084 -134 m 0,0,1
 2084 -316 2084 -316 1890 -444 c 128,-1,2
 1696 -572 1696 -572 1418 -572 c 0,3,4
 1268 -572 1268 -572 1162 -516 c 128,-1,5
 1056 -460 1056 -460 1056 -380 c 0,6,7
 1056 -336 1056 -336 1094 -306 c 128,-1,8
 1132 -276 1132 -276 1190 -276 c 0,9,10
 1260 -276 1260 -276 1302 -346 c 1,11,12
 1248 -346 1248 -346 1219 -355 c 128,-1,13
 1190 -364 1190 -364 1190 -380 c 0,14,15
 1190 -414 1190 -414 1255 -436 c 128,-1,16
 1320 -458 1320 -458 1418 -458 c 0,17,18
 1640 -458 1640 -458 1796 -364 c 128,-1,19
 1952 -270 1952 -270 1952 -134 c 0,20,21
 1952 -68 1952 -68 1914 -24 c 128,-1,22
 1876 20 1876 20 1818 20 c 0,23,24
 1764 20 1764 20 1724 -14 c 128,-1,25
 1684 -48 1684 -48 1684 -96 c 2,26,-1
 1684 -208 l 1,27,28
 1624 -188 1624 -188 1588 -141 c 128,-1,29
 1552 -94 1552 -94 1552 -38 c 2,30,-1
 1552 152 l 1,31,-1
 1324 152 l 1,32,33
 1256 -36 1256 -36 1061 -151 c 128,-1,34
 866 -266 866 -266 618 -266 c 0,35,36
 382 -266 382 -266 214 -160 c 128,-1,37
 46 -54 46 -54 46 96 c 0,38,39
 46 166 46 166 124 216 c 128,-1,40
 202 266 202 266 314 266 c 2,41,-1
 1206 266 l 1,42,43
 1208 278 1208 278 1208 300 c 0,44,45
 1208 460 1208 460 1091 573 c 128,-1,46
 974 686 974 686 808 686 c 0,47,48
 740 686 740 686 689 652 c 128,-1,49
 638 618 638 618 638 572 c 0,50,51
 638 530 638 530 668 498 c 128,-1,52
 698 466 698 466 742 466 c 0,53,54
 784 466 784 466 812 500 c 128,-1,55
 840 534 840 534 840 580 c 0,56,57
 840 614 840 614 822 648 c 1,58,59
 828 650 828 650 835 650 c 128,-1,60
 842 650 842 650 844 650 c 0,61,62
 888 650 888 650 919 619 c 128,-1,63
 950 588 950 588 950 542 c 0,64,65
 950 464 950 464 890 408 c 128,-1,66
 830 352 830 352 742 352 c 0,67,68
 644 352 644 352 574 416 c 128,-1,69
 504 480 504 480 504 572 c 0,70,71
 504 668 504 668 592 734 c 128,-1,72
 680 800 680 800 808 800 c 0,73,74
 1030 800 1030 800 1186 656 c 128,-1,75
 1342 512 1342 512 1342 308 c 0,76,77
 1342 280 1342 280 1340 266 c 1,78,-1
 1552 266 l 1,79,-1
 1552 810 l 1,80,81
 1612 794 1612 794 1648 754 c 128,-1,82
 1684 714 1684 714 1684 666 c 2,83,-1
 1684 102 l 1,84,85
 1722 134 1722 134 1818 134 c 0,86,87
 1928 134 1928 134 2006 56 c 128,-1,88
 2084 -22 2084 -22 2084 -134 c 0,0,1
1184 152 m 1,89,-1
 314 152 l 2,90,91
 258 152 258 152 219 135 c 128,-1,92
 180 118 180 118 180 96 c 0,93,94
 180 -6 180 -6 309 -79 c 128,-1,95
 438 -152 438 -152 618 -152 c 0,96,97
 822 -152 822 -152 978 -68 c 128,-1,98
 1134 16 1134 16 1184 152 c 1,89,-1
EndSplineSet
EndChar

StartChar: tm_i
Encoding: 2951 2951 52
Width: 2080
GlyphClass: 2
Flags: W
LayerCount: 2
Fore
SplineSet
1960 172 m 1,0,1
 1826 248 1826 248 1826 342 c 2,2,-1
 1826 800 l 2,3,4
 1826 990 1826 990 1636 1124 c 128,-1,5
 1446 1258 1446 1258 1178 1258 c 0,6,7
 876 1258 876 1258 665 1091 c 128,-1,8
 454 924 454 924 454 686 c 0,9,10
 454 468 454 468 550 300 c 1,11,12
 694 352 694 352 950 352 c 0,13,14
 1254 352 1254 352 1346 326 c 1,15,16
 1368 376 1368 376 1368 486 c 0,17,18
 1368 632 1368 632 1265 735 c 128,-1,19
 1162 838 1162 838 1016 838 c 0,20,21
 936 838 936 838 881 799 c 128,-1,22
 826 760 826 760 826 704 c 0,23,24
 826 670 826 670 859 645 c 128,-1,25
 892 620 892 620 940 620 c 0,26,27
 978 620 978 620 1001 645 c 128,-1,28
 1024 670 1024 670 1024 708 c 0,29,30
 1024 752 1024 752 990 786 c 1,31,32
 1044 786 1044 786 1082 760 c 128,-1,33
 1120 734 1120 734 1120 696 c 0,34,35
 1120 616 1120 616 1068 560 c 128,-1,36
 1016 504 1016 504 940 504 c 0,37,38
 838 504 838 504 765 563 c 128,-1,39
 692 622 692 622 692 704 c 0,40,41
 692 806 692 806 787 879 c 128,-1,42
 882 952 882 952 1016 952 c 0,43,44
 1218 952 1218 952 1360 816 c 128,-1,45
 1502 680 1502 680 1502 486 c 0,46,47
 1502 352 1502 352 1478 286 c 1,48,49
 1660 220 1660 220 1767 91 c 128,-1,50
 1874 -38 1874 -38 1874 -190 c 0,51,52
 1874 -348 1874 -348 1754 -460 c 128,-1,53
 1634 -572 1634 -572 1464 -572 c 0,54,55
 1172 -572 1172 -572 930 -366 c 1,56,57
 654 -562 654 -562 378 -562 c 0,58,59
 236 -562 236 -562 136 -474 c 128,-1,60
 36 -386 36 -386 36 -260 c 0,61,62
 36 -108 36 -108 142 31 c 128,-1,63
 248 170 248 170 430 256 c 1,64,65
 320 448 320 448 320 686 c 0,66,67
 320 970 320 970 571 1171 c 128,-1,68
 822 1372 822 1372 1178 1372 c 0,69,70
 1502 1372 1502 1372 1731 1205 c 128,-1,71
 1960 1038 1960 1038 1960 800 c 2,72,-1
 1960 172 l 1,0,1
1740 -190 m 0,73,74
 1740 -76 1740 -76 1656 24 c 128,-1,75
 1572 124 1572 124 1434 174 c 1,76,77
 1402 84 1402 84 1302 -32 c 128,-1,78
 1202 -148 1202 -148 1036 -286 c 1,79,80
 1238 -458 1238 -458 1464 -458 c 0,81,82
 1578 -458 1578 -458 1659 -379 c 128,-1,83
 1740 -300 1740 -300 1740 -190 c 0,73,74
1300 206 m 1,84,85
 1184 238 1184 238 960 238 c 0,86,87
 790 238 790 238 608 188 c 1,88,89
 780 -114 780 -114 938 -204 c 1,90,91
 1220 38 1220 38 1300 206 c 1,84,85
832 -282 m 1,92,93
 638 -116 638 -116 486 146 c 1,94,95
 338 76 338 76 249 -31 c 128,-1,96
 160 -138 160 -138 160 -250 c 0,97,98
 160 -326 160 -326 224 -382 c 128,-1,99
 288 -438 288 -438 378 -438 c 0,100,101
 608 -438 608 -438 832 -282 c 1,92,93
EndSplineSet
EndChar

StartChar: tm_ii
Encoding: 2952 2952 53
Width: 1220
GlyphClass: 2
Flags: W
LayerCount: 2
Fore
SplineSet
1178 390 m 0,0,1
 1178 346 1178 346 1148 316 c 128,-1,2
 1118 286 1118 286 1074 286 c 0,3,4
 1032 286 1032 286 1000 316 c 128,-1,5
 968 346 968 346 968 390 c 256,6,7
 968 434 968 434 999 465 c 128,-1,8
 1030 496 1030 496 1074 496 c 256,9,10
 1118 496 1118 496 1148 466 c 128,-1,11
 1178 436 1178 436 1178 390 c 0,0,1
1254 686 m 1,12,-1
 854 686 l 1,13,-1
 854 -18 l 1,14,15
 720 58 720 58 720 152 c 2,16,-1
 720 686 l 1,17,-1
 322 686 l 1,18,19
 282 682 282 682 282 648 c 2,20,-1
 282 -18 l 1,21,22
 150 60 150 60 150 152 c 2,23,-1
 150 666 l 2,24,25
 150 722 150 722 189 761 c 128,-1,26
 228 800 228 800 282 800 c 2,27,-1
 1102 800 l 2,28,29
 1142 800 1142 800 1183 769 c 128,-1,30
 1224 738 1224 738 1254 686 c 1,12,-1
606 390 m 0,31,32
 606 346 606 346 576 316 c 128,-1,33
 546 286 546 286 502 286 c 256,34,35
 458 286 458 286 428 316 c 128,-1,36
 398 346 398 346 398 390 c 0,37,38
 398 432 398 432 428 464 c 128,-1,39
 458 496 458 496 502 496 c 256,40,41
 546 496 546 496 576 466 c 128,-1,42
 606 436 606 436 606 390 c 0,31,32
EndSplineSet
EndChar

StartChar: tm_u
Encoding: 2953 2953 54
Width: 1998
GlyphClass: 2
Flags: W
LayerCount: 2
Fore
SplineSet
1982 0 m 1,0,-1
 246 0 l 2,1,2
 182 0 182 0 139 39 c 128,-1,3
 96 78 96 78 96 134 c 0,4,5
 96 186 96 186 161 226 c 128,-1,6
 226 266 226 266 314 266 c 0,7,8
 518 266 518 266 664 330 c 128,-1,9
 810 394 810 394 810 486 c 0,10,11
 810 572 810 572 723 634 c 128,-1,12
 636 696 636 696 514 696 c 0,13,14
 404 696 404 696 326 654 c 128,-1,15
 248 612 248 612 248 552 c 0,16,17
 248 518 248 518 276 492 c 128,-1,18
 304 466 304 466 344 466 c 0,19,20
 388 466 388 466 418 496 c 128,-1,21
 448 526 448 526 448 572 c 2,22,-1
 448 668 l 1,23,24
 498 648 498 648 530 613 c 128,-1,25
 562 578 562 578 562 542 c 0,26,27
 562 464 562 464 498 408 c 128,-1,28
 434 352 434 352 344 352 c 0,29,30
 248 352 248 352 181 411 c 128,-1,31
 114 470 114 470 114 552 c 0,32,33
 114 658 114 658 230 734 c 128,-1,34
 346 810 346 810 514 810 c 0,35,36
 694 810 694 810 819 716 c 128,-1,37
 944 622 944 622 944 486 c 0,38,39
 944 356 944 356 758 264 c 128,-1,40
 572 172 572 172 304 172 c 0,41,42
 272 172 272 172 250 164 c 128,-1,43
 228 156 228 156 228 144 c 0,44,45
 232 114 232 114 276 114 c 2,46,-1
 1810 114 l 2,47,48
 1860 114 1860 114 1906 84 c 128,-1,49
 1952 54 1952 54 1982 0 c 1,0,-1
EndSplineSet
EndChar

StartChar: tm_uu
Encoding: 2954 2954 55
Width: 2426
GlyphClass: 2
Flags: W
LayerCount: 2
Fore
SplineSet
2376 686 m 1,0,-1
 2100 686 l 1,1,-1
 2100 172 l 1,2,3
 1966 248 1966 248 1966 342 c 2,4,-1
 1966 686 l 1,5,-1
 1930 686 l 2,6,7
 1874 686 1874 686 1834 636 c 128,-1,8
 1794 586 1794 586 1794 514 c 2,9,-1
 1794 172 l 1,10,11
 1662 250 1662 250 1662 342 c 2,12,-1
 1662 556 l 1,13,14
 1636 614 1636 614 1576 650 c 128,-1,15
 1516 686 1516 686 1442 686 c 0,16,17
 1334 686 1334 686 1260 614 c 128,-1,18
 1186 542 1186 542 1186 438 c 0,19,20
 1186 384 1186 384 1230 344 c 128,-1,21
 1274 304 1274 304 1338 304 c 0,22,23
 1372 304 1372 304 1398 332 c 128,-1,24
 1424 360 1424 360 1424 400 c 0,25,26
 1424 422 1424 422 1397 440 c 128,-1,27
 1370 458 1370 458 1336 458 c 2,28,-1
 1228 458 l 1,29,30
 1246 510 1246 510 1287 541 c 128,-1,31
 1328 572 1328 572 1376 572 c 0,32,33
 1448 572 1448 572 1498 516 c 128,-1,34
 1548 460 1548 460 1548 380 c 0,35,36
 1548 296 1548 296 1482 238 c 128,-1,37
 1416 180 1416 180 1318 180 c 0,38,39
 1208 180 1208 180 1130 256 c 128,-1,40
 1052 332 1052 332 1052 438 c 0,41,42
 1052 588 1052 588 1162 694 c 128,-1,43
 1272 800 1272 800 1432 800 c 0,44,45
 1628 800 1628 800 1716 694 c 1,46,47
 1778 800 1778 800 1930 800 c 2,48,-1
 2214 800 l 2,49,50
 2260 800 2260 800 2303 770 c 128,-1,51
 2346 740 2346 740 2376 686 c 1,0,-1
2404 0 m 1,52,-1
 250 0 l 2,53,54
 186 0 186 0 143 39 c 128,-1,55
 100 78 100 78 100 134 c 0,56,57
 100 192 100 192 158 234 c 128,-1,58
 216 276 216 276 300 276 c 2,59,-1
 442 276 l 2,60,61
 600 276 600 276 707 336 c 128,-1,62
 814 396 814 396 814 486 c 256,63,64
 814 576 814 576 728 640 c 128,-1,65
 642 704 642 704 518 704 c 0,66,67
 408 704 408 704 330 660 c 128,-1,68
 252 616 252 616 252 552 c 0,69,70
 252 514 252 514 280 486 c 128,-1,71
 308 458 308 458 348 458 c 0,72,73
 392 458 392 458 422 488 c 128,-1,74
 452 518 452 518 452 562 c 2,75,-1
 452 668 l 1,76,77
 500 650 500 650 528 616 c 128,-1,78
 556 582 556 582 556 542 c 0,79,80
 556 458 556 458 496 400 c 128,-1,81
 436 342 436 342 348 342 c 0,82,83
 252 342 252 342 185 403 c 128,-1,84
 118 464 118 464 118 552 c 0,85,86
 118 664 118 664 234 742 c 128,-1,87
 350 820 350 820 518 820 c 0,88,89
 696 820 696 820 822 722 c 128,-1,90
 948 624 948 624 948 486 c 0,91,92
 948 354 948 354 800 258 c 128,-1,93
 652 162 652 162 444 162 c 2,94,-1
 300 162 l 2,95,96
 232 162 232 162 232 144 c 0,97,98
 236 114 236 114 280 114 c 2,99,-1
 2232 114 l 2,100,101
 2282 114 2282 114 2328 84 c 128,-1,102
 2374 54 2374 54 2404 0 c 1,52,-1
EndSplineSet
EndChar

StartChar: tm_e
Encoding: 2958 2958 56
Width: 1252
GlyphClass: 2
Flags: W
LayerCount: 2
Fore
SplineSet
1378 686 m 1,0,-1
 1090 686 l 1,1,-1
 1090 -18 l 1,2,3
 956 60 956 60 956 172 c 2,4,-1
 956 686 l 1,5,-1
 578 686 l 2,6,7
 434 686 434 686 333 591 c 128,-1,8
 232 496 232 496 232 362 c 0,9,10
 232 262 232 262 291 193 c 128,-1,11
 350 124 350 124 432 124 c 0,12,13
 474 124 474 124 506 154 c 128,-1,14
 538 184 538 184 538 228 c 0,15,16
 538 260 538 260 522 282 c 128,-1,17
 506 304 506 304 480 304 c 0,18,19
 456 304 456 304 440 286 c 128,-1,20
 424 268 424 268 424 238 c 2,21,-1
 424 142 l 1,22,23
 330 166 330 166 330 278 c 0,24,25
 330 336 330 336 374 378 c 128,-1,26
 418 420 418 420 480 420 c 0,27,28
 558 420 558 420 614 364 c 128,-1,29
 670 308 670 308 670 228 c 0,30,31
 670 132 670 132 602 66 c 128,-1,32
 534 0 534 0 432 0 c 0,33,34
 296 0 296 0 198 106 c 128,-1,35
 100 212 100 212 100 362 c 0,36,37
 100 544 100 544 240 672 c 128,-1,38
 380 800 380 800 576 800 c 2,39,-1
 1186 800 l 2,40,41
 1246 800 1246 800 1297 770 c 128,-1,42
 1348 740 1348 740 1378 686 c 1,0,-1
EndSplineSet
EndChar

StartChar: tm_ee
Encoding: 2959 2959 57
Width: 1250
GlyphClass: 2
Flags: W
LayerCount: 2
Fore
SplineSet
1378 686 m 1,0,-1
 1090 686 l 1,1,-1
 1090 96 l 2,2,3
 1090 -10 1090 -10 966 -82 c 1,4,-1
 598 -272 l 1,5,6
 598 -212 598 -212 624 -164 c 128,-1,7
 650 -116 650 -116 698 -88 c 2,8,-1
 908 16 l 2,9,10
 956 36 956 36 956 96 c 2,11,-1
 956 686 l 1,12,-1
 558 686 l 2,13,14
 422 686 422 686 327 591 c 128,-1,15
 232 496 232 496 232 362 c 0,16,17
 232 260 232 260 291 187 c 128,-1,18
 350 114 350 114 432 114 c 0,19,20
 474 114 474 114 506 148 c 128,-1,21
 538 182 538 182 538 228 c 0,22,23
 538 260 538 260 518 282 c 128,-1,24
 498 304 498 304 470 304 c 0,25,26
 446 304 446 304 430 282 c 128,-1,27
 414 260 414 260 414 228 c 2,28,-1
 414 150 l 1,29,30
 320 180 320 180 320 286 c 0,31,32
 320 342 320 342 367 381 c 128,-1,33
 414 420 414 420 480 420 c 0,34,35
 558 420 558 420 614 364 c 128,-1,36
 670 308 670 308 670 228 c 0,37,38
 670 132 670 132 602 66 c 128,-1,39
 534 0 534 0 432 0 c 0,40,41
 296 0 296 0 198 106 c 128,-1,42
 100 212 100 212 100 362 c 0,43,44
 100 544 100 544 232 672 c 128,-1,45
 364 800 364 800 556 800 c 2,46,-1
 1186 800 l 2,47,48
 1246 800 1246 800 1297 770 c 128,-1,49
 1348 740 1348 740 1378 686 c 1,0,-1
EndSplineSet
EndChar

StartChar: tm_ai
Encoding: 2960 2960 58
Width: 1490
GlyphClass: 2
Flags: W
LayerCount: 2
Fore
SplineSet
1432 -220 m 0,0,1
 1432 -362 1432 -362 1318 -462 c 128,-1,2
 1204 -562 1204 -562 1042 -562 c 0,3,4
 922 -562 922 -562 832 -518 c 128,-1,5
 742 -474 742 -474 716 -404 c 1,6,7
 664 -478 664 -478 582 -520 c 128,-1,8
 500 -562 500 -562 404 -562 c 0,9,10
 248 -562 248 -562 140 -454 c 128,-1,11
 32 -346 32 -346 32 -190 c 0,12,13
 32 -64 32 -64 127 25 c 128,-1,14
 222 114 222 114 356 114 c 2,15,-1
 984 114 l 2,16,17
 1096 114 1096 114 1174 208 c 128,-1,18
 1252 302 1252 302 1252 438 c 0,19,20
 1252 540 1252 540 1191 613 c 128,-1,21
 1130 686 1130 686 1042 686 c 0,22,23
 946 686 946 686 880 636 c 128,-1,24
 814 586 814 586 814 514 c 2,25,-1
 814 202 l 1,26,27
 680 278 680 278 680 362 c 2,28,-1
 680 476 l 2,29,30
 680 558 680 558 604 622 c 128,-1,31
 528 686 528 686 442 686 c 0,32,33
 350 686 350 686 286 626 c 128,-1,34
 222 566 222 566 222 476 c 0,35,36
 222 410 222 410 264 362 c 128,-1,37
 306 314 306 314 366 314 c 0,38,39
 410 314 410 314 440 344 c 128,-1,40
 470 374 470 374 470 420 c 0,41,42
 470 452 470 452 446 474 c 128,-1,43
 422 496 422 496 384 496 c 0,44,45
 312 496 312 496 286 420 c 1,46,47
 284 430 284 430 284 450 c 0,48,49
 284 516 284 516 327 563 c 128,-1,50
 370 610 370 610 434 610 c 0,51,52
 504 610 504 610 554 554 c 128,-1,53
 604 498 604 498 604 420 c 0,54,55
 604 328 604 328 536 264 c 128,-1,56
 468 200 468 200 366 200 c 0,57,58
 252 200 252 200 171 281 c 128,-1,59
 90 362 90 362 90 476 c 0,60,61
 90 610 90 610 193 705 c 128,-1,62
 296 800 296 800 442 800 c 0,63,64
 654 800 654 800 746 666 c 1,65,66
 780 728 780 728 860 764 c 128,-1,67
 940 800 940 800 1042 800 c 0,68,69
 1184 800 1184 800 1284 694 c 128,-1,70
 1384 588 1384 588 1384 438 c 0,71,72
 1384 256 1384 256 1268 128 c 128,-1,73
 1152 0 1152 0 986 0 c 2,74,-1
 358 0 l 2,75,76
 280 0 280 0 223 -55 c 128,-1,77
 166 -110 166 -110 166 -190 c 0,78,79
 166 -298 166 -298 235 -373 c 128,-1,80
 304 -448 304 -448 404 -448 c 0,81,82
 512 -448 512 -448 586 -390 c 128,-1,83
 660 -332 660 -332 660 -248 c 2,84,-1
 660 -30 l 1,85,86
 716 -30 716 -30 755 -83 c 128,-1,87
 794 -136 794 -136 794 -210 c 2,88,-1
 794 -266 l 2,89,90
 794 -342 794 -342 867 -395 c 128,-1,91
 940 -448 940 -448 1042 -448 c 0,92,93
 1152 -448 1152 -448 1230 -382 c 128,-1,94
 1308 -316 1308 -316 1308 -220 c 0,95,96
 1308 -130 1308 -130 1254 -86 c 1,97,98
 1240 -60 1240 -60 1240 -28 c 0,99,100
 1240 10 1240 10 1262 50 c 1,101,102
 1340 -6 1340 -6 1386 -78 c 128,-1,103
 1432 -150 1432 -150 1432 -220 c 0,0,1
EndSplineSet
EndChar

StartChar: tm_o
Encoding: 2962 2962 59
Width: 1630
GlyphClass: 2
Flags: W
LayerCount: 2
Fore
SplineSet
1548 390 m 0,0,1
 1548 260 1548 260 1464 168 c 128,-1,2
 1380 76 1380 76 1262 76 c 0,3,4
 1176 76 1176 76 1115 137 c 128,-1,5
 1054 198 1054 198 1054 286 c 0,6,7
 1052 314 1052 314 1062 324 c 1,8,9
 1000 312 1000 312 960 254 c 128,-1,10
 920 196 920 196 920 114 c 0,11,12
 920 18 920 18 986 -48 c 128,-1,13
 1052 -114 1052 -114 1148 -114 c 2,14,-1
 1444 -114 l 1,15,16
 1412 -168 1412 -168 1368 -198 c 128,-1,17
 1324 -228 1324 -228 1274 -228 c 2,18,-1
 1102 -228 l 2,19,20
 1064 -228 1064 -228 1012 -272 c 128,-1,21
 960 -316 960 -316 906 -392 c 1,22,23
 856 -476 856 -476 766 -524 c 128,-1,24
 676 -572 676 -572 568 -572 c 0,25,26
 436 -572 436 -572 340 -496 c 128,-1,27
 244 -420 244 -420 244 -314 c 0,28,29
 244 -230 244 -230 296 -172 c 128,-1,30
 348 -114 348 -114 424 -114 c 0,31,32
 474 -114 474 -114 507 -149 c 128,-1,33
 540 -184 540 -184 532 -228 c 1,34,35
 508 -224 508 -224 496 -224 c 0,36,37
 446 -224 446 -224 411 -247 c 128,-1,38
 376 -270 376 -270 376 -304 c 0,39,40
 376 -364 376 -364 432 -406 c 128,-1,41
 488 -448 488 -448 568 -448 c 0,42,43
 644 -448 644 -448 699 -424 c 128,-1,44
 754 -400 754 -400 780 -352 c 0,45,46
 868 -202 868 -202 950 -162 c 1,47,48
 874 -126 874 -126 830 -53 c 128,-1,49
 786 20 786 20 786 114 c 0,50,51
 786 192 786 192 818 257 c 128,-1,52
 850 322 850 322 910 366 c 0,53,54
 1040 462 1040 462 1242 462 c 1,55,56
 1176 368 1176 368 1176 286 c 0,57,58
 1176 246 1176 246 1200 218 c 128,-1,59
 1224 190 1224 190 1262 190 c 0,60,61
 1326 190 1326 190 1370 248 c 128,-1,62
 1414 306 1414 306 1414 390 c 0,63,64
 1414 514 1414 514 1233 600 c 128,-1,65
 1052 686 1052 686 794 686 c 0,66,67
 558 686 558 686 391 585 c 128,-1,68
 224 484 224 484 224 342 c 0,69,70
 224 248 224 248 279 181 c 128,-1,71
 334 114 334 114 414 114 c 0,72,73
 462 114 462 114 496 148 c 128,-1,74
 530 182 530 182 530 228 c 0,75,76
 530 260 530 260 510 282 c 128,-1,77
 490 304 490 304 462 304 c 0,78,79
 438 304 438 304 422 286 c 128,-1,80
 406 268 406 268 406 238 c 2,81,-1
 406 148 l 1,82,83
 302 196 302 196 302 276 c 0,84,85
 302 336 302 336 348 378 c 128,-1,86
 394 420 394 420 462 420 c 0,87,88
 546 420 546 420 604 364 c 128,-1,89
 662 308 662 308 662 228 c 0,90,91
 662 132 662 132 590 66 c 128,-1,92
 518 0 518 0 414 0 c 0,93,94
 280 0 280 0 186 100 c 128,-1,95
 92 200 92 200 92 342 c 0,96,97
 92 532 92 532 297 666 c 128,-1,98
 502 800 502 800 794 800 c 0,99,100
 1106 800 1106 800 1327 680 c 128,-1,101
 1548 560 1548 560 1548 390 c 0,0,1
EndSplineSet
EndChar

StartChar: tm_oo
Encoding: 2963 2963 60
Width: 1620
GlyphClass: 2
Flags: W
LayerCount: 2
Fore
SplineSet
1536 362 m 0,0,1
 1536 238 1536 238 1452 148 c 128,-1,2
 1368 58 1368 58 1250 58 c 0,3,4
 1156 58 1156 58 1089 121 c 128,-1,5
 1022 184 1022 184 1022 276 c 0,6,7
 1022 302 1022 302 1040 326 c 1,8,9
 976 302 976 302 937 245 c 128,-1,10
 898 188 898 188 898 114 c 0,11,12
 898 18 898 18 956 -48 c 128,-1,13
 1014 -114 1014 -114 1098 -114 c 2,14,-1
 1420 -114 l 1,15,16
 1390 -168 1390 -168 1350 -198 c 128,-1,17
 1310 -228 1310 -228 1270 -228 c 2,18,-1
 1100 -228 l 2,19,20
 1054 -228 1054 -228 995 -273 c 128,-1,21
 936 -318 936 -318 884 -392 c 0,22,23
 816 -488 816 -488 724 -540 c 128,-1,24
 632 -592 632 -592 526 -592 c 0,25,26
 400 -592 400 -592 311 -513 c 128,-1,27
 222 -434 222 -434 222 -324 c 0,28,29
 222 -236 222 -236 289 -175 c 128,-1,30
 356 -114 356 -114 450 -114 c 0,31,32
 542 -114 542 -114 606 -164 c 128,-1,33
 670 -214 670 -214 670 -286 c 0,34,35
 670 -338 670 -338 628 -378 c 128,-1,36
 586 -418 586 -418 528 -418 c 0,37,38
 432 -418 432 -418 408 -352 c 1,39,-1
 470 -352 l 2,40,41
 498 -352 498 -352 517 -333 c 128,-1,42
 536 -314 536 -314 536 -286 c 0,43,44
 536 -262 536 -262 511 -245 c 128,-1,45
 486 -228 486 -228 450 -228 c 0,46,47
 410 -228 410 -228 382 -256 c 128,-1,48
 354 -284 354 -284 354 -324 c 0,49,50
 354 -390 354 -390 404 -434 c 128,-1,51
 454 -478 454 -478 526 -478 c 0,52,53
 676 -478 676 -478 778 -332 c 0,54,55
 854 -222 854 -222 916 -180 c 1,56,57
 764 -76 764 -76 764 114 c 0,58,59
 764 258 764 258 886 356 c 128,-1,60
 1008 454 1008 454 1182 454 c 0,61,62
 1214 454 1214 454 1230 452 c 1,63,64
 1154 346 1154 346 1154 276 c 0,65,66
 1154 232 1154 232 1182 202 c 128,-1,67
 1210 172 1210 172 1250 172 c 0,68,69
 1312 172 1312 172 1357 227 c 128,-1,70
 1402 282 1402 282 1402 362 c 0,71,72
 1402 494 1402 494 1223 590 c 128,-1,73
 1044 686 1044 686 792 686 c 0,74,75
 552 686 552 686 382 580 c 128,-1,76
 212 474 212 474 212 324 c 0,77,78
 212 238 212 238 264 176 c 128,-1,79
 316 114 316 114 392 114 c 0,80,81
 440 114 440 114 474 148 c 128,-1,82
 508 182 508 182 508 228 c 0,83,84
 508 260 508 260 488 282 c 128,-1,85
 468 304 468 304 440 304 c 0,86,87
 416 304 416 304 400 282 c 128,-1,88
 384 260 384 260 384 228 c 2,89,-1
 384 150 l 1,90,91
 336 168 336 168 308 202 c 128,-1,92
 280 236 280 236 280 276 c 0,93,94
 280 336 280 336 326 378 c 128,-1,95
 372 420 372 420 440 420 c 0,96,97
 524 420 524 420 582 364 c 128,-1,98
 640 308 640 308 640 228 c 0,99,100
 640 132 640 132 568 66 c 128,-1,101
 496 0 496 0 392 0 c 0,102,103
 266 0 266 0 177 95 c 128,-1,104
 88 190 88 190 88 324 c 0,105,106
 88 520 88 520 294 660 c 128,-1,107
 500 800 500 800 792 800 c 0,108,109
 1100 800 1100 800 1318 672 c 128,-1,110
 1536 544 1536 544 1536 362 c 0,0,1
EndSplineSet
EndChar

StartChar: tm_au
Encoding: 2964 2964 61
Width: 3149
GlyphClass: 2
Flags: W
LayerCount: 2
Fore
SplineSet
3090 689 m 1,0,-1
 2842 689 l 1,1,-1
 2842 -15 l 1,2,3
 2708 61 2708 61 2708 155 c 2,4,-1
 2708 689 l 1,5,-1
 2578 689 l 2,6,7
 2528 689 2528 689 2494 645 c 128,-1,8
 2460 601 2460 601 2460 537 c 2,9,-1
 2460 -15 l 1,10,11
 2328 63 2328 63 2328 155 c 2,12,-1
 2328 541 l 2,13,14
 2328 587 2328 587 2241 638 c 128,-1,15
 2154 689 2154 689 2070 689 c 0,16,17
 1932 689 1932 689 1834 589 c 128,-1,18
 1736 489 1736 489 1736 345 c 0,19,20
 1736 249 1736 249 1794 183 c 128,-1,21
 1852 117 1852 117 1936 117 c 0,22,23
 1978 117 1978 117 2010 151 c 128,-1,24
 2042 185 2042 185 2042 231 c 0,25,26
 2042 263 2042 263 2026 285 c 128,-1,27
 2010 307 2010 307 1984 307 c 0,28,29
 1956 307 1956 307 1937 290 c 128,-1,30
 1918 273 1918 273 1918 251 c 2,31,-1
 1918 143 l 1,32,33
 1876 157 1876 157 1850 191 c 128,-1,34
 1824 225 1824 225 1824 269 c 0,35,36
 1824 335 1824 335 1870 379 c 128,-1,37
 1916 423 1916 423 1984 423 c 0,38,39
 2062 423 2062 423 2118 367 c 128,-1,40
 2174 311 2174 311 2174 231 c 0,41,42
 2174 135 2174 135 2106 69 c 128,-1,43
 2038 3 2038 3 1936 3 c 0,44,45
 1798 3 1798 3 1701 104 c 128,-1,46
 1604 205 1604 205 1604 345 c 0,47,48
 1604 535 1604 535 1740 669 c 128,-1,49
 1876 803 1876 803 2070 803 c 0,50,51
 2168 803 2168 803 2247 773 c 128,-1,52
 2326 743 2326 743 2372 689 c 1,53,54
 2454 803 2454 803 2574 803 c 2,55,-1
 2918 803 l 2,56,57
 2968 803 2968 803 3014 773 c 128,-1,58
 3060 743 3060 743 3090 689 c 1,0,-1
1548 390 m 0,59,60
 1548 260 1548 260 1464 168 c 128,-1,61
 1380 76 1380 76 1262 76 c 0,62,63
 1176 76 1176 76 1115 137 c 128,-1,64
 1054 198 1054 198 1054 286 c 0,65,66
 1052 314 1052 314 1062 324 c 1,67,68
 1000 312 1000 312 960 254 c 128,-1,69
 920 196 920 196 920 114 c 0,70,71
 920 18 920 18 986 -48 c 128,-1,72
 1052 -114 1052 -114 1148 -114 c 2,73,-1
 1444 -114 l 1,74,75
 1412 -168 1412 -168 1368 -198 c 128,-1,76
 1324 -228 1324 -228 1274 -228 c 2,77,-1
 1102 -228 l 2,78,79
 1064 -228 1064 -228 1012 -272 c 128,-1,80
 960 -316 960 -316 906 -392 c 1,81,82
 856 -476 856 -476 766 -524 c 128,-1,83
 676 -572 676 -572 568 -572 c 0,84,85
 436 -572 436 -572 340 -496 c 128,-1,86
 244 -420 244 -420 244 -314 c 0,87,88
 244 -230 244 -230 296 -172 c 128,-1,89
 348 -114 348 -114 424 -114 c 0,90,91
 474 -114 474 -114 507 -149 c 128,-1,92
 540 -184 540 -184 532 -228 c 1,93,94
 508 -224 508 -224 496 -224 c 0,95,96
 446 -224 446 -224 411 -247 c 128,-1,97
 376 -270 376 -270 376 -304 c 0,98,99
 376 -364 376 -364 432 -406 c 128,-1,100
 488 -448 488 -448 568 -448 c 0,101,102
 644 -448 644 -448 699 -424 c 128,-1,103
 754 -400 754 -400 780 -352 c 0,104,105
 868 -202 868 -202 950 -162 c 1,106,107
 874 -126 874 -126 830 -53 c 128,-1,108
 786 20 786 20 786 114 c 0,109,110
 786 192 786 192 818 257 c 128,-1,111
 850 322 850 322 910 366 c 0,112,113
 1040 462 1040 462 1242 462 c 1,114,115
 1176 368 1176 368 1176 286 c 0,116,117
 1176 246 1176 246 1200 218 c 128,-1,118
 1224 190 1224 190 1262 190 c 0,119,120
 1326 190 1326 190 1370 248 c 128,-1,121
 1414 306 1414 306 1414 390 c 0,122,123
 1414 514 1414 514 1233 600 c 128,-1,124
 1052 686 1052 686 794 686 c 0,125,126
 558 686 558 686 391 585 c 128,-1,127
 224 484 224 484 224 342 c 0,128,129
 224 248 224 248 279 181 c 128,-1,130
 334 114 334 114 414 114 c 0,131,132
 462 114 462 114 496 148 c 128,-1,133
 530 182 530 182 530 228 c 0,134,135
 530 260 530 260 510 282 c 128,-1,136
 490 304 490 304 462 304 c 0,137,138
 438 304 438 304 422 286 c 128,-1,139
 406 268 406 268 406 238 c 2,140,-1
 406 148 l 1,141,142
 302 196 302 196 302 276 c 0,143,144
 302 336 302 336 348 378 c 128,-1,145
 394 420 394 420 462 420 c 0,146,147
 546 420 546 420 604 364 c 128,-1,148
 662 308 662 308 662 228 c 0,149,150
 662 132 662 132 590 66 c 128,-1,151
 518 0 518 0 414 0 c 0,152,153
 280 0 280 0 186 100 c 128,-1,154
 92 200 92 200 92 342 c 0,155,156
 92 532 92 532 297 666 c 128,-1,157
 502 800 502 800 794 800 c 0,158,159
 1106 800 1106 800 1327 680 c 128,-1,160
 1548 560 1548 560 1548 390 c 0,59,60
EndSplineSet
EndChar

StartChar: tm_ka
Encoding: 2965 2965 62
Width: 1226
GlyphClass: 2
Flags: W
LayerCount: 2
Fore
SplineSet
1152 266 m 0,0,1
 1152 154 1152 154 1092 77 c 128,-1,2
 1032 0 1032 0 944 0 c 2,3,-1
 740 0 l 1,4,5
 778 76 778 76 918 114 c 0,6,7
 962 126 962 126 990 168 c 128,-1,8
 1018 210 1018 210 1018 266 c 0,9,10
 1018 304 1018 304 984 332 c 128,-1,11
 950 360 950 360 902 360 c 2,12,-1
 752 360 l 1,13,-1
 752 248 l 2,14,15
 752 142 752 142 652 66 c 128,-1,16
 552 -10 552 -10 408 -10 c 0,17,18
 266 -10 266 -10 166 70 c 128,-1,19
 66 150 66 150 66 266 c 0,20,21
 66 350 66 350 133 410 c 128,-1,22
 200 470 200 470 294 470 c 1,23,-1
 294 648 l 2,24,25
 294 712 294 712 344 756 c 128,-1,26
 394 800 394 800 466 800 c 2,27,-1
 780 800 l 2,28,29
 844 800 844 800 898 770 c 128,-1,30
 952 740 952 740 982 686 c 1,31,-1
 752 686 l 1,32,-1
 752 474 l 1,33,-1
 904 474 l 2,34,35
 1006 474 1006 474 1079 413 c 128,-1,36
 1152 352 1152 352 1152 266 c 0,0,1
618 248 m 2,37,-1
 618 686 l 1,38,-1
 468 686 l 1,39,40
 428 682 428 682 428 648 c 2,41,-1
 428 474 l 1,42,-1
 598 474 l 1,43,44
 532 360 532 360 388 360 c 2,45,-1
 304 360 l 2,46,47
 260 360 260 360 229 333 c 128,-1,48
 198 306 198 306 198 266 c 0,49,50
 198 198 198 198 259 151 c 128,-1,51
 320 104 320 104 408 104 c 0,52,53
 494 104 494 104 556 146 c 128,-1,54
 618 188 618 188 618 248 c 2,37,-1
EndSplineSet
EndChar

StartChar: tm_nga
Encoding: 2969 2969 63
Width: 1538
GlyphClass: 2
Flags: W
LayerCount: 2
Fore
SplineSet
1390 192 m 2,0,1
 1390 112 1390 112 1330 56 c 128,-1,2
 1270 0 1270 0 1180 0 c 2,3,-1
 478 0 l 1,4,5
 554 114 554 114 662 114 c 2,6,-1
 756 114 l 1,7,8
 830 122 830 122 880 176 c 128,-1,9
 930 230 930 230 930 304 c 0,10,11
 930 370 930 370 886 414 c 128,-1,12
 842 458 842 458 776 458 c 0,13,14
 680 458 680 458 644 394 c 1,15,-1
 644 194 l 1,16,17
 510 256 510 256 510 374 c 2,18,-1
 510 686 l 1,19,-1
 342 686 l 2,20,21
 318 686 318 686 300 666 c 128,-1,22
 282 646 282 646 282 618 c 2,23,-1
 282 -18 l 1,24,25
 148 60 148 60 148 172 c 2,26,-1
 148 618 l 2,27,28
 148 692 148 692 204 746 c 128,-1,29
 260 800 260 800 340 800 c 2,30,-1
 758 800 l 2,31,32
 804 800 804 800 847 770 c 128,-1,33
 890 740 890 740 920 686 c 1,34,-1
 644 686 l 1,35,-1
 644 544 l 1,36,37
 696 572 696 572 776 572 c 0,38,39
 894 572 894 572 978 494 c 128,-1,40
 1062 416 1062 416 1062 304 c 0,41,42
 1062 180 1062 180 984 114 c 1,43,-1
 1178 114 l 2,44,45
 1212 114 1212 114 1234 136 c 128,-1,46
 1256 158 1256 158 1256 192 c 2,47,-1
 1256 824 l 1,48,49
 1390 732 1390 732 1390 610 c 2,50,-1
 1390 192 l 2,0,1
EndSplineSet
EndChar

StartChar: tm_ca
Encoding: 2970 2970 64
Width: 1004
GlyphClass: 2
Flags: W
LayerCount: 2
Fore
SplineSet
986 360 m 1,0,-1
 748 360 l 1,1,-1
 748 286 l 2,2,3
 748 162 748 162 648 76 c 128,-1,4
 548 -10 548 -10 404 -10 c 0,5,6
 266 -10 266 -10 168 68 c 128,-1,7
 70 146 70 146 70 258 c 0,8,9
 70 344 70 344 133 407 c 128,-1,10
 196 470 196 470 290 470 c 1,11,-1
 290 638 l 2,12,13
 290 704 290 704 346 752 c 128,-1,14
 402 800 402 800 480 800 c 2,15,-1
 804 800 l 2,16,17
 860 800 860 800 907 770 c 128,-1,18
 954 740 954 740 986 686 c 1,19,-1
 748 686 l 1,20,-1
 748 474 l 1,21,-1
 824 474 l 2,22,23
 870 474 870 474 913 444 c 128,-1,24
 956 414 956 414 986 360 c 1,0,-1
614 286 m 2,25,-1
 614 686 l 1,26,-1
 482 686 l 2,27,28
 458 686 458 686 441 669 c 128,-1,29
 424 652 424 652 424 628 c 2,30,-1
 424 474 l 1,31,-1
 594 474 l 1,32,33
 528 360 528 360 402 360 c 2,34,-1
 320 360 l 2,35,36
 272 360 272 360 238 330 c 128,-1,37
 204 300 204 300 204 258 c 0,38,39
 204 192 204 192 262 148 c 128,-1,40
 320 104 320 104 404 104 c 0,41,42
 492 104 492 104 553 157 c 128,-1,43
 614 210 614 210 614 286 c 2,25,-1
EndSplineSet
EndChar

StartChar: tm_ja
Encoding: 2972 2972 65
Width: 1498
GlyphClass: 2
Flags: W
LayerCount: 2
Fore
SplineSet
1420 -324 m 0,0,1
 1420 -426 1420 -426 1347 -499 c 128,-1,2
 1274 -572 1274 -572 1172 -572 c 0,3,4
 1096 -572 1096 -572 1044 -522 c 128,-1,5
 992 -472 992 -472 992 -400 c 0,6,7
 992 -318 992 -318 1096 -246 c 1,8,-1
 1096 -370 l 2,9,10
 1096 -408 1096 -408 1123 -433 c 128,-1,11
 1150 -458 1150 -458 1192 -458 c 0,12,13
 1232 -458 1232 -458 1259 -419 c 128,-1,14
 1286 -380 1286 -380 1286 -324 c 0,15,16
 1286 -272 1286 -272 1248 -236 c 128,-1,17
 1210 -200 1210 -200 1154 -200 c 0,18,19
 990 -200 990 -200 842 -376 c 0,20,21
 764 -468 764 -468 651 -520 c 128,-1,22
 538 -572 538 -572 410 -572 c 0,23,24
 260 -572 260 -572 154 -472 c 128,-1,25
 48 -372 48 -372 48 -228 c 0,26,27
 48 -86 48 -86 148 14 c 128,-1,28
 248 114 248 114 392 114 c 2,29,-1
 982 114 l 2,30,31
 1102 114 1102 114 1185 203 c 128,-1,32
 1268 292 1268 292 1268 420 c 0,33,34
 1268 530 1268 530 1202 608 c 128,-1,35
 1136 686 1136 686 1038 686 c 0,36,37
 952 686 952 686 895 640 c 128,-1,38
 838 594 838 594 838 524 c 2,39,-1
 838 172 l 1,40,41
 706 250 706 250 706 362 c 2,42,-1
 706 476 l 2,43,44
 706 568 706 568 638 632 c 128,-1,45
 570 696 570 696 468 696 c 256,46,47
 366 696 366 696 293 637 c 128,-1,48
 220 578 220 578 220 496 c 256,49,50
 220 414 220 414 266 359 c 128,-1,51
 312 304 312 304 382 304 c 0,52,53
 426 304 426 304 456 338 c 128,-1,54
 486 372 486 372 486 420 c 0,55,56
 486 452 486 452 470 474 c 128,-1,57
 454 496 454 496 430 496 c 0,58,59
 398 496 398 496 376 476 c 128,-1,60
 354 456 354 456 354 428 c 2,61,-1
 354 354 l 1,62,63
 278 398 278 398 278 466 c 0,64,65
 278 528 278 528 321 569 c 128,-1,66
 364 610 364 610 430 610 c 0,67,68
 508 610 508 610 564 554 c 128,-1,69
 620 498 620 498 620 420 c 0,70,71
 620 324 620 324 551 257 c 128,-1,72
 482 190 482 190 382 190 c 0,73,74
 260 190 260 190 173 279 c 128,-1,75
 86 368 86 368 86 496 c 0,76,77
 86 626 86 626 198 718 c 128,-1,78
 310 810 310 810 468 810 c 0,79,80
 670 810 670 810 762 676 c 1,81,82
 796 732 796 732 870 766 c 128,-1,83
 944 800 944 800 1038 800 c 0,84,85
 1188 800 1188 800 1294 690 c 128,-1,86
 1400 580 1400 580 1400 420 c 0,87,88
 1400 248 1400 248 1278 124 c 128,-1,89
 1156 0 1156 0 984 0 c 2,90,-1
 394 0 l 2,91,92
 306 0 306 0 244 -66 c 128,-1,93
 182 -132 182 -132 182 -228 c 256,94,95
 182 -324 182 -324 249 -391 c 128,-1,96
 316 -458 316 -458 410 -458 c 0,97,98
 508 -458 508 -458 600 -414 c 128,-1,99
 692 -370 692 -370 760 -290 c 0,100,101
 846 -188 846 -188 948 -132 c 128,-1,102
 1050 -76 1050 -76 1154 -76 c 0,103,104
 1264 -76 1264 -76 1342 -148 c 128,-1,105
 1420 -220 1420 -220 1420 -324 c 0,0,1
EndSplineSet
EndChar

StartChar: tm_nya
Encoding: 2974 2974 66
Width: 1912
GlyphClass: 2
Flags: W
LayerCount: 2
Fore
SplineSet
1834 172 m 0,0,1
 1834 -136 1834 -136 1589 -354 c 128,-1,2
 1344 -572 1344 -572 996 -572 c 0,3,4
 804 -572 804 -572 642 -512 c 128,-1,5
 480 -452 480 -452 367 -339 c 128,-1,6
 254 -226 254 -226 192 -62 c 128,-1,7
 130 102 130 102 130 286 c 0,8,9
 130 566 130 566 316 828 c 1,10,11
 346 744 346 744 346 682 c 0,12,13
 346 650 346 650 338 632 c 0,14,15
 264 422 264 422 264 286 c 0,16,17
 264 -54 264 -54 464 -254 c 0,18,19
 560 -350 560 -350 700 -404 c 128,-1,20
 840 -458 840 -458 996 -458 c 0,21,22
 1290 -458 1290 -458 1496 -274 c 128,-1,23
 1702 -90 1702 -90 1702 172 c 0,24,25
 1702 254 1702 254 1646 312 c 128,-1,26
 1590 370 1590 370 1510 370 c 0,27,28
 1378 370 1378 370 1320 270 c 1,29,-1
 1320 -18 l 1,30,31
 1186 60 1186 60 1186 172 c 2,32,-1
 1186 686 l 1,33,-1
 846 686 l 2,34,35
 722 686 722 686 635 591 c 128,-1,36
 548 496 548 496 548 362 c 0,37,38
 548 260 548 260 605 187 c 128,-1,39
 662 114 662 114 740 114 c 0,40,41
 782 114 782 114 813 147 c 128,-1,42
 844 180 844 180 844 228 c 0,43,44
 844 258 844 258 825 277 c 128,-1,45
 806 296 806 296 778 296 c 0,46,47
 744 296 744 296 724 270 c 128,-1,48
 704 244 704 244 710 210 c 1,49,-1
 710 142 l 1,50,51
 616 198 616 198 616 278 c 0,52,53
 616 332 616 332 663 371 c 128,-1,54
 710 410 710 410 778 410 c 0,55,56
 862 410 862 410 920 358 c 128,-1,57
 978 306 978 306 978 228 c 0,58,59
 978 132 978 132 910 66 c 128,-1,60
 842 0 842 0 740 0 c 0,61,62
 608 0 608 0 512 106 c 128,-1,63
 416 212 416 212 416 362 c 0,64,65
 416 544 416 544 540 672 c 128,-1,66
 664 800 664 800 844 800 c 2,67,-1
 1414 800 l 2,68,69
 1474 800 1474 800 1525 770 c 128,-1,70
 1576 740 1576 740 1606 686 c 1,71,-1
 1320 686 l 1,72,-1
 1320 430 l 1,73,74
 1386 496 1386 496 1510 496 c 0,75,76
 1644 496 1644 496 1739 401 c 128,-1,77
 1834 306 1834 306 1834 172 c 0,0,1
EndSplineSet
EndChar

StartChar: tm_tta
Encoding: 2975 2975 67
Width: 1342
GlyphClass: 2
Flags: W
LayerCount: 2
Fore
SplineSet
1322 0 m 1,0,-1
 354 0 l 2,1,2
 268 0 268 0 206 56 c 128,-1,3
 144 112 144 112 144 192 c 2,4,-1
 144 824 l 1,5,6
 204 780 204 780 240 718 c 128,-1,7
 276 656 276 656 276 590 c 2,8,-1
 276 192 l 2,9,10
 276 158 276 158 298 136 c 128,-1,11
 320 114 320 114 354 114 c 2,12,-1
 1152 114 l 2,13,14
 1270 114 1270 114 1322 0 c 1,0,-1
EndSplineSet
EndChar

StartChar: tm_nna
Encoding: 2979 2979 68
Width: 2232
GlyphClass: 2
Flags: W
LayerCount: 2
Fore
SplineSet
2336 686 m 1,0,-1
 2068 686 l 1,1,-1
 2068 -18 l 1,2,3
 1936 60 1936 60 1936 152 c 2,4,-1
 1936 686 l 1,5,-1
 1840 686 l 2,6,7
 1696 686 1696 686 1620 632 c 1,8,9
 1744 484 1744 484 1744 304 c 0,10,11
 1744 178 1744 178 1677 89 c 128,-1,12
 1610 0 1610 0 1516 0 c 0,13,14
 1426 0 1426 0 1362 78 c 128,-1,15
 1298 156 1298 156 1298 266 c 0,16,17
 1298 364 1298 364 1351 437 c 128,-1,18
 1404 510 1404 510 1488 526 c 1,19,20
 1430 458 1430 458 1430 266 c 0,21,22
 1430 202 1430 202 1454 158 c 128,-1,23
 1478 114 1478 114 1516 114 c 0,24,25
 1556 114 1556 114 1584 170 c 128,-1,26
 1612 226 1612 226 1612 304 c 0,27,28
 1612 462 1612 462 1496 574 c 128,-1,29
 1380 686 1380 686 1212 686 c 0,30,31
 1092 686 1092 686 1030 634 c 1,32,33
 1098 568 1098 568 1136 481 c 128,-1,34
 1174 394 1174 394 1174 304 c 0,35,36
 1174 178 1174 178 1107 89 c 128,-1,37
 1040 0 1040 0 944 0 c 0,38,39
 854 0 854 0 790 78 c 128,-1,40
 726 156 726 156 726 266 c 0,41,42
 726 368 726 368 780 445 c 128,-1,43
 834 522 834 522 916 536 c 1,44,45
 858 468 858 468 858 266 c 0,46,47
 858 202 858 202 882 158 c 128,-1,48
 906 114 906 114 944 114 c 0,49,50
 984 114 984 114 1012 170 c 128,-1,51
 1040 226 1040 226 1040 304 c 0,52,53
 1040 462 1040 462 912 574 c 128,-1,54
 784 686 784 686 602 686 c 0,55,56
 444 686 444 686 332 592 c 128,-1,57
 220 498 220 498 220 362 c 0,58,59
 220 260 220 260 279 187 c 128,-1,60
 338 114 338 114 420 114 c 0,61,62
 462 114 462 114 494 148 c 128,-1,63
 526 182 526 182 526 228 c 0,64,65
 526 260 526 260 506 282 c 128,-1,66
 486 304 486 304 458 304 c 256,67,68
 430 304 430 304 408 282 c 128,-1,69
 386 260 386 260 382 226 c 1,70,-1
 382 150 l 1,71,72
 344 162 344 162 321 199 c 128,-1,73
 298 236 298 236 298 286 c 0,74,75
 298 342 298 342 345 381 c 128,-1,76
 392 420 392 420 458 420 c 0,77,78
 542 420 542 420 600 364 c 128,-1,79
 658 308 658 308 658 228 c 0,80,81
 658 132 658 132 590 66 c 128,-1,82
 522 0 522 0 420 0 c 0,83,84
 286 0 286 0 192 106 c 128,-1,85
 98 212 98 212 98 362 c 0,86,87
 98 544 98 544 246 672 c 128,-1,88
 394 800 394 800 602 800 c 0,89,90
 800 800 800 800 942 718 c 1,91,92
 1028 800 1028 800 1212 800 c 0,93,94
 1382 800 1382 800 1526 716 c 1,95,96
 1648 800 1648 800 1840 800 c 2,97,-1
 2164 800 l 2,98,99
 2214 800 2214 800 2260 770 c 128,-1,100
 2306 740 2306 740 2336 686 c 1,0,-1
EndSplineSet
EndChar

StartChar: tm_ta
Encoding: 2980 2980 69
Width: 1252
GlyphClass: 2
Flags: W
LayerCount: 2
Fore
SplineSet
1168 190 m 0,0,1
 1168 26 1168 26 1046 -92 c 128,-1,2
 924 -210 924 -210 750 -210 c 2,3,-1
 236 -210 l 2,4,5
 202 -210 202 -210 180 -238 c 128,-1,6
 158 -266 158 -266 158 -306 c 2,7,-1
 158 -442 l 1,8,9
 98 -420 98 -420 62 -372 c 128,-1,10
 26 -324 26 -324 26 -266 c 0,11,12
 26 -196 26 -196 86 -146 c 128,-1,13
 146 -96 146 -96 234 -96 c 2,14,-1
 750 -96 l 2,15,16
 866 -96 866 -96 950 -12 c 128,-1,17
 1034 72 1034 72 1034 190 c 0,18,19
 1034 262 1034 262 995 311 c 128,-1,20
 956 360 956 360 898 360 c 2,21,-1
 750 360 l 1,22,-1
 750 248 l 2,23,24
 750 142 750 142 656 66 c 128,-1,25
 562 -10 562 -10 426 -10 c 0,26,27
 280 -10 280 -10 176 68 c 128,-1,28
 72 146 72 146 72 258 c 0,29,30
 72 346 72 346 136 408 c 128,-1,31
 200 470 200 470 292 470 c 1,32,-1
 292 638 l 2,33,34
 292 706 292 706 345 753 c 128,-1,35
 398 800 398 800 474 800 c 2,36,-1
 826 800 l 2,37,38
 872 800 872 800 915 770 c 128,-1,39
 958 740 958 740 988 686 c 1,40,-1
 750 686 l 1,41,-1
 750 474 l 1,42,-1
 902 474 l 2,43,44
 1012 474 1012 474 1090 392 c 128,-1,45
 1168 310 1168 310 1168 190 c 0,0,1
616 248 m 2,46,-1
 616 686 l 1,47,-1
 476 686 l 2,48,49
 454 686 454 686 440 670 c 128,-1,50
 426 654 426 654 426 628 c 2,51,-1
 426 474 l 1,52,-1
 596 474 l 1,53,54
 528 360 528 360 406 360 c 2,55,-1
 332 360 l 2,56,57
 280 360 280 360 243 331 c 128,-1,58
 206 302 206 302 206 258 c 0,59,60
 206 194 206 194 269 149 c 128,-1,61
 332 104 332 104 426 104 c 0,62,63
 504 104 504 104 560 146 c 128,-1,64
 616 188 616 188 616 248 c 2,46,-1
EndSplineSet
EndChar

StartChar: tm_na
Encoding: 2984 2984 70
Width: 1310
GlyphClass: 2
Flags: W
LayerCount: 2
Fore
SplineSet
1230 162 m 0,0,1
 1230 6 1230 6 1100 -102 c 128,-1,2
 970 -210 970 -210 784 -210 c 2,3,-1
 290 -210 l 2,4,5
 242 -210 242 -210 208 -244 c 128,-1,6
 174 -278 174 -278 174 -324 c 2,7,-1
 174 -486 l 1,8,9
 50 -414 50 -414 50 -314 c 0,10,11
 50 -222 50 -222 119 -159 c 128,-1,12
 188 -96 188 -96 288 -96 c 2,13,-1
 784 -96 l 2,14,15
 914 -96 914 -96 1006 -20 c 128,-1,16
 1098 56 1098 56 1098 162 c 0,17,18
 1098 258 1098 258 1034 324 c 128,-1,19
 970 390 970 390 878 390 c 0,20,21
 742 390 742 390 650 260 c 1,22,-1
 650 -18 l 1,23,24
 516 60 516 60 516 172 c 2,25,-1
 516 686 l 1,26,-1
 348 686 l 2,27,28
 324 686 324 686 306 670 c 128,-1,29
 288 654 288 654 288 628 c 2,30,-1
 288 -18 l 1,31,32
 154 60 154 60 154 172 c 2,33,-1
 154 628 l 2,34,35
 154 700 154 700 210 750 c 128,-1,36
 266 800 266 800 346 800 c 2,37,-1
 764 800 l 2,38,39
 820 800 820 800 867 770 c 128,-1,40
 914 740 914 740 946 686 c 1,41,-1
 650 686 l 1,42,-1
 650 430 l 1,43,44
 724 504 724 504 878 504 c 0,45,46
 1022 504 1022 504 1126 404 c 128,-1,47
 1230 304 1230 304 1230 162 c 0,0,1
EndSplineSet
EndChar

StartChar: tm_nnna
Encoding: 2985 2985 71
Width: 1652
GlyphClass: 2
Flags: W
LayerCount: 2
Fore
SplineSet
1772 686 m 1,0,-1
 1494 686 l 1,1,-1
 1494 -16 l 1,2,3
 1434 12 1434 12 1398 63 c 128,-1,4
 1362 114 1362 114 1362 172 c 2,5,-1
 1362 686 l 1,6,-1
 1190 686 l 2,7,8
 1084 686 1084 686 1044 636 c 1,9,10
 1106 564 1106 564 1138 479 c 128,-1,11
 1170 394 1170 394 1170 304 c 0,12,13
 1170 178 1170 178 1103 89 c 128,-1,14
 1036 0 1036 0 942 0 c 0,15,16
 852 0 852 0 788 78 c 128,-1,17
 724 156 724 156 724 266 c 0,18,19
 724 368 724 368 783 444 c 128,-1,20
 842 520 842 520 934 536 c 1,21,22
 896 490 896 490 876 422 c 128,-1,23
 856 354 856 354 856 266 c 0,24,25
 856 202 856 202 880 158 c 128,-1,26
 904 114 904 114 942 114 c 0,27,28
 982 114 982 114 1010 170 c 128,-1,29
 1038 226 1038 226 1038 304 c 0,30,31
 1038 462 1038 462 912 574 c 128,-1,32
 786 686 786 686 608 686 c 0,33,34
 450 686 450 686 339 585 c 128,-1,35
 228 484 228 484 228 342 c 0,36,37
 228 246 228 246 286 180 c 128,-1,38
 344 114 344 114 428 114 c 0,39,40
 470 114 470 114 501 147 c 128,-1,41
 532 180 532 180 532 228 c 0,42,43
 532 260 532 260 514 282 c 128,-1,44
 496 304 496 304 466 304 c 0,45,46
 444 304 444 304 426 281 c 128,-1,47
 408 258 408 258 408 228 c 2,48,-1
 408 150 l 1,49,50
 314 186 314 186 314 278 c 0,51,52
 314 336 314 336 358 378 c 128,-1,53
 402 420 402 420 466 420 c 0,54,55
 550 420 550 420 608 364 c 128,-1,56
 666 308 666 308 666 228 c 0,57,58
 666 132 666 132 598 66 c 128,-1,59
 530 0 530 0 428 0 c 0,60,61
 290 0 290 0 192 100 c 128,-1,62
 94 200 94 200 94 342 c 0,63,64
 94 532 94 532 244 666 c 128,-1,65
 394 800 394 800 608 800 c 0,66,67
 800 800 800 800 932 708 c 1,68,69
 1040 800 1040 800 1190 800 c 2,70,-1
 1590 800 l 2,71,72
 1646 800 1646 800 1693 770 c 128,-1,73
 1740 740 1740 740 1772 686 c 1,0,-1
EndSplineSet
EndChar

StartChar: tm_pa
Encoding: 2986 2986 72
Width: 1278
GlyphClass: 2
Flags: W
LayerCount: 2
Fore
SplineSet
1134 190 m 2,0,1
 1134 112 1134 112 1070 56 c 128,-1,2
 1006 0 1006 0 916 0 c 2,3,-1
 352 0 l 2,4,5
 268 0 268 0 206 56 c 128,-1,6
 144 112 144 112 144 190 c 2,7,-1
 144 814 l 1,8,9
 204 792 204 792 240 744 c 128,-1,10
 276 696 276 696 276 638 c 2,11,-1
 276 190 l 2,12,13
 276 158 276 158 298 136 c 128,-1,14
 320 114 320 114 352 114 c 2,15,-1
 914 114 l 2,16,17
 948 114 948 114 974 136 c 128,-1,18
 1000 158 1000 158 1000 190 c 2,19,-1
 1000 812 l 1,20,21
 1058 798 1058 798 1096 748 c 128,-1,22
 1134 698 1134 698 1134 638 c 2,23,-1
 1134 190 l 2,0,1
EndSplineSet
EndChar

StartChar: tm_ma
Encoding: 2990 2990 73
Width: 1330
GlyphClass: 2
Flags: W
LayerCount: 2
Fore
SplineSet
1222 324 m 0,0,1
 1222 192 1222 192 1142 96 c 128,-1,2
 1062 0 1062 0 948 0 c 2,3,-1
 334 0 l 2,4,5
 258 0 258 0 202 56 c 128,-1,6
 146 112 146 112 146 190 c 2,7,-1
 146 814 l 1,8,9
 206 792 206 792 242 746 c 128,-1,10
 278 700 278 700 278 648 c 2,11,-1
 278 190 l 2,12,13
 278 158 278 158 300 136 c 128,-1,14
 322 114 322 114 354 114 c 2,15,-1
 602 114 l 1,16,-1
 602 620 l 2,17,18
 602 696 602 696 668 748 c 128,-1,19
 734 800 734 800 832 800 c 0,20,21
 994 800 994 800 1108 660 c 128,-1,22
 1222 520 1222 520 1222 324 c 0,0,1
1088 324 m 0,23,24
 1088 476 1088 476 1014 581 c 128,-1,25
 940 686 940 686 832 686 c 0,26,27
 792 686 792 686 764 664 c 128,-1,28
 736 642 736 642 736 610 c 2,29,-1
 736 114 l 1,30,-1
 946 114 l 2,31,32
 1004 114 1004 114 1046 175 c 128,-1,33
 1088 236 1088 236 1088 324 c 0,23,24
EndSplineSet
EndChar

StartChar: tm_ya
Encoding: 2991 2991 74
Width: 1380
GlyphClass: 2
Flags: W
LayerCount: 2
Fore
SplineSet
1234 190 m 2,0,1
 1234 112 1234 112 1180 56 c 128,-1,2
 1126 0 1126 0 1046 0 c 2,3,-1
 700 0 l 2,4,5
 636 0 636 0 590 30 c 128,-1,6
 544 60 544 60 540 106 c 1,7,8
 450 0 450 0 330 0 c 0,9,10
 256 0 256 0 202 44 c 128,-1,11
 148 88 148 88 148 152 c 2,12,-1
 148 808 l 1,13,14
 204 808 204 808 243 761 c 128,-1,15
 282 714 282 714 282 648 c 2,16,-1
 282 152 l 1,17,18
 286 114 286 114 330 114 c 0,19,20
 434 114 434 114 530 282 c 1,21,-1
 530 808 l 1,22,23
 586 808 586 808 625 755 c 128,-1,24
 664 702 664 702 664 628 c 2,25,-1
 664 152 l 1,26,27
 668 114 668 114 702 114 c 2,28,-1
 1044 114 l 2,29,30
 1066 114 1066 114 1084 137 c 128,-1,31
 1102 160 1102 160 1102 190 c 2,32,-1
 1102 808 l 1,33,34
 1156 808 1156 808 1195 755 c 128,-1,35
 1234 702 1234 702 1234 628 c 2,36,-1
 1234 190 l 2,0,1
EndSplineSet
EndChar

StartChar: tm_ra
Encoding: 2992 2992 75
Width: 822
GlyphClass: 2
Flags: W
LayerCount: 2
Fore
SplineSet
880 686 m 1,0,-1
 660 686 l 1,1,-1
 660 96 l 2,2,3
 660 -8 660 -8 566 -64 c 1,4,-1
 160 -282 l 1,5,6
 160 -142 160 -142 270 -78 c 1,7,-1
 496 34 l 1,8,9
 528 62 528 62 528 96 c 2,10,-1
 528 686 l 1,11,-1
 320 686 l 1,12,13
 280 682 280 682 280 638 c 2,14,-1
 280 -4 l 1,15,16
 146 92 146 92 146 190 c 2,17,-1
 146 638 l 2,18,19
 146 706 146 706 197 753 c 128,-1,20
 248 800 248 800 318 800 c 2,21,-1
 708 800 l 2,22,23
 758 800 758 800 804 770 c 128,-1,24
 850 740 850 740 880 686 c 1,0,-1
EndSplineSet
EndChar

StartChar: tm_rra
Encoding: 2993 2993 76
Width: 1314
GlyphClass: 2
Flags: W
LayerCount: 2
Fore
SplineSet
1200 342 m 0,0,1
 1200 112 1200 112 1059 -49 c 128,-1,2
 918 -210 918 -210 716 -210 c 2,3,-1
 268 -210 l 2,4,5
 228 -210 228 -210 200 -246 c 128,-1,6
 172 -282 172 -282 172 -336 c 2,7,-1
 172 -462 l 1,8,9
 120 -448 120 -448 89 -397 c 128,-1,10
 58 -346 58 -346 58 -276 c 0,11,12
 58 -200 58 -200 118 -148 c 128,-1,13
 178 -96 178 -96 266 -96 c 2,14,-1
 714 -96 l 2,15,16
 858 -96 858 -96 962 32 c 128,-1,17
 1066 160 1066 160 1066 342 c 0,18,19
 1066 486 1066 486 984 586 c 128,-1,20
 902 686 902 686 782 686 c 0,21,22
 762 686 762 686 739 676 c 128,-1,23
 716 666 716 666 692 648 c 0,24,25
 648 610 648 610 648 572 c 2,26,-1
 648 -18 l 1,27,28
 514 58 514 58 514 152 c 2,29,-1
 514 572 l 2,30,31
 514 610 514 610 471 648 c 128,-1,32
 428 686 428 686 390 686 c 0,33,34
 348 686 348 686 317 653 c 128,-1,35
 286 620 286 620 286 572 c 2,36,-1
 286 -18 l 1,37,38
 152 58 152 58 152 152 c 2,39,-1
 152 572 l 2,40,41
 152 668 152 668 220 734 c 128,-1,42
 288 800 288 800 390 800 c 0,43,44
 542 800 542 800 584 706 c 1,45,46
 652 800 652 800 782 800 c 0,47,48
 956 800 956 800 1078 666 c 128,-1,49
 1200 532 1200 532 1200 342 c 0,0,1
EndSplineSet
EndChar

StartChar: tm_la
Encoding: 2994 2994 77
Width: 1506
GlyphClass: 2
Flags: W
LayerCount: 2
Fore
SplineSet
1400 400 m 0,0,1
 1400 236 1400 236 1300 118 c 128,-1,2
 1200 0 1200 0 1058 0 c 0,3,4
 922 0 922 0 838 107 c 128,-1,5
 754 214 754 214 754 390 c 0,6,7
 754 516 754 516 678 606 c 128,-1,8
 602 696 602 696 496 696 c 256,9,10
 390 696 390 696 314 604 c 128,-1,11
 238 512 238 512 238 380 c 0,12,13
 238 272 238 272 294 198 c 128,-1,14
 350 124 350 124 430 124 c 0,15,16
 474 124 474 124 504 154 c 128,-1,17
 534 184 534 184 534 228 c 0,18,19
 534 260 534 260 516 282 c 128,-1,20
 498 304 498 304 468 304 c 0,21,22
 442 304 442 304 424 284 c 128,-1,23
 406 264 406 264 410 238 c 1,24,-1
 410 158 l 1,25,26
 362 174 362 174 334 209 c 128,-1,27
 306 244 306 244 306 286 c 0,28,29
 306 342 306 342 353 381 c 128,-1,30
 400 420 400 420 468 420 c 0,31,32
 552 420 552 420 610 364 c 128,-1,33
 668 308 668 308 668 228 c 0,34,35
 668 132 668 132 600 66 c 128,-1,36
 532 0 532 0 430 0 c 0,37,38
 296 0 296 0 201 111 c 128,-1,39
 106 222 106 222 106 380 c 0,40,41
 106 558 106 558 220 684 c 128,-1,42
 334 810 334 810 496 810 c 256,43,44
 658 810 658 810 772 688 c 128,-1,45
 886 566 886 566 886 390 c 0,46,47
 886 264 886 264 934 189 c 128,-1,48
 982 114 982 114 1058 114 c 0,49,50
 1144 114 1144 114 1206 198 c 128,-1,51
 1268 282 1268 282 1268 400 c 0,52,53
 1268 532 1268 532 1210 642 c 128,-1,54
 1152 752 1152 752 1050 812 c 1,55,56
 1078 816 1078 816 1092 816 c 0,57,58
 1216 816 1216 816 1308 693 c 128,-1,59
 1400 570 1400 570 1400 400 c 0,0,1
EndSplineSet
EndChar

StartChar: tm_lla
Encoding: 2995 2995 78
Width: 1500
GlyphClass: 2
Flags: W
LayerCount: 2
Fore
SplineSet
1586 686 m 1,0,-1
 1338 686 l 1,1,-1
 1338 -18 l 1,2,3
 1204 58 1204 58 1204 152 c 2,4,-1
 1204 686 l 1,5,-1
 1074 686 l 2,6,7
 1024 686 1024 686 990 642 c 128,-1,8
 956 598 956 598 956 534 c 2,9,-1
 956 -18 l 1,10,11
 824 60 824 60 824 152 c 2,12,-1
 824 538 l 2,13,14
 824 584 824 584 737 635 c 128,-1,15
 650 686 650 686 566 686 c 0,16,17
 428 686 428 686 330 586 c 128,-1,18
 232 486 232 486 232 342 c 0,19,20
 232 246 232 246 290 180 c 128,-1,21
 348 114 348 114 432 114 c 0,22,23
 474 114 474 114 506 148 c 128,-1,24
 538 182 538 182 538 228 c 0,25,26
 538 260 538 260 522 282 c 128,-1,27
 506 304 506 304 480 304 c 0,28,29
 452 304 452 304 433 287 c 128,-1,30
 414 270 414 270 414 248 c 2,31,-1
 414 140 l 1,32,33
 372 154 372 154 346 188 c 128,-1,34
 320 222 320 222 320 266 c 0,35,36
 320 332 320 332 366 376 c 128,-1,37
 412 420 412 420 480 420 c 0,38,39
 558 420 558 420 614 364 c 128,-1,40
 670 308 670 308 670 228 c 0,41,42
 670 132 670 132 602 66 c 128,-1,43
 534 0 534 0 432 0 c 0,44,45
 294 0 294 0 197 101 c 128,-1,46
 100 202 100 202 100 342 c 0,47,48
 100 532 100 532 236 666 c 128,-1,49
 372 800 372 800 566 800 c 0,50,51
 664 800 664 800 743 770 c 128,-1,52
 822 740 822 740 868 686 c 1,53,54
 950 800 950 800 1070 800 c 2,55,-1
 1414 800 l 2,56,57
 1464 800 1464 800 1510 770 c 128,-1,58
 1556 740 1556 740 1586 686 c 1,0,-1
EndSplineSet
EndChar

StartChar: tm_llla
Encoding: 2996 2996 79
Width: 1330
GlyphClass: 2
Flags: W
LayerCount: 2
Fore
SplineSet
1224 324 m 0,0,1
 1224 192 1224 192 1138 96 c 128,-1,2
 1052 0 1052 0 930 0 c 2,3,-1
 738 0 l 1,4,-1
 738 -58 l 2,5,6
 738 -82 738 -82 760 -98 c 128,-1,7
 782 -114 782 -114 814 -114 c 2,8,-1
 1044 -114 l 1,9,10
 978 -228 978 -228 852 -228 c 0,11,12
 822 -228 822 -228 666 -412 c 0,13,14
 534 -572 534 -572 328 -572 c 0,15,16
 206 -572 206 -572 120 -500 c 128,-1,17
 34 -428 34 -428 34 -324 c 0,18,19
 34 -240 34 -240 86 -182 c 128,-1,20
 138 -124 138 -124 214 -124 c 0,21,22
 256 -124 256 -124 285 -155 c 128,-1,23
 314 -186 314 -186 314 -228 c 1,24,25
 306 -226 306 -226 298 -226 c 128,-1,26
 290 -226 290 -226 286 -226 c 0,27,28
 238 -226 238 -226 202 -254 c 128,-1,29
 166 -282 166 -282 166 -324 c 0,30,31
 166 -380 166 -380 213 -419 c 128,-1,32
 260 -458 260 -458 328 -458 c 0,33,34
 474 -458 474 -458 580 -330 c 0,35,36
 600 -306 600 -306 638 -256 c 128,-1,37
 676 -206 676 -206 694 -198 c 1,38,39
 656 -194 656 -194 630 -154 c 128,-1,40
 604 -114 604 -114 604 -58 c 2,41,-1
 604 0 l 1,42,-1
 336 0 l 2,43,44
 258 0 258 0 203 51 c 128,-1,45
 148 102 148 102 148 172 c 2,46,-1
 148 822 l 1,47,48
 208 778 208 778 244 727 c 128,-1,49
 280 676 280 676 280 628 c 2,50,-1
 280 172 l 2,51,52
 280 148 280 148 297 131 c 128,-1,53
 314 114 314 114 338 114 c 2,54,-1
 604 114 l 1,55,-1
 604 610 l 2,56,57
 604 690 604 690 665 745 c 128,-1,58
 726 800 726 800 814 800 c 0,59,60
 984 800 984 800 1104 660 c 128,-1,61
 1224 520 1224 520 1224 324 c 0,0,1
1090 324 m 0,62,63
 1090 474 1090 474 1010 580 c 128,-1,64
 930 686 930 686 814 686 c 0,65,66
 782 686 782 686 760 664 c 128,-1,67
 738 642 738 642 738 610 c 2,68,-1
 738 114 l 1,69,-1
 928 114 l 2,70,71
 996 114 996 114 1043 175 c 128,-1,72
 1090 236 1090 236 1090 324 c 0,62,63
EndSplineSet
EndChar

StartChar: tm_va
Encoding: 2997 2997 80
Width: 1580
GlyphClass: 2
Flags: W
LayerCount: 2
Fore
SplineSet
1432 190 m 2,0,1
 1432 112 1432 112 1372 56 c 128,-1,2
 1312 0 1312 0 1224 0 c 2,3,-1
 750 0 l 1,4,5
 744 18 744 18 744 34 c 0,6,7
 744 82 744 82 780 118 c 0,8,9
 890 228 890 228 890 400 c 0,10,11
 890 518 890 518 796 602 c 128,-1,12
 702 686 702 686 566 686 c 0,13,14
 428 686 428 686 330 592 c 128,-1,15
 232 498 232 498 232 362 c 0,16,17
 232 260 232 260 297 187 c 128,-1,18
 362 114 362 114 452 114 c 0,19,20
 494 114 494 114 525 147 c 128,-1,21
 556 180 556 180 556 228 c 0,22,23
 556 260 556 260 538 282 c 128,-1,24
 520 304 520 304 490 304 c 0,25,26
 466 304 466 304 449 287 c 128,-1,27
 432 270 432 270 432 248 c 2,28,-1
 432 140 l 1,29,30
 382 148 382 148 350 186 c 128,-1,31
 318 224 318 224 318 276 c 0,32,33
 318 340 318 340 368 384 c 128,-1,34
 418 428 418 428 490 428 c 0,35,36
 574 428 574 428 632 370 c 128,-1,37
 690 312 690 312 690 228 c 0,38,39
 690 132 690 132 622 66 c 128,-1,40
 554 0 554 0 452 0 c 0,41,42
 308 0 308 0 204 106 c 128,-1,43
 100 212 100 212 100 362 c 0,44,45
 100 544 100 544 236 672 c 128,-1,46
 372 800 372 800 566 800 c 0,47,48
 756 800 756 800 889 683 c 128,-1,49
 1022 566 1022 566 1022 400 c 0,50,51
 1022 228 1022 228 926 114 c 1,52,-1
 1222 114 l 2,53,54
 1256 114 1256 114 1278 136 c 128,-1,55
 1300 158 1300 158 1300 190 c 2,56,-1
 1300 806 l 1,57,58
 1360 790 1360 790 1396 752 c 128,-1,59
 1432 714 1432 714 1432 666 c 2,60,-1
 1432 190 l 2,0,1
EndSplineSet
EndChar

StartChar: tm_ssa
Encoding: 2999 2999 81
Width: 1944
GlyphClass: 2
Flags: W
LayerCount: 2
Fore
SplineSet
1870 228 m 0,0,1
 1870 132 1870 132 1784 66 c 128,-1,2
 1698 0 1698 0 1576 0 c 2,3,-1
 1556 0 l 1,4,-1
 1556 -400 l 1,5,6
 1422 -322 1422 -322 1422 -210 c 2,7,-1
 1422 0 l 1,8,-1
 764 0 l 1,9,10
 750 12 750 12 750 36 c 0,11,12
 750 80 750 80 790 126 c 0,13,14
 890 244 890 244 890 400 c 0,15,16
 890 522 890 522 793 609 c 128,-1,17
 696 696 696 696 556 696 c 0,18,19
 424 696 424 696 328 598 c 128,-1,20
 232 500 232 500 232 362 c 0,21,22
 232 260 232 260 291 187 c 128,-1,23
 350 114 350 114 432 114 c 0,24,25
 478 114 478 114 512 148 c 128,-1,26
 546 182 546 182 546 228 c 0,27,28
 546 260 546 260 524 282 c 128,-1,29
 502 304 502 304 470 304 c 0,30,31
 444 304 444 304 424 282 c 128,-1,32
 404 260 404 260 404 228 c 2,33,-1
 404 138 l 1,34,35
 310 184 310 184 310 268 c 0,36,37
 310 332 310 332 356 376 c 128,-1,38
 402 420 402 420 470 420 c 0,39,40
 556 420 556 420 618 364 c 128,-1,41
 680 308 680 308 680 228 c 0,42,43
 680 132 680 132 608 66 c 128,-1,44
 536 0 536 0 432 0 c 0,45,46
 296 0 296 0 198 106 c 128,-1,47
 100 212 100 212 100 362 c 0,48,49
 100 548 100 548 233 679 c 128,-1,50
 366 810 366 810 556 810 c 0,51,52
 750 810 750 810 886 690 c 128,-1,53
 1022 570 1022 570 1022 400 c 0,54,55
 1022 244 1022 244 932 114 c 1,56,-1
 1422 114 l 1,57,-1
 1422 390 l 1,58,-1
 1346 390 l 2,59,60
 1242 390 1242 390 1171 451 c 128,-1,61
 1100 512 1100 512 1100 600 c 0,62,63
 1100 684 1100 684 1168 742 c 128,-1,64
 1236 800 1236 800 1338 800 c 0,65,66
 1428 800 1428 800 1492 744 c 128,-1,67
 1556 688 1556 688 1556 610 c 2,68,-1
 1556 502 l 1,69,70
 1686 502 1686 502 1778 422 c 128,-1,71
 1870 342 1870 342 1870 228 c 0,0,1
1422 504 m 1,72,-1
 1422 610 l 2,73,74
 1422 642 1422 642 1398 664 c 128,-1,75
 1374 686 1374 686 1338 686 c 0,76,77
 1294 686 1294 686 1263 661 c 128,-1,78
 1232 636 1232 636 1232 600 c 0,79,80
 1232 558 1232 558 1263 531 c 128,-1,81
 1294 504 1294 504 1338 504 c 2,82,-1
 1422 504 l 1,72,-1
1738 228 m 0,83,84
 1738 296 1738 296 1685 343 c 128,-1,85
 1632 390 1632 390 1556 390 c 1,86,-1
 1556 114 l 1,87,-1
 1576 114 l 2,88,89
 1642 114 1642 114 1690 148 c 128,-1,90
 1738 182 1738 182 1738 228 c 0,83,84
EndSplineSet
EndChar

StartChar: tm_sa
Encoding: 3000 3000 82
Width: 1956
GlyphClass: 2
Flags: W
LayerCount: 2
Fore
SplineSet
1846 420 m 0,0,1
 1846 240 1846 240 1750 115 c 128,-1,2
 1654 -10 1654 -10 1514 -10 c 0,3,4
 1408 -10 1408 -10 1332 66 c 128,-1,5
 1256 142 1256 142 1256 248 c 2,6,-1
 1256 476 l 2,7,8
 1256 564 1256 564 1209 625 c 128,-1,9
 1162 686 1162 686 1094 686 c 0,10,11
 1034 686 1034 686 993 647 c 128,-1,12
 952 608 952 608 952 552 c 2,13,-1
 952 -18 l 1,14,15
 818 60 818 60 818 172 c 2,16,-1
 818 528 l 1,17,18
 796 604 796 604 724 650 c 128,-1,19
 652 696 652 696 552 696 c 0,20,21
 422 696 422 696 329 599 c 128,-1,22
 236 502 236 502 236 362 c 0,23,24
 236 260 236 260 295 187 c 128,-1,25
 354 114 354 114 436 114 c 0,26,27
 484 114 484 114 518 148 c 128,-1,28
 552 182 552 182 552 228 c 0,29,30
 552 260 552 260 532 282 c 128,-1,31
 512 304 512 304 484 304 c 256,32,33
 456 304 456 304 437 279 c 128,-1,34
 418 254 418 254 418 218 c 2,35,-1
 418 148 l 1,36,37
 334 182 334 182 334 286 c 0,38,39
 334 340 334 340 378 380 c 128,-1,40
 422 420 422 420 484 420 c 0,41,42
 568 420 568 420 626 364 c 128,-1,43
 684 308 684 308 684 228 c 0,44,45
 684 128 684 128 611 59 c 128,-1,46
 538 -10 538 -10 436 -10 c 0,47,48
 298 -10 298 -10 201 99 c 128,-1,49
 104 208 104 208 104 362 c 0,50,51
 104 548 104 548 235 679 c 128,-1,52
 366 810 366 810 552 810 c 0,53,54
 656 810 656 810 739 778 c 128,-1,55
 822 746 822 746 872 686 c 1,56,57
 904 740 904 740 962 770 c 128,-1,58
 1020 800 1020 800 1094 800 c 0,59,60
 1218 800 1218 800 1304 706 c 128,-1,61
 1390 612 1390 612 1390 476 c 2,62,-1
 1390 248 l 2,63,64
 1390 188 1390 188 1426 146 c 128,-1,65
 1462 104 1462 104 1514 104 c 0,66,67
 1598 104 1598 104 1656 196 c 128,-1,68
 1714 288 1714 288 1714 420 c 0,69,70
 1714 548 1714 548 1658 657 c 128,-1,71
 1602 766 1602 766 1504 822 c 1,72,73
 1646 822 1646 822 1746 704 c 128,-1,74
 1846 586 1846 586 1846 420 c 0,0,1
EndSplineSet
EndChar

StartChar: tm_ha
Encoding: 3001 3001 83
Width: 2372
GlyphClass: 2
Flags: W
LayerCount: 2
Fore
SplineSet
2254 342 m 0,0,1
 2254 114 2254 114 2116 -48 c 128,-1,2
 1978 -210 1978 -210 1780 -210 c 2,3,-1
 332 -210 l 2,4,5
 290 -210 290 -210 258 -244 c 128,-1,6
 226 -278 226 -278 226 -326 c 2,7,-1
 226 -472 l 1,8,9
 166 -450 166 -450 129 -399 c 128,-1,10
 92 -348 92 -348 92 -286 c 0,11,12
 92 -206 92 -206 161 -151 c 128,-1,13
 230 -96 230 -96 330 -96 c 2,14,-1
 1778 -96 l 2,15,16
 1920 -96 1920 -96 2020 32 c 128,-1,17
 2120 160 2120 160 2120 342 c 0,18,19
 2120 486 2120 486 2042 586 c 128,-1,20
 1964 686 1964 686 1854 686 c 0,21,22
 1792 686 1792 686 1747 653 c 128,-1,23
 1702 620 1702 620 1702 572 c 2,24,-1
 1702 -18 l 1,25,26
 1568 58 1568 58 1568 152 c 2,27,-1
 1568 572 l 2,28,29
 1568 618 1568 618 1534 652 c 128,-1,30
 1500 686 1500 686 1454 686 c 0,31,32
 1406 686 1406 686 1373 647 c 128,-1,33
 1340 608 1340 608 1340 552 c 2,34,-1
 1340 174 l 2,35,36
 1340 104 1340 104 1284 52 c 128,-1,37
 1228 0 1228 0 1148 0 c 2,38,-1
 776 0 l 1,39,40
 762 12 762 12 762 34 c 0,41,42
 762 68 762 68 790 106 c 0,43,44
 902 264 902 264 902 400 c 0,45,46
 902 524 902 524 802 610 c 128,-1,47
 702 696 702 696 558 696 c 0,48,49
 424 696 424 696 329 595 c 128,-1,50
 234 494 234 494 234 352 c 0,51,52
 234 254 234 254 290 184 c 128,-1,53
 346 114 346 114 426 114 c 0,54,55
 480 114 480 114 519 145 c 128,-1,56
 558 176 558 176 558 220 c 0,57,58
 558 256 558 256 536 280 c 128,-1,59
 514 304 514 304 482 304 c 256,60,61
 450 304 450 304 428 280 c 128,-1,62
 406 256 406 256 406 220 c 2,63,-1
 406 134 l 1,64,65
 322 182 322 182 322 266 c 0,66,67
 322 332 322 332 368 376 c 128,-1,68
 414 420 414 420 482 420 c 0,69,70
 570 420 570 420 631 361 c 128,-1,71
 692 302 692 302 692 220 c 0,72,73
 692 128 692 128 614 64 c 128,-1,74
 536 0 536 0 426 0 c 0,75,76
 292 0 292 0 197 103 c 128,-1,77
 102 206 102 206 102 352 c 0,78,79
 102 542 102 542 234 676 c 128,-1,80
 366 810 366 810 558 810 c 0,81,82
 754 810 754 810 894 690 c 128,-1,83
 1034 570 1034 570 1034 400 c 0,84,85
 1034 244 1034 244 944 114 c 1,86,-1
 1148 114 l 2,87,88
 1172 114 1172 114 1189 131 c 128,-1,89
 1206 148 1206 148 1206 174 c 2,90,-1
 1206 552 l 2,91,92
 1206 654 1206 654 1279 727 c 128,-1,93
 1352 800 1352 800 1454 800 c 0,94,95
 1524 800 1524 800 1575 775 c 128,-1,96
 1626 750 1626 750 1646 706 c 1,97,98
 1710 800 1710 800 1854 800 c 0,99,100
 2018 800 2018 800 2136 666 c 128,-1,101
 2254 532 2254 532 2254 342 c 0,0,1
EndSplineSet
EndChar

StartChar: tm_aakaar
Encoding: 3006 3006 84
Width: 826
GlyphClass: 2
Flags: W
LayerCount: 2
Fore
SplineSet
930 686 m 1,0,-1
 662 686 l 1,1,-1
 662 -18 l 1,2,3
 530 60 530 60 530 172 c 2,4,-1
 530 686 l 1,5,-1
 324 686 l 2,6,7
 306 686 306 686 294 670 c 128,-1,8
 282 654 282 654 282 628 c 2,9,-1
 282 -18 l 1,10,11
 148 60 148 60 148 172 c 2,12,-1
 148 628 l 2,13,14
 148 700 148 700 198 750 c 128,-1,15
 248 800 248 800 320 800 c 2,16,-1
 758 800 l 2,17,18
 808 800 808 800 854 770 c 128,-1,19
 900 740 900 740 930 686 c 1,0,-1
EndSplineSet
EndChar

StartChar: tm_ikaar
Encoding: 3007 3007 85
Width: 530
GlyphClass: 2
Flags: W
LayerCount: 2
Fore
SplineSet
258 20 m 1,0,-1
 100 20 l 1,1,-1
 100 1022 l 2,2,3
 100 1362 100 1362 -106 1362 c 2,4,-1
 -172 1362 l 2,5,6
 -256 1362 -256 1362 -316 1296 c 128,-1,7
 -376 1230 -376 1230 -376 1136 c 2,8,-1
 -376 1088 l 2,9,10
 -376 1016 -376 1016 -332 974 c 1,11,-1
 -492 974 l 1,12,13
 -510 992 -510 992 -522 1024 c 1,14,-1
 -536 1088 l 1,15,-1
 -536 1136 l 2,16,17
 -536 1280 -536 1280 -438 1378 c 128,-1,18
 -340 1476 -340 1476 -172 1476 c 2,19,-1
 -106 1476 l 2,20,21
 62 1476 62 1476 160 1347 c 128,-1,22
 258 1218 258 1218 258 1022 c 2,23,-1
 258 20 l 1,0,-1
EndSplineSet
EndChar

StartChar: tm_iikaar
Encoding: 3008 3008 86
Width: 0
GlyphClass: 4
Flags: W
LayerCount: 2
Fore
SplineSet
-130 1342 m 2,0,1
 -130 1300 -130 1300 -180 1248 c 1,2,3
 -230 1204 -230 1204 -290 1204 c 2,4,-1
 -380 1204 l 2,5,6
 -456 1204 -456 1204 -508 1258 c 0,7,8
 -556 1312 -556 1312 -556 1390 c 2,9,-1
 -554 1434 l 2,10,11
 -554 1448 -554 1448 -540 1478 c 1,12,13
 -588 1478 -588 1478 -644 1428 c 128,-1,14
 -700 1378 -700 1378 -700 1318 c 2,15,-1
 -700 1270 l 2,16,17
 -700 1226 -700 1226 -680 1178 c 128,-1,18
 -660 1130 -660 1130 -630 1090 c 1,19,-1
 -790 1090 l 1,20,-1
 -812 1132 l 1,21,-1
 -832 1178 l 2,22,23
 -856 1242 -856 1242 -856 1270 c 2,24,-1
 -856 1342 l 2,25,26
 -856 1438 -856 1438 -759 1517 c 128,-1,27
 -662 1596 -662 1596 -546 1596 c 2,28,-1
 -414 1596 l 2,29,30
 -318 1596 -318 1596 -224 1541 c 128,-1,31
 -130 1486 -130 1486 -130 1408 c 2,32,-1
 -130 1342 l 2,0,1
-290 1388 m 2,33,-1
 -290 1430 l 2,34,35
 -290 1456 -290 1456 -300 1466 c 2,36,-1
 -324 1488 l 1,37,-1
 -358 1496 l 1,38,39
 -384 1496 -384 1496 -402 1481 c 128,-1,40
 -420 1466 -420 1466 -428 1430 c 1,41,-1
 -428 1388 l 2,42,43
 -428 1358 -428 1358 -410 1340 c 128,-1,44
 -392 1322 -392 1322 -358 1318 c 0,45,46
 -334 1318 -334 1318 -310 1336 c 1,47,48
 -290 1356 -290 1356 -290 1388 c 2,33,-1
EndSplineSet
EndChar

StartChar: tm_ukaar
Encoding: 3009 3009 87
Width: 1090
GlyphClass: 4
Flags: W
LayerCount: 2
Fore
SplineSet
628 572 m 0,0,1
 628 476 628 476 561 409 c 128,-1,2
 494 342 494 342 400 342 c 0,3,4
 304 342 304 342 237 393 c 128,-1,5
 170 444 170 444 170 514 c 0,6,7
 170 574 170 574 226 614 c 128,-1,8
 282 654 282 654 364 654 c 1,9,10
 294 620 294 620 294 552 c 0,11,12
 294 512 294 512 325 485 c 128,-1,13
 356 458 356 458 400 458 c 0,14,15
 438 458 438 458 466 492 c 128,-1,16
 494 526 494 526 494 572 c 256,17,18
 494 618 494 618 452 652 c 128,-1,19
 410 686 410 686 350 686 c 2,20,-1
 -232 686 l 2,21,22
 -270 686 -270 686 -307 715 c 128,-1,23
 -344 744 -344 744 -376 800 c 1,24,-1
 352 800 l 2,25,26
 466 800 466 800 547 733 c 128,-1,27
 628 666 628 666 628 572 c 0,0,1
EndSplineSet
EndChar

StartChar: tm_uukaar
Encoding: 3010 3010 88
Width: 1506
GlyphClass: 4
Flags: W
LayerCount: 2
Fore
SplineSet
1048 686 m 0,0,1
 1048 402 1048 402 855 201 c 128,-1,2
 662 0 662 0 390 0 c 0,3,4
 212 0 212 0 87 52 c 128,-1,5
 -38 104 -38 104 -38 180 c 0,6,7
 -38 254 -38 254 -2 290 c 1,8,9
 34 210 34 210 140 162 c 128,-1,10
 246 114 246 114 390 114 c 0,11,12
 608 114 608 114 761 281 c 128,-1,13
 914 448 914 448 914 686 c 0,14,15
 914 842 914 842 786 954 c 128,-1,16
 658 1066 658 1066 476 1066 c 0,17,18
 334 1066 334 1066 232 988 c 128,-1,19
 130 910 130 910 130 800 c 1,20,-1
 734 800 l 1,21,22
 738 786 738 786 738 771 c 128,-1,23
 738 756 738 756 738 742 c 0,24,25
 738 596 738 596 635 493 c 128,-1,26
 532 390 532 390 380 390 c 0,27,28
 224 390 224 390 110 476 c 128,-1,29
 -4 562 -4 562 -4 686 c 1,30,-1
 -210 686 l 2,31,32
 -300 686 -300 686 -380 800 c 1,33,-1
 -6 800 l 1,34,35
 -6 958 -6 958 135 1069 c 128,-1,36
 276 1180 276 1180 476 1180 c 0,37,38
 712 1180 712 1180 880 1036 c 128,-1,39
 1048 892 1048 892 1048 686 c 0,0,1
606 686 m 1,40,-1
 126 686 l 1,41,42
 134 608 134 608 206 556 c 128,-1,43
 278 504 278 504 380 504 c 0,44,45
 474 504 474 504 540 558 c 128,-1,46
 606 612 606 612 606 686 c 1,40,-1
EndSplineSet
EndChar

StartChar: tm_ekaar
Encoding: 3014 3014 89
Width: 1456
GlyphClass: 2
Flags: W
LayerCount: 2
Fore
SplineSet
1292 -18 m 1,0,1
 1160 60 1160 60 1160 172 c 2,2,-1
 1160 858 l 2,3,4
 1160 1040 1160 1040 1039 1149 c 128,-1,5
 918 1258 918 1258 722 1258 c 0,6,7
 506 1258 506 1258 352 1084 c 128,-1,8
 198 910 198 910 198 666 c 0,9,10
 198 440 198 440 312 282 c 128,-1,11
 426 124 426 124 588 124 c 0,12,13
 660 124 660 124 710 170 c 128,-1,14
 760 216 760 216 760 286 c 0,15,16
 760 330 760 330 726 360 c 128,-1,17
 692 390 692 390 644 390 c 0,18,19
 592 390 592 390 556 358 c 128,-1,20
 520 326 520 326 520 282 c 0,21,22
 520 272 520 272 522 266 c 2,23,-1
 522 162 l 1,24,25
 416 224 416 224 416 324 c 0,26,27
 416 400 416 400 482 452 c 128,-1,28
 548 504 548 504 644 504 c 0,29,30
 744 504 744 504 818 440 c 128,-1,31
 892 376 892 376 892 286 c 0,32,33
 892 172 892 172 803 91 c 128,-1,34
 714 10 714 10 588 10 c 0,35,36
 374 10 374 10 224 202 c 128,-1,37
 74 394 74 394 74 666 c 0,38,39
 74 958 74 958 263 1165 c 128,-1,40
 452 1372 452 1372 722 1372 c 0,41,42
 980 1372 980 1372 1136 1232 c 128,-1,43
 1292 1092 1292 1092 1292 858 c 2,44,-1
 1292 -18 l 1,0,1
EndSplineSet
EndChar

StartChar: tm_eekaar
Encoding: 3015 3015 90
Width: 1180
GlyphClass: 2
Flags: W
LayerCount: 2
Fore
SplineSet
1108 276 m 0,0,1
 1108 218 1108 218 1078 164 c 128,-1,2
 1048 110 1048 110 994 76 c 0,3,4
 878 0 878 0 688 0 c 0,5,6
 430 0 430 0 250 200 c 128,-1,7
 70 400 70 400 70 686 c 0,8,9
 70 970 70 970 251 1171 c 128,-1,10
 432 1372 432 1372 688 1372 c 0,11,12
 880 1372 880 1372 994 1304 c 0,13,14
 1048 1274 1048 1274 1078 1226 c 128,-1,15
 1108 1178 1108 1178 1108 1124 c 0,16,17
 1108 1024 1108 1024 1030 954 c 128,-1,18
 952 884 952 884 840 884 c 0,19,20
 746 884 746 884 678 936 c 128,-1,21
 610 988 610 988 610 1064 c 0,22,23
 610 1130 610 1130 656 1174 c 128,-1,24
 702 1218 702 1218 772 1218 c 0,25,26
 852 1218 852 1218 926 1132 c 1,27,-1
 812 1132 l 2,28,29
 784 1132 784 1132 764 1112 c 128,-1,30
 744 1092 744 1092 744 1064 c 0,31,32
 744 1038 744 1038 772 1018 c 128,-1,33
 800 998 800 998 840 998 c 0,34,35
 896 998 896 998 935 1035 c 128,-1,36
 974 1072 974 1072 974 1124 c 0,37,38
 974 1186 974 1186 896 1222 c 128,-1,39
 818 1258 818 1258 688 1258 c 0,40,41
 486 1258 486 1258 345 1091 c 128,-1,42
 204 924 204 924 204 686 c 256,43,44
 204 448 204 448 345 281 c 128,-1,45
 486 114 486 114 688 114 c 0,46,47
 818 114 818 114 896 157 c 128,-1,48
 974 200 974 200 974 276 c 0,49,50
 974 324 974 324 940 358 c 128,-1,51
 906 392 906 392 858 392 c 0,52,53
 818 392 818 392 791 373 c 128,-1,54
 764 354 764 354 764 326 c 0,55,56
 764 294 764 294 780 272 c 128,-1,57
 796 250 796 250 820 250 c 2,58,-1
 924 250 l 1,59,60
 850 164 850 164 782 164 c 0,61,62
 718 164 718 164 674 210 c 128,-1,63
 630 256 630 256 630 326 c 0,64,65
 630 402 630 402 696 454 c 128,-1,66
 762 506 762 506 858 506 c 0,67,68
 962 506 962 506 1035 439 c 128,-1,69
 1108 372 1108 372 1108 276 c 0,0,1
EndSplineSet
EndChar

StartChar: tm_aikaar
Encoding: 3016 3016 91
Width: 1776
GlyphClass: 2
Flags: W
LayerCount: 2
Fore
SplineSet
1678 362 m 0,0,1
 1678 206 1678 206 1558 94 c 128,-1,2
 1438 -18 1438 -18 1268 -18 c 1,3,4
 1398 56 1398 56 1472 158 c 128,-1,5
 1546 260 1546 260 1546 362 c 0,6,7
 1546 496 1546 496 1451 591 c 128,-1,8
 1356 686 1356 686 1222 686 c 0,9,10
 1120 686 1120 686 1058 634 c 1,11,12
 1184 508 1184 508 1184 324 c 0,13,14
 1184 190 1184 190 1115 95 c 128,-1,15
 1046 0 1046 0 946 0 c 0,16,17
 854 0 854 0 790 78 c 128,-1,18
 726 156 726 156 726 266 c 0,19,20
 726 374 726 374 778 452 c 128,-1,21
 830 530 830 530 918 554 c 1,22,23
 860 486 860 486 860 268 c 0,24,25
 860 202 860 202 884 158 c 128,-1,26
 908 114 908 114 946 114 c 0,27,28
 990 114 990 114 1020 174 c 128,-1,29
 1050 234 1050 234 1050 324 c 0,30,31
 1050 484 1050 484 933 585 c 128,-1,32
 816 686 816 686 640 686 c 0,33,34
 470 686 470 686 350 592 c 128,-1,35
 230 498 230 498 230 362 c 0,36,37
 230 260 230 260 287 187 c 128,-1,38
 344 114 344 114 422 114 c 0,39,40
 468 114 468 114 502 148 c 128,-1,41
 536 182 536 182 536 228 c 0,42,43
 536 260 536 260 514 282 c 128,-1,44
 492 304 492 304 460 304 c 0,45,46
 436 304 436 304 419 279 c 128,-1,47
 402 254 402 254 402 220 c 2,48,-1
 402 136 l 1,49,50
 308 182 308 182 308 296 c 0,51,52
 308 348 308 348 352 384 c 128,-1,53
 396 420 396 420 460 420 c 0,54,55
 544 420 544 420 606 364 c 128,-1,56
 668 308 668 308 668 228 c 0,57,58
 668 134 668 134 597 67 c 128,-1,59
 526 0 526 0 422 0 c 0,60,61
 290 0 290 0 194 106 c 128,-1,62
 98 212 98 212 98 362 c 0,63,64
 98 544 98 544 256 672 c 128,-1,65
 414 800 414 800 640 800 c 0,66,67
 800 800 800 800 944 716 c 1,68,69
 1068 800 1068 800 1222 800 c 0,70,71
 1410 800 1410 800 1544 672 c 128,-1,72
 1678 544 1678 544 1678 362 c 0,0,1
EndSplineSet
EndChar

StartChar: tm_halant
Encoding: 3021 3021 95
Width: 0
GlyphClass: 4
Flags: W
LayerCount: 2
Fore
SplineSet
-496 1388 m 0,0,1
 -496 1326 -496 1326 -536 1285 c 128,-1,2
 -576 1244 -576 1244 -646 1244 c 0,3,4
 -712 1244 -712 1244 -750 1284 c 0,5,6
 -784 1324 -784 1324 -784 1394 c 0,7,8
 -784 1460 -784 1460 -742 1496 c 128,-1,9
 -700 1532 -700 1532 -640 1532 c 0,10,11
 -574 1532 -574 1532 -532 1484 c 0,12,13
 -496 1442 -496 1442 -496 1388 c 0,0,1
EndSplineSet
EndChar

StartChar: tm_two
Encoding: 3048 3048 98
Width: 1425
GlyphClass: 2
Flags: W
LayerCount: 2
Fore
SplineSet
1244 70 m 1,0,-1
 1226 0 l 1,1,-1
 586 0 l 2,2,3
 429 0 429 0 429 106 c 0,4,5
 429 153 429 153 478 181.5 c 128,-1,6
 527 210 527 210 586 210 c 2,7,-1
 779 210 l 2,8,9
 867 210 867 210 928 271.5 c 128,-1,10
 989 333 989 333 989 420 c 0,11,12
 989 500 989 500 945 560.5 c 128,-1,13
 901 621 901 621 831 621 c 0,14,15
 793 621 793 621 744 595 c 1,16,17
 814 555 814 555 814 437 c 0,18,19
 814 382 814 382 772.5 344.5 c 128,-1,20
 731 307 731 307 675 307 c 0,21,22
 618 307 618 307 580 351 c 128,-1,23
 542 395 542 395 542 455 c 0,24,25
 542 565 542 565 646.5 632.5 c 128,-1,26
 751 700 751 700 884 700 c 0,27,28
 987 700 987 700 1058 629 c 128,-1,29
 1129 558 1129 558 1129 455 c 0,30,31
 1129 321 1129 321 1025.5 230.5 c 128,-1,32
 922 140 922 140 779 140 c 2,33,-1
 595 140 l 2,34,35
 551 140 551 140 551 106 c 0,36,37
 551 70 551 70 604 70 c 2,38,-1
 1244 70 l 1,0,-1
675 560 m 1,39,40
 621 516 621 516 621 473 c 0,41,42
 621 386 621 386 666 386 c 0,43,44
 709 386 709 386 709 473 c 0,45,46
 709 518 709 518 675 560 c 1,39,40
EndSplineSet
EndChar

StartChar: tm_three
Encoding: 3049 3049 99
Width: 1424
GlyphClass: 2
Flags: W
LayerCount: 2
Fore
SplineSet
1270 70 m 1,0,-1
 1252 0 l 1,1,-1
 640 0 l 1,2,-1
 657 70 l 1,3,-1
 780 70 l 2,4,5
 874 70 874 70 941 130.5 c 128,-1,6
 1008 191 1008 191 1008 280 c 0,7,8
 1008 317 1008 317 982.5 342.5 c 128,-1,9
 957 368 957 368 920 368 c 0,10,11
 890 368 890 368 865 341 c 128,-1,12
 840 314 840 314 833 280 c 2,13,-1
 815 193 l 1,14,-1
 675 193 l 1,15,-1
 764 630 l 1,16,-1
 571 630 l 1,17,-1
 444 0 l 1,18,-1
 378 0 l 1,19,-1
 517 700 l 1,20,-1
 1095 700 l 1,21,-1
 1077 630 l 1,22,-1
 902 630 l 1,23,-1
 859 403 l 1,24,25
 918 455 918 455 990 455 c 0,26,27
 1057 455 1057 455 1102.5 403.5 c 128,-1,28
 1148 352 1148 352 1148 280 c 0,29,30
 1148 209 1148 209 1090 151 c 128,-1,31
 1032 93 1032 93 947 70 c 1,32,-1
 1270 70 l 1,0,-1
EndSplineSet
EndChar

StartChar: tm_four
Encoding: 3050 3050 100
Width: 1427
GlyphClass: 2
Flags: W
LayerCount: 2
Fore
SplineSet
915 316 m 1,0,-1
 644 316 l 2,1,2
 601 316 601 316 570.5 291 c 128,-1,3
 540 266 540 266 540 228 c 0,4,5
 540 158 540 158 609.5 114 c 128,-1,6
 679 70 679 70 766 70 c 0,7,8
 811 70 811 70 844 99.5 c 128,-1,9
 877 129 877 129 887 175 c 2,10,-1
 915 316 l 1,0,-1
979 630 m 1,11,-1
 784 630 l 1,12,-1
 735 386 l 1,13,-1
 930 386 l 1,14,-1
 979 630 l 1,11,-1
1042 245 m 2,15,16
 1017 125 1017 125 940 62.5 c 128,-1,17
 863 0 863 0 766 0 c 0,18,19
 651 0 651 0 559.5 64 c 128,-1,20
 468 128 468 128 468 228 c 0,21,22
 468 294 468 294 520.5 340 c 128,-1,23
 573 386 573 386 644 386 c 2,24,-1
 669 386 l 1,25,-1
 731 700 l 1,26,-1
 1344 700 l 1,27,-1
 1329 630 l 1,28,-1
 1118 630 l 1,29,-1
 1068 386 l 1,30,-1
 1232 386 l 1,31,-1
 1248 464 l 1,32,-1
 1309 464 l 1,33,-1
 1279 316 l 1,34,-1
 1055 316 l 1,35,-1
 1042 245 l 2,15,16
EndSplineSet
EndChar

StartChar: tm_five
Encoding: 3051 3051 101
Width: 1424
GlyphClass: 2
Flags: W
LayerCount: 2
Fore
SplineSet
1412 517 m 1,0,-1
 1359 526 l 1,1,2
 1369 563 1369 563 1369 598 c 0,3,4
 1369 723 1369 723 1253.5 825.5 c 128,-1,5
 1138 928 1138 928 965 928 c 0,6,7
 728 928 728 928 575.5 716 c 128,-1,8
 423 504 423 504 423 228 c 0,9,10
 423 -43 423 -43 515 -179.5 c 128,-1,11
 607 -316 607 -316 790 -316 c 0,12,13
 979 -316 979 -316 1103.5 -163.5 c 128,-1,14
 1228 -11 1228 -11 1228 193 c 0,15,16
 1228 257 1228 257 1200 304.5 c 128,-1,17
 1172 352 1172 352 1126 352 c 0,18,19
 1099 352 1099 352 1072.5 336.5 c 128,-1,20
 1046 321 1046 321 1039 298 c 2,21,-1
 980 0 l 1,22,-1
 840 0 l 1,23,-1
 965 630 l 1,24,-1
 759 630 l 1,25,-1
 634 0 l 1,26,-1
 566 0 l 1,27,-1
 706 700 l 1,28,-1
 1237 700 l 1,29,-1
 1219 630 l 1,30,-1
 1105 630 l 1,31,-1
 1057 386 l 1,32,33
 1101 437 1101 437 1171 437 c 0,34,35
 1261 437 1261 437 1314.5 368.5 c 128,-1,36
 1368 300 1368 300 1368 193 c 0,37,38
 1368 -47 1368 -47 1202.5 -216 c 128,-1,39
 1037 -385 1037 -385 799 -385 c 0,40,41
 589 -385 589 -385 471.5 -223 c 128,-1,42
 354 -61 354 -61 354 193 c 0,43,44
 354 513 354 513 519 764 c 128,-1,45
 684 1015 684 1015 948 1015 c 0,46,47
 1152 1015 1152 1015 1288.5 889.5 c 128,-1,48
 1425 764 1425 764 1425 613 c 0,49,50
 1425 566 1425 566 1412 517 c 1,0,-1
EndSplineSet
EndChar

StartChar: tm_six
Encoding: 3052 3052 102
Width: 1424
GlyphClass: 2
Flags: W
LayerCount: 2
Fore
SplineSet
784 316 m 1,0,-1
 513 316 l 2,1,2
 469 316 469 316 438 291 c 128,-1,3
 407 266 407 266 407 228 c 0,4,5
 407 158 407 158 477 114 c 128,-1,6
 547 70 547 70 635 70 c 0,7,8
 680 70 680 70 713 99.5 c 128,-1,9
 746 129 746 129 756 175 c 2,10,-1
 784 316 l 1,0,-1
846 630 m 1,11,-1
 653 630 l 1,12,-1
 603 386 l 1,13,-1
 798 386 l 1,14,-1
 846 630 l 1,11,-1
910 245 m 2,15,16
 884 125 884 125 808 62.5 c 128,-1,17
 732 0 732 0 635 0 c 0,18,19
 518 0 518 0 428 64 c 128,-1,20
 338 128 338 128 338 228 c 0,21,22
 338 294 338 294 389.5 340 c 128,-1,23
 441 386 441 386 513 386 c 2,24,-1
 537 386 l 1,25,-1
 600 700 l 1,26,-1
 1229 700 l 1,27,-1
 1213 630 l 1,28,-1
 988 630 l 1,29,-1
 938 386 l 1,30,-1
 1422 386 l 1,31,-1
 1410 316 l 1,32,-1
 1353 316 l 1,33,-1
 1291 0 l 1,34,-1
 1151 0 l 1,35,-1
 1213 316 l 1,36,-1
 1116 316 l 1,37,-1
 1055 0 l 1,38,-1
 967 0 l 1,39,-1
 1028 316 l 1,40,-1
 924 316 l 1,41,-1
 910 245 l 2,15,16
EndSplineSet
EndChar

StartChar: tm_seven
Encoding: 3053 3053 103
Width: 1425
GlyphClass: 2
Flags: W
LayerCount: 2
Fore
SplineSet
643 88 m 1,0,1
 706 88 706 88 753 128 c 128,-1,2
 800 168 800 168 800 228 c 0,3,4
 800 269 800 269 781 301 c 128,-1,5
 762 333 762 333 729 333 c 0,6,7
 684 333 684 333 654.5 296.5 c 128,-1,8
 625 260 625 260 625 210 c 0,9,10
 625 135 625 135 643 88 c 1,0,1
1042 0 m 1,11,-1
 1167 630 l 1,12,-1
 852 630 l 2,13,14
 704 630 704 630 594.5 540.5 c 128,-1,15
 485 451 485 451 485 316 c 0,16,17
 485 247 485 247 507 194.5 c 128,-1,18
 529 142 529 142 572 106 c 1,19,20
 555 135 555 135 555 228 c 256,21,22
 555 321 555 321 614.5 388 c 128,-1,23
 674 455 674 455 765 455 c 0,24,25
 837 455 837 455 884 398 c 128,-1,26
 931 341 931 341 931 263 c 0,27,28
 931 155 931 155 863 77.5 c 128,-1,29
 795 0 795 0 695 0 c 0,30,31
 576 0 576 0 495.5 94 c 128,-1,32
 415 188 415 188 415 316 c 0,33,34
 415 481 415 481 545.5 590.5 c 128,-1,35
 676 700 676 700 852 700 c 2,36,-1
 1430 700 l 1,37,-1
 1412 630 l 1,38,-1
 1307 630 l 1,39,-1
 1181 0 l 1,40,-1
 1042 0 l 1,11,-1
EndSplineSet
EndChar

StartChar: tm_eight
Encoding: 3054 3054 104
Width: 1427
GlyphClass: 2
Flags: W
LayerCount: 2
Fore
SplineSet
849 629 m 1,0,1
 745 611 745 611 670 548.5 c 128,-1,2
 595 486 595 486 595 402 c 0,3,4
 595 338 595 338 638.5 291 c 128,-1,5
 682 244 682 244 744 244 c 0,6,7
 817 244 817 244 864 307.5 c 128,-1,8
 911 371 911 371 911 454 c 0,9,10
 911 580 911 580 849 629 c 1,0,1
1024 140 m 1,11,-1
 411 140 l 2,12,13
 381 140 381 140 357 125 c 128,-1,14
 333 110 333 110 333 87 c 0,15,16
 333 43 333 43 412 -13.5 c 128,-1,17
 491 -70 491 -70 639 -70 c 0,18,19
 743 -70 743 -70 839.5 -18 c 128,-1,20
 936 34 936 34 1024 140 c 1,11,-1
1414 -245 m 1,21,-1
 1269 -245 l 1,22,-1
 1348 140 l 1,23,-1
 1164 140 l 1,24,25
 1051 4 1051 4 915 -63.5 c 128,-1,26
 779 -131 779 -131 621 -131 c 0,27,28
 421 -131 421 -131 311.5 -52.5 c 128,-1,29
 202 26 202 26 202 123 c 0,30,31
 202 160 202 160 233 184.5 c 128,-1,32
 264 209 264 209 307 209 c 2,33,-1
 666 209 l 1,34,35
 604 231 604 231 565 284.5 c 128,-1,36
 526 338 526 338 526 402 c 0,37,38
 526 534 526 534 652 617 c 128,-1,39
 778 700 778 700 937 700 c 0,40,41
 1069 700 1069 700 1169 620.5 c 128,-1,42
 1269 541 1269 541 1269 420 c 0,43,44
 1269 306 1269 306 1213 209 c 1,45,-1
 1364 209 l 1,46,-1
 1463 700 l 1,47,-1
 1603 700 l 1,48,-1
 1414 -245 l 1,21,-1
989 620 m 1,49,50
 1042 530 1042 530 1042 411 c 0,51,52
 1042 267 1042 267 919 209 c 1,53,-1
 1077 209 l 1,54,55
 1146 308 1146 308 1146 402 c 0,56,57
 1146 486 1146 486 1103 553 c 128,-1,58
 1060 620 1060 620 989 620 c 1,49,50
EndSplineSet
EndChar

StartChar: tm_nine
Encoding: 3055 3055 105
Width: 1427
GlyphClass: 2
Flags: W
LayerCount: 2
Fore
SplineSet
692 316 m 1,0,-1
 422 316 l 2,1,2
 379 316 379 316 348 291 c 128,-1,3
 317 266 317 266 317 228 c 0,4,5
 317 158 317 158 387 114 c 128,-1,6
 457 70 457 70 544 70 c 0,7,8
 589 70 589 70 622 99.5 c 128,-1,9
 655 129 655 129 665 175 c 2,10,-1
 692 316 l 1,0,-1
756 630 m 1,11,-1
 562 630 l 1,12,-1
 513 386 l 1,13,-1
 707 386 l 1,14,-1
 756 630 l 1,11,-1
1157 175 m 0,15,16
 1157 259 1157 259 1052 298 c 1,17,18
 982 240 982 240 982 158 c 0,19,20
 982 121 982 121 1007.5 95.5 c 128,-1,21
 1033 70 1033 70 1068 70 c 0,22,23
 1107 70 1107 70 1132 101.5 c 128,-1,24
 1157 133 1157 133 1157 175 c 0,15,16
1297 0 m 1,25,26
 1375 93 1375 93 1375 193 c 0,27,28
 1375 263 1375 263 1332.5 315.5 c 128,-1,29
 1290 368 1290 368 1226 368 c 0,30,31
 1163 368 1163 368 1113 342 c 1,32,33
 1167 322 1167 322 1201 276.5 c 128,-1,34
 1235 231 1235 231 1235 175 c 0,35,36
 1235 104 1235 104 1187 52 c 128,-1,37
 1139 0 1139 0 1068 0 c 0,38,39
 1005 0 1005 0 958.5 46.5 c 128,-1,40
 912 93 912 93 912 158 c 0,41,42
 912 257 912 257 982 316 c 1,43,-1
 833 316 l 1,44,-1
 819 245 l 2,45,46
 795 125 795 125 718.5 62.5 c 128,-1,47
 642 0 642 0 544 0 c 0,48,49
 428 0 428 0 337 64 c 128,-1,50
 246 128 246 128 246 228 c 0,51,52
 246 294 246 294 299 340 c 128,-1,53
 352 386 352 386 422 386 c 2,54,-1
 446 386 l 1,55,-1
 508 700 l 1,56,-1
 1122 700 l 1,57,-1
 1104 630 l 1,58,-1
 896 630 l 1,59,-1
 847 386 l 1,60,-1
 947 386 l 2,61,62
 1014 386 1014 386 1052 368 c 1,63,64
 1111 420 1111 420 1226 420 c 0,65,66
 1327 420 1327 420 1399.5 354.5 c 128,-1,67
 1472 289 1472 289 1472 193 c 0,68,69
 1472 109 1472 109 1410 0 c 1,70,-1
 1297 0 l 1,25,26
EndSplineSet
EndChar

StartChar: tm_ten
Encoding: 3056 3056 106
Width: 1260
GlyphClass: 2
Flags: W
LayerCount: 2
Fore
SplineSet
597 149 m 1,0,1
 558 74 558 74 508 37 c 128,-1,2
 458 0 458 0 395 0 c 0,3,4
 302 0 302 0 242 64 c 128,-1,5
 182 128 182 128 182 200 c 0,6,7
 182 224 182 224 186 244 c 2,8,-1
 279 700 l 1,9,-1
 419 700 l 1,10,-1
 325 244 l 2,11,12
 320 223 320 223 320 205 c 0,13,14
 320 155 320 155 346.5 112.5 c 128,-1,15
 373 70 373 70 413 70 c 0,16,17
 472 70 472 70 525 146 c 128,-1,18
 578 222 578 222 606 359 c 2,19,-1
 675 700 l 1,20,-1
 815 700 l 1,21,-1
 746 351 l 2,22,23
 728 262 728 262 728 204 c 0,24,25
 728 150 728 150 760.5 110 c 128,-1,26
 793 70 793 70 841 70 c 0,27,28
 957 70 957 70 1026 204 c 128,-1,29
 1095 338 1095 338 1095 500 c 0,30,31
 1095 691 1095 691 995.5 840 c 128,-1,32
 896 989 896 989 737 989 c 1,33,-1
 755 1042 l 1,34,35
 960 1042 960 1042 1097.5 880.5 c 128,-1,36
 1235 719 1235 719 1235 500 c 0,37,38
 1235 300 1235 300 1118.5 150 c 128,-1,39
 1002 0 1002 0 824 0 c 0,40,41
 739 0 739 0 673.5 40.5 c 128,-1,42
 608 81 608 81 597 149 c 1,0,1
EndSplineSet
EndChar

StartChar: tm_hundred
Encoding: 3057 3057 107
Width: 1166
GlyphClass: 2
Flags: W
LayerCount: 2
Fore
SplineSet
1284 700 m 1,0,-1
 1267 629 l 1,1,-1
 1117 629 l 1,2,-1
 991 0 l 1,3,-1
 851 0 l 1,4,-1
 977 629 l 1,5,-1
 770 629 l 1,6,-1
 644 0 l 1,7,-1
 504 0 l 1,8,-1
 599 472 l 2,9,10
 606 507 606 507 606 534 c 0,11,12
 606 579 606 579 589 613 c 128,-1,13
 572 647 572 647 540 647 c 0,14,15
 483 647 483 647 440 595.5 c 128,-1,16
 397 544 397 544 382 472 c 2,17,-1
 285 0 l 1,18,-1
 146 0 l 1,19,-1
 242 472 l 2,20,21
 263 577 263 577 336.5 647 c 128,-1,22
 410 717 410 717 503 717 c 0,23,24
 567 717 567 717 614 679.5 c 128,-1,25
 661 642 661 642 661 585 c 1,26,-1
 685 700 l 1,27,-1
 1284 700 l 1,0,-1
EndSplineSet
EndChar

StartChar: tm_thousand
Encoding: 3058 3058 108
Width: 1256
GlyphClass: 2
Flags: W
LayerCount: 2
Fore
SplineSet
551 316 m 1,0,-1
 280 316 l 2,1,2
 237 316 237 316 206 291 c 128,-1,3
 175 266 175 266 175 228 c 0,4,5
 175 158 175 158 245.5 114 c 128,-1,6
 316 70 316 70 402 70 c 0,7,8
 447 70 447 70 480 99.5 c 128,-1,9
 513 129 513 129 523 175 c 2,10,-1
 551 316 l 1,0,-1
615 630 m 1,11,-1
 420 630 l 1,12,-1
 371 386 l 1,13,-1
 565 386 l 1,14,-1
 615 630 l 1,11,-1
677 245 m 2,15,16
 653 125 653 125 576 62.5 c 128,-1,17
 499 0 499 0 402 0 c 0,18,19
 285 0 285 0 195 64 c 128,-1,20
 105 128 105 128 105 228 c 0,21,22
 105 294 105 294 156.5 340 c 128,-1,23
 208 386 208 386 280 386 c 2,24,-1
 304 386 l 1,25,-1
 367 700 l 1,26,-1
 997 700 l 1,27,-1
 983 630 l 1,28,-1
 755 630 l 1,29,-1
 705 386 l 1,30,-1
 1120 386 l 1,31,-1
 1105 316 l 1,32,-1
 971 316 l 1,33,-1
 945 175 l 1,34,35
 990 228 990 228 1067 228 c 0,36,37
 1134 228 1134 228 1179.5 176 c 128,-1,38
 1225 124 1225 124 1225 53 c 0,39,40
 1225 -78 1225 -78 1108 -161 c 128,-1,41
 991 -244 991 -244 840 -244 c 0,42,43
 740 -244 740 -244 542 -205 c 0,44,45
 346 -167 346 -167 244 -167 c 0,46,47
 181 -167 181 -167 134 -206.5 c 128,-1,48
 87 -246 87 -246 87 -307 c 0,49,50
 87 -384 87 -384 158 -411 c 1,51,-1
 149 -445 l 1,52,53
 82 -433 82 -433 36.5 -387 c 128,-1,54
 -9 -341 -9 -341 -9 -280 c 0,55,56
 -9 -205 -9 -205 70.5 -159.5 c 128,-1,57
 150 -114 150 -114 244 -114 c 0,58,59
 346 -114 346 -114 542 -153 c 0,60,61
 740 -192 740 -192 840 -192 c 0,62,63
 938 -192 938 -192 1011.5 -135 c 128,-1,64
 1085 -78 1085 -78 1085 9 c 0,65,66
 1085 61 1085 61 1061 100.5 c 128,-1,67
 1037 140 1037 140 997 140 c 256,68,69
 957 140 957 140 927 88 c 1,70,-1
 910 0 l 1,71,-1
 769 0 l 1,72,-1
 831 316 l 1,73,-1
 691 316 l 1,74,-1
 677 245 l 2,15,16
EndSplineSet
EndChar

StartChar: zerowidthnonjoiner
Encoding: 8204 8204 109
Width: 0
GlyphClass: 2
Flags: W
LayerCount: 2
Fore
SplineSet
315 1225 m 1,0,-1
 -34 -516 l 1,1,-1
 -103 -516 l 1,2,-1
 244 1225 l 1,3,-1
 315 1225 l 1,0,-1
EndSplineSet
EndChar

StartChar: zerowidthjoiner
Encoding: 8205 8205 110
Width: 0
GlyphClass: 2
Flags: W
LayerCount: 2
Fore
SplineSet
415 997 m 1,0,-1
 363 953 l 1,1,-1
 270 1073 l 1,2,-1
 -24 -441 l 1,3,-1
 -87 -441 l 1,4,-1
 206 1073 l 1,5,-1
 65 953 l 1,6,-1
 32 997 l 1,7,-1
 210 1145 l 1,8,-1
 89 1292 l 1,9,-1
 140 1334 l 1,10,-1
 260 1185 l 1,11,-1
 437 1334 l 1,12,-1
 472 1292 l 1,13,-1
 294 1145 l 1,14,-1
 415 997 l 1,0,-1
EndSplineSet
EndChar

StartChar: u2013
Encoding: 8211 8211 111
Width: 722
GlyphClass: 2
Flags: W
LayerCount: 2
Fore
SplineSet
733 319 m 1,0,-1
 -12 319 l 1,1,-1
 -12 370 l 1,2,-1
 733 370 l 1,3,-1
 733 319 l 1,0,-1
EndSplineSet
EndChar

StartChar: u2014
Encoding: 8212 8212 112
Width: 1284
GlyphClass: 2
Flags: W
LayerCount: 2
Fore
SplineSet
1296 318 m 1,0,-1
 -13 319 l 1,1,-1
 -13 371 l 1,2,-1
 1296 370 l 1,3,-1
 1296 318 l 1,0,-1
EndSplineSet
EndChar

StartChar: u2018
Encoding: 65539 -1 113
Width: 444
GlyphClass: 2
Flags: W
LayerCount: 2
Fore
SplineSet
330 1388 m 1,0,1
 278 1370 278 1370 250 1319 c 128,-1,2
 222 1268 222 1268 222 1192 c 1,3,-1
 314 1192 l 1,4,-1
 314 988 l 1,5,-1
 126 988 l 1,6,-1
 126 1148 l 2,7,8
 126 1218 126 1218 132 1260 c 128,-1,9
 138 1302 138 1302 156 1338 c 0,10,11
 198 1408 198 1408 286 1456 c 1,12,-1
 330 1388 l 1,0,1
EndSplineSet
EndChar

StartChar: u2019
Encoding: 65540 -1 114
Width: 444
GlyphClass: 2
Flags: W
LayerCount: 2
Fore
SplineSet
310 1286 m 2,0,1
 310 1162 310 1162 280 1096 c 1,2,3
 242 1024 242 1024 148 978 c 1,4,-1
 106 1046 l 1,5,6
 152 1064 152 1064 182 1113 c 128,-1,7
 212 1162 212 1162 212 1242 c 1,8,-1
 122 1242 l 1,9,-1
 122 1446 l 1,10,-1
 310 1446 l 1,11,-1
 310 1286 l 2,0,1
EndSplineSet
EndChar

StartChar: u201C
Encoding: 65541 -1 115
Width: 666
GlyphClass: 2
Flags: W
LayerCount: 2
Fore
SplineSet
588 1388 m 1,0,1
 536 1370 536 1370 508 1319 c 128,-1,2
 480 1268 480 1268 480 1192 c 1,3,-1
 572 1192 l 1,4,-1
 572 988 l 1,5,-1
 384 988 l 1,6,-1
 384 1148 l 2,7,8
 384 1286 384 1286 419 1347 c 128,-1,9
 454 1408 454 1408 544 1456 c 1,10,-1
 588 1388 l 1,0,1
286 1388 m 1,11,12
 234 1370 234 1370 206 1319 c 128,-1,13
 178 1268 178 1268 178 1192 c 1,14,-1
 270 1192 l 1,15,-1
 270 988 l 1,16,-1
 82 988 l 1,17,-1
 82 1148 l 2,18,19
 82 1218 82 1218 88 1260 c 128,-1,20
 94 1302 94 1302 112 1338 c 0,21,22
 154 1408 154 1408 242 1456 c 1,23,-1
 286 1388 l 1,11,12
EndSplineSet
EndChar

StartChar: u201D
Encoding: 65542 -1 116
Width: 666
GlyphClass: 2
Flags: W
LayerCount: 2
Fore
SplineSet
576 1286 m 2,0,1
 576 1162 576 1162 546 1096 c 1,2,3
 504 1022 504 1022 416 978 c 1,4,-1
 372 1046 l 1,5,6
 422 1064 422 1064 451 1116 c 128,-1,7
 480 1168 480 1168 480 1242 c 1,8,-1
 388 1242 l 1,9,-1
 388 1446 l 1,10,-1
 576 1446 l 1,11,-1
 576 1286 l 2,0,1
274 1286 m 2,12,13
 274 1162 274 1162 244 1096 c 1,14,15
 206 1024 206 1024 112 978 c 1,16,-1
 70 1046 l 1,17,18
 116 1064 116 1064 146 1113 c 128,-1,19
 176 1162 176 1162 176 1242 c 1,20,-1
 84 1242 l 1,21,-1
 84 1446 l 1,22,-1
 274 1446 l 1,23,-1
 274 1286 l 2,12,13
EndSplineSet
EndChar

StartChar: u2026
Encoding: 8230 8230 117
Width: 1283
GlyphClass: 2
Flags: W
LayerCount: 2
Fore
SplineSet
265 136 m 0,0,1
 298 136 298 136 320.5 114 c 128,-1,2
 343 92 343 92 343 58 c 0,3,4
 343 26 343 26 320.5 3 c 128,-1,5
 298 -20 298 -20 265 -20 c 0,6,7
 233 -20 233 -20 210 3 c 128,-1,8
 187 26 187 26 187 58 c 0,9,10
 187 92 187 92 210 114 c 128,-1,11
 233 136 233 136 265 136 c 0,0,1
638 136 m 256,12,13
 670 136 670 136 693 114 c 128,-1,14
 716 92 716 92 716 58 c 0,15,16
 716 26 716 26 692.5 3 c 128,-1,17
 669 -20 669 -20 638 -20 c 0,18,19
 606 -20 606 -20 583 3 c 128,-1,20
 560 26 560 26 560 58 c 0,21,22
 560 92 560 92 583 114 c 128,-1,23
 606 136 606 136 638 136 c 256,12,13
1010 136 m 0,24,25
 1043 136 1043 136 1066 114 c 128,-1,26
 1089 92 1089 92 1089 58 c 0,27,28
 1089 26 1089 26 1065.5 3 c 128,-1,29
 1042 -20 1042 -20 1010 -20 c 256,30,31
 978 -20 978 -20 955.5 3 c 128,-1,32
 933 26 933 26 933 58 c 0,33,34
 933 92 933 92 955.5 114 c 128,-1,35
 978 136 978 136 1010 136 c 0,24,25
EndSplineSet
EndChar

StartChar: u2212
Encoding: 8722 8722 118
Width: 974
GlyphClass: 2
Flags: W
LayerCount: 2
Fore
SplineSet
133 450 m 1,0,-1
 133 508 l 1,1,-1
 894 508 l 1,2,-1
 894 450 l 1,3,-1
 133 450 l 1,0,-1
EndSplineSet
EndChar

StartChar: u25CC
Encoding: 9676 9676 119
Width: 1167
GlyphClass: 2
Flags: W
LayerCount: 2
Fore
SplineSet
654 665 m 0,0,1
 626 665 626 665 612 679 c 128,-1,2
 598 693 598 693 598 724 c 0,3,4
 598 746 598 746 615 762.5 c 128,-1,5
 632 779 632 779 654 779 c 0,6,7
 683 779 683 779 697.5 765 c 128,-1,8
 712 751 712 751 712 724 c 0,9,10
 712 693 712 693 697.5 679 c 128,-1,11
 683 665 683 665 654 665 c 0,0,1
840 616 m 0,12,13
 811 616 811 616 796.5 630.5 c 128,-1,14
 782 645 782 645 782 674 c 0,15,16
 782 701 782 701 796.5 715 c 128,-1,17
 811 729 811 729 840 729 c 0,18,19
 862 729 862 729 879 713 c 128,-1,20
 896 697 896 697 896 674 c 0,21,22
 896 645 896 645 882 630.5 c 128,-1,23
 868 616 868 616 840 616 c 0,12,13
470 616 m 0,24,25
 442 616 442 616 428 630.5 c 128,-1,26
 414 645 414 645 414 674 c 0,27,28
 414 697 414 697 431 713 c 128,-1,29
 448 729 448 729 470 729 c 0,30,31
 494 729 494 729 510 713 c 128,-1,32
 526 697 526 697 526 674 c 0,33,34
 526 645 526 645 512.5 630.5 c 128,-1,35
 499 616 499 616 470 616 c 0,24,25
973 482 m 0,36,37
 951 482 951 482 933.5 498 c 128,-1,38
 916 514 916 514 916 538 c 0,39,40
 916 567 916 567 930.5 581 c 128,-1,41
 945 595 945 595 973 595 c 256,42,43
 1001 595 1001 595 1014.5 581 c 128,-1,44
 1028 567 1028 567 1028 538 c 0,45,46
 1028 514 1028 514 1012 498 c 128,-1,47
 996 482 996 482 973 482 c 0,36,37
336 482 m 0,48,49
 307 482 307 482 293 495.5 c 128,-1,50
 279 509 279 509 279 538 c 256,51,52
 279 567 279 567 293 581 c 128,-1,53
 307 595 307 595 336 595 c 0,54,55
 364 595 364 595 378 581 c 128,-1,56
 392 567 392 567 392 538 c 0,57,58
 392 514 392 514 375 498 c 128,-1,59
 358 482 358 482 336 482 c 0,48,49
1024 298 m 0,60,61
 994 298 994 298 979.5 311.5 c 128,-1,62
 965 325 965 325 965 354 c 0,63,64
 965 382 965 382 979.5 396 c 128,-1,65
 994 410 994 410 1024 410 c 0,66,67
 1046 410 1046 410 1063 393 c 128,-1,68
 1080 376 1080 376 1080 354 c 0,69,70
 1080 331 1080 331 1063 314.5 c 128,-1,71
 1046 298 1046 298 1024 298 c 0,60,61
287 298 m 0,72,73
 257 298 257 298 243 311.5 c 128,-1,74
 229 325 229 325 229 354 c 0,75,76
 229 382 229 382 243 396 c 128,-1,77
 257 410 257 410 287 410 c 0,78,79
 310 410 310 410 326.5 393 c 128,-1,80
 343 376 343 376 343 354 c 0,81,82
 343 331 343 331 326.5 314.5 c 128,-1,83
 310 298 310 298 287 298 c 0,72,73
973 112 m 256,84,85
 945 112 945 112 930.5 126.5 c 128,-1,86
 916 141 916 141 916 169 c 0,87,88
 916 193 916 193 933.5 209.5 c 128,-1,89
 951 226 951 226 973 226 c 0,90,91
 996 226 996 226 1012 209.5 c 128,-1,92
 1028 193 1028 193 1028 169 c 0,93,94
 1028 141 1028 141 1014.5 126.5 c 128,-1,95
 1001 112 1001 112 973 112 c 256,84,85
336 112 m 0,96,97
 307 112 307 112 293 126.5 c 128,-1,98
 279 141 279 141 279 169 c 0,99,100
 279 198 279 198 293 212 c 128,-1,101
 307 226 307 226 336 226 c 0,102,103
 358 226 358 226 375 209.5 c 128,-1,104
 392 193 392 193 392 169 c 0,105,106
 392 141 392 141 378 126.5 c 128,-1,107
 364 112 364 112 336 112 c 0,96,97
840 -22 m 0,108,109
 811 -22 811 -22 796.5 -8 c 128,-1,110
 782 6 782 6 782 34 c 0,111,112
 782 63 782 63 796.5 78 c 128,-1,113
 811 93 811 93 840 93 c 0,114,115
 863 93 863 93 879.5 75 c 128,-1,116
 896 57 896 57 896 34 c 256,117,118
 896 11 896 11 879 -5.5 c 128,-1,119
 862 -22 862 -22 840 -22 c 0,108,109
470 -22 m 0,120,121
 448 -22 448 -22 431 -5.5 c 128,-1,122
 414 11 414 11 414 34 c 256,123,124
 414 57 414 57 430.5 75 c 128,-1,125
 447 93 447 93 470 93 c 0,126,127
 495 93 495 93 510.5 75 c 128,-1,128
 526 57 526 57 526 34 c 256,129,130
 526 11 526 11 510 -5.5 c 128,-1,131
 494 -22 494 -22 470 -22 c 0,120,121
654 -72 m 0,132,133
 632 -72 632 -72 615 -55 c 128,-1,134
 598 -38 598 -38 598 -16 c 0,135,136
 598 14 598 14 612 28.5 c 128,-1,137
 626 43 626 43 654 43 c 0,138,139
 683 43 683 43 697.5 28.5 c 128,-1,140
 712 14 712 14 712 -16 c 0,141,142
 712 -44 712 -44 697.5 -58 c 128,-1,143
 683 -72 683 -72 654 -72 c 0,132,133
EndSplineSet
EndChar

StartChar: tm_k_ikaar
Encoding: 65543 -1 120
Width: 1622
GlyphClass: 2
Flags: W
LayerCount: 2
Fore
SplineSet
1458 -18 m 1,0,1
 1326 60 1326 60 1326 152 c 2,2,-1
 1326 934 l 2,3,4
 1326 1064 1326 1064 1232 1156 c 128,-1,5
 1138 1248 1138 1248 1002 1248 c 0,6,7
 878 1248 878 1248 792 1182 c 128,-1,8
 706 1116 706 1116 706 1020 c 0,9,10
 706 936 706 936 742 873 c 128,-1,11
 778 810 778 810 834 800 c 1,12,-1
 850 800 l 2,13,14
 890 800 890 800 931 769 c 128,-1,15
 972 738 972 738 1002 686 c 1,16,-1
 774 686 l 1,17,-1
 774 474 l 1,18,-1
 926 474 l 2,19,20
 1028 474 1028 474 1101 413 c 128,-1,21
 1174 352 1174 352 1174 266 c 0,22,23
 1174 154 1174 154 1114 77 c 128,-1,24
 1054 0 1054 0 966 0 c 2,25,-1
 762 0 l 1,26,27
 800 76 800 76 940 114 c 0,28,29
 984 126 984 126 1012 168 c 128,-1,30
 1040 210 1040 210 1040 266 c 0,31,32
 1040 304 1040 304 1006 332 c 128,-1,33
 972 360 972 360 924 360 c 2,34,-1
 774 360 l 1,35,-1
 774 248 l 2,36,37
 774 142 774 142 674 66 c 128,-1,38
 574 -10 574 -10 430 -10 c 0,39,40
 280 -10 280 -10 174 70 c 128,-1,41
 68 150 68 150 68 266 c 0,42,43
 68 352 68 352 140 412 c 128,-1,44
 212 472 212 472 316 472 c 1,45,-1
 316 648 l 2,46,47
 316 712 316 712 366 756 c 128,-1,48
 416 800 416 800 488 800 c 2,49,-1
 668 800 l 1,50,51
 574 898 574 898 574 1020 c 0,52,53
 574 1162 574 1162 698 1262 c 128,-1,54
 822 1362 822 1362 1002 1362 c 0,55,56
 1192 1362 1192 1362 1325 1237 c 128,-1,57
 1458 1112 1458 1112 1458 934 c 2,58,-1
 1458 -18 l 1,0,1
640 248 m 2,59,-1
 640 686 l 1,60,-1
 490 686 l 1,61,62
 450 682 450 682 450 648 c 2,63,-1
 450 474 l 1,64,-1
 610 474 l 1,65,66
 580 420 580 420 528 390 c 128,-1,67
 476 360 476 360 410 360 c 2,68,-1
 356 360 l 2,69,70
 288 360 288 360 245 334 c 128,-1,71
 202 308 202 308 202 266 c 0,72,73
 202 198 202 198 269 151 c 128,-1,74
 336 104 336 104 430 104 c 0,75,76
 516 104 516 104 578 146 c 128,-1,77
 640 188 640 188 640 248 c 2,59,-1
EndSplineSet
Ligature2: "'psts' Post Base Substitutions lookup 8 subtable" tm_ka tm_ikaar
EndChar

StartChar: tm_ng_ikaar
Encoding: 65544 -1 121
Width: 1882
GlyphClass: 2
Flags: W
LayerCount: 2
Fore
SplineSet
1722 -18 m 1,0,1
 1588 60 1588 60 1588 172 c 2,2,-1
 1588 914 l 2,3,4
 1588 1052 1588 1052 1490 1150 c 128,-1,5
 1392 1248 1392 1248 1254 1248 c 0,6,7
 1132 1248 1132 1248 1046 1164 c 128,-1,8
 960 1080 960 1080 960 962 c 0,9,10
 960 848 960 848 1041 767 c 128,-1,11
 1122 686 1122 686 1236 686 c 1,12,-1
 1236 824 l 1,13,14
 1370 732 1370 732 1370 610 c 2,15,-1
 1370 172 l 2,16,17
 1370 102 1370 102 1315 51 c 128,-1,18
 1260 0 1260 0 1180 0 c 2,19,-1
 478 0 l 1,20,21
 554 114 554 114 662 114 c 2,22,-1
 756 114 l 1,23,24
 830 122 830 122 880 176 c 128,-1,25
 930 230 930 230 930 304 c 0,26,27
 930 370 930 370 886 414 c 128,-1,28
 842 458 842 458 776 458 c 0,29,30
 680 458 680 458 644 394 c 1,31,-1
 644 162 l 1,32,33
 510 254 510 254 510 344 c 2,34,-1
 510 686 l 1,35,-1
 342 686 l 2,36,37
 318 686 318 686 300 666 c 128,-1,38
 282 646 282 646 282 618 c 2,39,-1
 282 -18 l 1,40,41
 148 60 148 60 148 172 c 2,42,-1
 148 618 l 2,43,44
 148 692 148 692 204 746 c 128,-1,45
 260 800 260 800 340 800 c 2,46,-1
 662 800 l 2,47,48
 718 800 718 800 765 770 c 128,-1,49
 812 740 812 740 844 686 c 1,50,-1
 644 686 l 1,51,-1
 644 544 l 1,52,53
 696 572 696 572 776 572 c 0,54,55
 894 572 894 572 978 494 c 128,-1,56
 1062 416 1062 416 1062 304 c 0,57,58
 1062 166 1062 166 988 114 c 1,59,-1
 1178 114 l 2,60,61
 1202 114 1202 114 1219 131 c 128,-1,62
 1236 148 1236 148 1236 172 c 2,63,-1
 1236 572 l 1,64,65
 1066 572 1066 572 946 682 c 128,-1,66
 826 792 826 792 826 962 c 0,67,68
 826 1128 826 1128 951 1245 c 128,-1,69
 1076 1362 1076 1362 1254 1362 c 0,70,71
 1448 1362 1448 1362 1585 1231 c 128,-1,72
 1722 1100 1722 1100 1722 914 c 2,73,-1
 1722 -18 l 1,0,1
EndSplineSet
Ligature2: "'psts' Post Base Substitutions lookup 8 subtable" tm_nga tm_ikaar
EndChar

StartChar: tm_c_ikaar
Encoding: 65545 -1 122
Width: 1412
GlyphClass: 2
Flags: W
LayerCount: 2
Fore
SplineSet
1252 -18 m 1,0,1
 1118 58 1118 58 1118 152 c 2,2,-1
 1118 1010 l 2,3,4
 1118 1110 1118 1110 1049 1179 c 128,-1,5
 980 1248 980 1248 880 1248 c 0,6,7
 784 1248 784 1248 718 1182 c 128,-1,8
 652 1116 652 1116 652 1020 c 0,9,10
 652 946 652 946 684 886 c 128,-1,11
 716 826 716 826 772 800 c 1,12,-1
 842 800 l 2,13,14
 918 800 918 800 984 686 c 1,15,-1
 748 686 l 1,16,-1
 748 474 l 1,17,-1
 824 474 l 2,18,19
 870 474 870 474 913 444 c 128,-1,20
 956 414 956 414 986 360 c 1,21,-1
 748 360 l 1,22,-1
 748 286 l 2,23,24
 748 162 748 162 648 76 c 128,-1,25
 548 -10 548 -10 404 -10 c 0,26,27
 266 -10 266 -10 168 68 c 128,-1,28
 70 146 70 146 70 258 c 0,29,30
 70 344 70 344 133 407 c 128,-1,31
 196 470 196 470 290 470 c 1,32,-1
 290 628 l 2,33,34
 290 700 290 700 340 750 c 128,-1,35
 390 800 390 800 462 800 c 2,36,-1
 592 800 l 1,37,38
 518 870 518 870 518 1020 c 0,39,40
 518 1162 518 1162 624 1262 c 128,-1,41
 730 1362 730 1362 880 1362 c 0,42,43
 1036 1362 1036 1362 1144 1260 c 128,-1,44
 1252 1158 1252 1158 1252 1010 c 2,45,-1
 1252 -18 l 1,0,1
614 286 m 2,46,-1
 614 686 l 1,47,-1
 464 686 l 2,48,49
 448 686 448 686 436 670 c 128,-1,50
 424 654 424 654 424 628 c 2,51,-1
 424 474 l 1,52,-1
 604 474 l 1,53,54
 574 420 574 420 526 390 c 128,-1,55
 478 360 478 360 422 360 c 2,56,-1
 320 360 l 2,57,58
 272 360 272 360 238 330 c 128,-1,59
 204 300 204 300 204 258 c 0,60,61
 204 192 204 192 262 148 c 128,-1,62
 320 104 320 104 404 104 c 0,63,64
 492 104 492 104 553 157 c 128,-1,65
 614 210 614 210 614 286 c 2,46,-1
EndSplineSet
Ligature2: "'psts' Post Base Substitutions lookup 8 subtable" tm_ca tm_ikaar
EndChar

StartChar: tm_j_ikaar
Encoding: 65546 -1 123
Width: 1872
GlyphClass: 2
Flags: W
LayerCount: 2
Fore
SplineSet
1714 -18 m 1,0,1
 1582 60 1582 60 1582 152 c 2,2,-1
 1582 934 l 2,3,4
 1582 1064 1582 1064 1488 1156 c 128,-1,5
 1394 1248 1394 1248 1258 1248 c 0,6,7
 1134 1248 1134 1248 1048 1182 c 128,-1,8
 962 1116 962 1116 962 1020 c 0,9,10
 962 954 962 954 994 898 c 128,-1,11
 1026 842 1026 842 1086 808 c 1,12,13
 1216 808 1216 808 1308 694 c 128,-1,14
 1400 580 1400 580 1400 420 c 0,15,16
 1400 248 1400 248 1278 124 c 128,-1,17
 1156 0 1156 0 984 0 c 2,18,-1
 394 0 l 2,19,20
 306 0 306 0 244 -66 c 128,-1,21
 182 -132 182 -132 182 -228 c 256,22,23
 182 -324 182 -324 249 -391 c 128,-1,24
 316 -458 316 -458 410 -458 c 0,25,26
 558 -458 558 -458 760 -290 c 0,27,28
 1002 -86 1002 -86 1154 -86 c 0,29,30
 1266 -86 1266 -86 1343 -155 c 128,-1,31
 1420 -224 1420 -224 1420 -324 c 0,32,33
 1420 -426 1420 -426 1353 -499 c 128,-1,34
 1286 -572 1286 -572 1192 -572 c 0,35,36
 1100 -572 1100 -572 1036 -516 c 128,-1,37
 972 -460 972 -460 972 -380 c 0,38,39
 972 -280 972 -280 1096 -222 c 1,40,-1
 1096 -370 l 2,41,42
 1096 -408 1096 -408 1123 -433 c 128,-1,43
 1150 -458 1150 -458 1192 -458 c 0,44,45
 1232 -458 1232 -458 1259 -419 c 128,-1,46
 1286 -380 1286 -380 1286 -324 c 0,47,48
 1286 -272 1286 -272 1248 -236 c 128,-1,49
 1210 -200 1210 -200 1154 -200 c 0,50,51
 1052 -200 1052 -200 842 -376 c 0,52,53
 606 -572 606 -572 410 -572 c 0,54,55
 260 -572 260 -572 154 -472 c 128,-1,56
 48 -372 48 -372 48 -228 c 0,57,58
 48 -86 48 -86 148 14 c 128,-1,59
 248 114 248 114 392 114 c 2,60,-1
 982 114 l 2,61,62
 1102 114 1102 114 1185 203 c 128,-1,63
 1268 292 1268 292 1268 420 c 0,64,65
 1268 530 1268 530 1202 608 c 128,-1,66
 1136 686 1136 686 1038 686 c 0,67,68
 952 686 952 686 895 640 c 128,-1,69
 838 594 838 594 838 524 c 2,70,-1
 838 192 l 1,71,72
 706 270 706 270 706 382 c 2,73,-1
 706 476 l 2,74,75
 706 568 706 568 638 632 c 128,-1,76
 570 696 570 696 468 696 c 256,77,78
 366 696 366 696 293 635 c 128,-1,79
 220 574 220 574 220 486 c 0,80,81
 220 410 220 410 267 357 c 128,-1,82
 314 304 314 304 382 304 c 0,83,84
 428 304 428 304 462 338 c 128,-1,85
 496 372 496 372 496 420 c 0,86,87
 496 452 496 452 478 474 c 128,-1,88
 460 496 460 496 430 496 c 0,89,90
 398 496 398 496 376 480 c 128,-1,91
 354 464 354 464 354 438 c 2,92,-1
 354 334 l 1,93,94
 278 376 278 376 278 468 c 0,95,96
 278 528 278 528 321 569 c 128,-1,97
 364 610 364 610 430 610 c 0,98,99
 512 610 512 610 571 555 c 128,-1,100
 630 500 630 500 630 420 c 0,101,102
 630 324 630 324 557 257 c 128,-1,103
 484 190 484 190 382 190 c 0,104,105
 258 190 258 190 172 276 c 128,-1,106
 86 362 86 362 86 486 c 0,107,108
 86 618 86 618 198 714 c 128,-1,109
 310 810 310 810 468 810 c 0,110,111
 562 810 562 810 639 776 c 128,-1,112
 716 742 716 742 760 678 c 1,113,114
 810 768 810 768 938 790 c 1,115,116
 890 818 890 818 860 880 c 128,-1,117
 830 942 830 942 830 1020 c 0,118,119
 830 1162 830 1162 954 1262 c 128,-1,120
 1078 1362 1078 1362 1258 1362 c 0,121,122
 1448 1362 1448 1362 1581 1237 c 128,-1,123
 1714 1112 1714 1112 1714 934 c 2,124,-1
 1714 -18 l 1,0,1
EndSplineSet
Ligature2: "'psts' Post Base Substitutions lookup 8 subtable" tm_ja tm_ikaar
EndChar

StartChar: tm_ny_ikaar
Encoding: 65547 -1 124
Width: 2232
GlyphClass: 2
Flags: W
LayerCount: 2
Fore
SplineSet
2072 -18 m 1,0,1
 1940 60 1940 60 1940 152 c 2,2,-1
 1940 934 l 2,3,4
 1940 1064 1940 1064 1846 1156 c 128,-1,5
 1752 1248 1752 1248 1616 1248 c 0,6,7
 1472 1248 1472 1248 1372 1182 c 128,-1,8
 1272 1116 1272 1116 1272 1020 c 0,9,10
 1272 928 1272 928 1314 864 c 128,-1,11
 1356 800 1356 800 1416 800 c 2,12,-1
 1454 800 l 2,13,14
 1494 800 1494 800 1535 769 c 128,-1,15
 1576 738 1576 738 1606 686 c 1,16,-1
 1320 686 l 1,17,-1
 1320 434 l 1,18,19
 1378 504 1378 504 1510 504 c 0,20,21
 1644 504 1644 504 1739 407 c 128,-1,22
 1834 310 1834 310 1834 172 c 0,23,24
 1834 -136 1834 -136 1589 -354 c 128,-1,25
 1344 -572 1344 -572 996 -572 c 0,26,27
 804 -572 804 -572 642 -512 c 128,-1,28
 480 -452 480 -452 367 -339 c 128,-1,29
 254 -226 254 -226 192 -62 c 128,-1,30
 130 102 130 102 130 286 c 0,31,32
 130 566 130 566 316 828 c 1,33,34
 346 744 346 744 346 682 c 0,35,36
 346 650 346 650 338 632 c 0,37,38
 264 422 264 422 264 286 c 0,39,40
 264 -54 264 -54 464 -254 c 0,41,42
 560 -350 560 -350 700 -404 c 128,-1,43
 840 -458 840 -458 996 -458 c 0,44,45
 1290 -458 1290 -458 1496 -274 c 128,-1,46
 1702 -90 1702 -90 1702 172 c 0,47,48
 1702 262 1702 262 1646 326 c 128,-1,49
 1590 390 1590 390 1510 390 c 0,50,51
 1454 390 1454 390 1403 358 c 128,-1,52
 1352 326 1352 326 1320 270 c 1,53,-1
 1320 -18 l 1,54,55
 1186 60 1186 60 1186 172 c 2,56,-1
 1186 686 l 1,57,-1
 846 686 l 2,58,59
 722 686 722 686 635 591 c 128,-1,60
 548 496 548 496 548 362 c 0,61,62
 548 260 548 260 605 187 c 128,-1,63
 662 114 662 114 740 114 c 0,64,65
 782 114 782 114 813 147 c 128,-1,66
 844 180 844 180 844 228 c 0,67,68
 844 260 844 260 826 282 c 128,-1,69
 808 304 808 304 778 304 c 256,70,71
 748 304 748 304 726 275 c 128,-1,72
 704 246 704 246 710 210 c 1,73,-1
 710 142 l 1,74,75
 606 212 606 212 606 278 c 0,76,77
 606 336 606 336 656 378 c 128,-1,78
 706 420 706 420 778 420 c 0,79,80
 862 420 862 420 920 364 c 128,-1,81
 978 308 978 308 978 228 c 0,82,83
 978 132 978 132 910 66 c 128,-1,84
 842 0 842 0 740 0 c 0,85,86
 608 0 608 0 512 106 c 128,-1,87
 416 212 416 212 416 362 c 0,88,89
 416 544 416 544 540 672 c 128,-1,90
 664 800 664 800 844 800 c 2,91,-1
 1224 800 l 1,92,93
 1140 854 1140 854 1140 1020 c 0,94,95
 1140 1162 1140 1162 1280 1262 c 128,-1,96
 1420 1362 1420 1362 1616 1362 c 0,97,98
 1806 1362 1806 1362 1939 1237 c 128,-1,99
 2072 1112 2072 1112 2072 934 c 2,100,-1
 2072 -18 l 1,0,1
EndSplineSet
Ligature2: "'psts' Post Base Substitutions lookup 8 subtable" tm_nya tm_ikaar
EndChar

StartChar: tm_tt_ikaar
Encoding: 65548 -1 125
Width: 1390
GlyphClass: 2
Flags: W
LayerCount: 2
Fore
SplineSet
1370 0 m 1,0,-1
 1006 0 l 1,1,-1
 1006 -382 l 1,2,3
 944 -346 944 -346 908 -290 c 128,-1,4
 872 -234 872 -234 872 -172 c 2,5,-1
 872 0 l 1,6,-1
 338 0 l 2,7,8
 260 0 260 0 204 52 c 128,-1,9
 148 104 148 104 148 180 c 2,10,-1
 148 814 l 1,11,12
 208 792 208 792 245 743 c 128,-1,13
 282 694 282 694 282 638 c 2,14,-1
 282 180 l 2,15,16
 282 152 282 152 299 133 c 128,-1,17
 316 114 316 114 338 114 c 2,18,-1
 616 114 l 1,19,20
 542 158 542 158 498 227 c 128,-1,21
 454 296 454 296 454 372 c 0,22,23
 454 486 454 486 537 567 c 128,-1,24
 620 648 620 648 738 648 c 0,25,26
 850 648 850 648 928 582 c 128,-1,27
 1006 516 1006 516 1006 420 c 2,28,-1
 1006 114 l 1,29,-1
 1176 114 l 2,30,31
 1236 114 1236 114 1288 84 c 128,-1,32
 1340 54 1340 54 1370 0 c 1,0,-1
872 120 m 1,33,-1
 872 420 l 2,34,35
 872 468 872 468 833 501 c 128,-1,36
 794 534 794 534 738 534 c 0,37,38
 674 534 674 534 630 488 c 128,-1,39
 586 442 586 442 586 372 c 0,40,41
 586 286 586 286 666 214 c 128,-1,42
 746 142 746 142 872 120 c 1,33,-1
EndSplineSet
Ligature2: "'psts' Post Base Substitutions lookup 8 subtable" tm_tta tm_ikaar
EndChar

StartChar: tm_nn_ikaar
Encoding: 65549 -1 126
Width: 2616
GlyphClass: 2
Flags: W
LayerCount: 2
Fore
SplineSet
2500 -18 m 1,0,1
 2368 60 2368 60 2368 152 c 2,2,-1
 2368 1010 l 2,3,4
 2368 1110 2368 1110 2309 1179 c 128,-1,5
 2250 1248 2250 1248 2168 1248 c 0,6,7
 2076 1248 2076 1248 2012 1182 c 128,-1,8
 1948 1116 1948 1116 1948 1020 c 0,9,10
 1948 950 1948 950 1980 892 c 128,-1,11
 2012 834 2012 834 2070 800 c 1,12,-1
 2158 800 l 2,13,14
 2208 800 2208 800 2254 770 c 128,-1,15
 2300 740 2300 740 2330 686 c 1,16,-1
 2062 686 l 1,17,-1
 2062 -18 l 1,18,19
 1930 60 1930 60 1930 152 c 2,20,-1
 1930 686 l 1,21,-1
 1834 686 l 2,22,23
 1682 686 1682 686 1606 632 c 1,24,25
 1738 500 1738 500 1738 304 c 0,26,27
 1738 178 1738 178 1671 89 c 128,-1,28
 1604 0 1604 0 1510 0 c 0,29,30
 1414 0 1414 0 1348 78 c 128,-1,31
 1282 156 1282 156 1282 266 c 0,32,33
 1282 374 1282 374 1338 452 c 128,-1,34
 1394 530 1394 530 1484 546 c 1,35,36
 1414 460 1414 460 1414 266 c 0,37,38
 1414 202 1414 202 1442 158 c 128,-1,39
 1470 114 1470 114 1510 114 c 256,40,41
 1550 114 1550 114 1578 170 c 128,-1,42
 1606 226 1606 226 1606 304 c 0,43,44
 1606 462 1606 462 1492 574 c 128,-1,45
 1378 686 1378 686 1214 686 c 0,46,47
 1098 686 1098 686 1024 634 c 1,48,49
 1092 568 1092 568 1130 481 c 128,-1,50
 1168 394 1168 394 1168 304 c 0,51,52
 1168 178 1168 178 1101 89 c 128,-1,53
 1034 0 1034 0 938 0 c 0,54,55
 848 0 848 0 784 78 c 128,-1,56
 720 156 720 156 720 266 c 256,57,58
 720 376 720 376 774 459 c 128,-1,59
 828 542 828 542 910 556 c 1,60,61
 852 486 852 486 852 266 c 0,62,63
 852 202 852 202 876 158 c 128,-1,64
 900 114 900 114 938 114 c 0,65,66
 978 114 978 114 1006 170 c 128,-1,67
 1034 226 1034 226 1034 304 c 0,68,69
 1034 462 1034 462 918 574 c 128,-1,70
 802 686 802 686 634 686 c 0,71,72
 476 686 476 686 364 592 c 128,-1,73
 252 498 252 498 252 362 c 0,74,75
 252 260 252 260 311 187 c 128,-1,76
 370 114 370 114 452 114 c 0,77,78
 494 114 494 114 526 148 c 128,-1,79
 558 182 558 182 558 228 c 0,80,81
 558 260 558 260 540 282 c 128,-1,82
 522 304 522 304 492 304 c 256,83,84
 462 304 462 304 440 282 c 128,-1,85
 418 260 418 260 414 226 c 1,86,-1
 414 150 l 1,87,88
 330 192 330 192 330 266 c 0,89,90
 330 332 330 332 376 376 c 128,-1,91
 422 420 422 420 492 420 c 0,92,93
 576 420 576 420 634 364 c 128,-1,94
 692 308 692 308 692 228 c 0,95,96
 692 132 692 132 622 66 c 128,-1,97
 552 0 552 0 452 0 c 0,98,99
 316 0 316 0 218 106 c 128,-1,100
 120 212 120 212 120 362 c 0,101,102
 120 544 120 544 270 672 c 128,-1,103
 420 800 420 800 634 800 c 0,104,105
 794 800 794 800 938 716 c 1,106,107
 1060 800 1060 800 1214 800 c 0,108,109
 1376 800 1376 800 1520 716 c 1,110,111
 1642 800 1642 800 1834 800 c 2,112,-1
 1910 800 l 1,113,114
 1814 868 1814 868 1814 1020 c 0,115,116
 1814 1164 1814 1164 1917 1263 c 128,-1,117
 2020 1362 2020 1362 2168 1362 c 0,118,119
 2306 1362 2306 1362 2403 1259 c 128,-1,120
 2500 1156 2500 1156 2500 1010 c 2,121,-1
 2500 -18 l 1,0,1
EndSplineSet
Ligature2: "'psts' Post Base Substitutions lookup 8 subtable" tm_nna tm_ikaar
EndChar

StartChar: tm_t_ikaar
Encoding: 65550 -1 127
Width: 1576
GlyphClass: 2
Flags: W
LayerCount: 2
Fore
SplineSet
1418 -18 m 1,0,1
 1284 58 1284 58 1284 152 c 2,2,-1
 1284 934 l 2,3,4
 1284 1064 1284 1064 1190 1156 c 128,-1,5
 1096 1248 1096 1248 960 1248 c 0,6,7
 838 1248 838 1248 752 1182 c 128,-1,8
 666 1116 666 1116 666 1020 c 0,9,10
 666 870 666 870 768 800 c 1,11,-1
 828 800 l 2,12,13
 874 800 874 800 917 770 c 128,-1,14
 960 740 960 740 990 686 c 1,15,-1
 752 686 l 1,16,-1
 752 474 l 1,17,-1
 904 474 l 2,18,19
 1014 474 1014 474 1092 392 c 128,-1,20
 1170 310 1170 310 1170 190 c 0,21,22
 1170 26 1170 26 1048 -92 c 128,-1,23
 926 -210 926 -210 752 -210 c 2,24,-1
 238 -210 l 2,25,26
 204 -210 204 -210 182 -232 c 128,-1,27
 160 -254 160 -254 160 -286 c 2,28,-1
 160 -442 l 1,29,30
 100 -420 100 -420 64 -372 c 128,-1,31
 28 -324 28 -324 28 -266 c 0,32,33
 28 -196 28 -196 88 -146 c 128,-1,34
 148 -96 148 -96 236 -96 c 2,35,-1
 752 -96 l 2,36,37
 868 -96 868 -96 952 -12 c 128,-1,38
 1036 72 1036 72 1036 190 c 0,39,40
 1036 262 1036 262 997 311 c 128,-1,41
 958 360 958 360 900 360 c 2,42,-1
 752 360 l 1,43,-1
 752 248 l 2,44,45
 752 142 752 142 658 66 c 128,-1,46
 564 -10 564 -10 428 -10 c 0,47,48
 278 -10 278 -10 172 68 c 128,-1,49
 66 146 66 146 66 258 c 0,50,51
 66 346 66 346 132 408 c 128,-1,52
 198 470 198 470 294 470 c 1,53,-1
 294 648 l 2,54,55
 294 712 294 712 344 756 c 128,-1,56
 394 800 394 800 466 800 c 2,57,-1
 618 800 l 1,58,59
 576 830 576 830 554 886 c 128,-1,60
 532 942 532 942 532 1020 c 0,61,62
 532 1162 532 1162 656 1262 c 128,-1,63
 780 1362 780 1362 960 1362 c 0,64,65
 1150 1362 1150 1362 1284 1238 c 128,-1,66
 1418 1114 1418 1114 1418 934 c 2,67,-1
 1418 -18 l 1,0,1
618 248 m 2,68,-1
 618 686 l 1,69,-1
 468 686 l 1,70,71
 428 682 428 682 428 648 c 2,72,-1
 428 474 l 1,73,-1
 598 474 l 1,74,75
 530 360 530 360 408 360 c 2,76,-1
 334 360 l 2,77,78
 278 360 278 360 238 330 c 128,-1,79
 198 300 198 300 198 258 c 0,80,81
 198 192 198 192 263 148 c 128,-1,82
 328 104 328 104 428 104 c 0,83,84
 506 104 506 104 562 146 c 128,-1,85
 618 188 618 188 618 248 c 2,68,-1
EndSplineSet
Ligature2: "'psts' Post Base Substitutions lookup 8 subtable" tm_ta tm_ikaar
EndChar

StartChar: tm_n_ikaar
Encoding: 65551 -1 128
Width: 1586
GlyphClass: 2
Flags: W
LayerCount: 2
Fore
SplineSet
1422 -18 m 1,0,1
 1288 58 1288 58 1288 152 c 2,2,-1
 1288 934 l 2,3,4
 1288 1064 1288 1064 1186 1156 c 128,-1,5
 1084 1248 1084 1248 936 1248 c 0,6,7
 808 1248 808 1248 719 1181 c 128,-1,8
 630 1114 630 1114 630 1020 c 256,9,10
 630 926 630 926 668 863 c 128,-1,11
 706 800 706 800 764 800 c 0,12,13
 820 800 820 800 867 770 c 128,-1,14
 914 740 914 740 946 686 c 1,15,-1
 650 686 l 1,16,-1
 650 430 l 1,17,18
 716 496 716 496 860 496 c 0,19,20
 996 496 996 496 1094 398 c 128,-1,21
 1192 300 1192 300 1192 162 c 0,22,23
 1192 6 1192 6 1074 -102 c 128,-1,24
 956 -210 956 -210 784 -210 c 2,25,-1
 290 -210 l 2,26,27
 242 -210 242 -210 208 -244 c 128,-1,28
 174 -278 174 -278 174 -324 c 2,29,-1
 174 -484 l 1,30,31
 114 -462 114 -462 77 -409 c 128,-1,32
 40 -356 40 -356 40 -294 c 0,33,34
 40 -212 40 -212 112 -154 c 128,-1,35
 184 -96 184 -96 288 -96 c 2,36,-1
 784 -96 l 2,37,38
 896 -96 896 -96 978 -20 c 128,-1,39
 1060 56 1060 56 1060 162 c 0,40,41
 1060 250 1060 250 1001 311 c 128,-1,42
 942 372 942 372 860 372 c 0,43,44
 730 372 730 372 650 260 c 1,45,-1
 650 -18 l 1,46,47
 516 60 516 60 516 172 c 2,48,-1
 516 686 l 1,49,-1
 348 686 l 2,50,51
 324 686 324 686 306 670 c 128,-1,52
 288 654 288 654 288 628 c 2,53,-1
 288 -18 l 1,54,55
 154 60 154 60 154 172 c 2,56,-1
 154 628 l 2,57,58
 154 700 154 700 210 750 c 128,-1,59
 266 800 266 800 346 800 c 2,60,-1
 568 800 l 1,61,62
 498 860 498 860 498 1020 c 0,63,64
 498 1166 498 1166 623 1269 c 128,-1,65
 748 1372 748 1372 926 1372 c 0,66,67
 1130 1372 1130 1372 1276 1244 c 128,-1,68
 1422 1116 1422 1116 1422 934 c 2,69,-1
 1422 -18 l 1,0,1
EndSplineSet
Ligature2: "'psts' Post Base Substitutions lookup 8 subtable" tm_na tm_ikaar
EndChar

StartChar: tm_nnn_ikaar
Encoding: 65552 -1 129
Width: 2172
GlyphClass: 2
Flags: W
LayerCount: 2
Fore
SplineSet
2008 -18 m 1,0,1
 1876 60 1876 60 1876 152 c 2,2,-1
 1876 1010 l 2,3,4
 1876 1108 1876 1108 1798 1178 c 128,-1,5
 1720 1248 1720 1248 1608 1248 c 0,6,7
 1498 1248 1498 1248 1420 1182 c 128,-1,8
 1342 1116 1342 1116 1342 1020 c 0,9,10
 1342 960 1342 960 1376 903 c 128,-1,11
 1410 846 1410 846 1474 800 c 1,12,-1
 1590 800 l 2,13,14
 1646 800 1646 800 1693 770 c 128,-1,15
 1740 740 1740 740 1772 686 c 1,16,-1
 1494 686 l 1,17,-1
 1494 -16 l 1,18,19
 1434 12 1434 12 1398 63 c 128,-1,20
 1362 114 1362 114 1362 172 c 2,21,-1
 1362 686 l 1,22,-1
 1190 686 l 2,23,24
 1066 686 1066 686 1026 636 c 1,25,26
 1170 492 1170 492 1170 304 c 0,27,28
 1170 178 1170 178 1103 89 c 128,-1,29
 1036 0 1036 0 942 0 c 0,30,31
 852 0 852 0 788 78 c 128,-1,32
 724 156 724 156 724 266 c 256,33,34
 724 376 724 376 778 459 c 128,-1,35
 832 542 832 542 914 556 c 1,36,37
 856 486 856 486 856 266 c 0,38,39
 856 202 856 202 880 158 c 128,-1,40
 904 114 904 114 942 114 c 0,41,42
 982 114 982 114 1010 170 c 128,-1,43
 1038 226 1038 226 1038 304 c 0,44,45
 1038 462 1038 462 912 574 c 128,-1,46
 786 686 786 686 608 686 c 0,47,48
 450 686 450 686 339 585 c 128,-1,49
 228 484 228 484 228 342 c 0,50,51
 228 246 228 246 286 180 c 128,-1,52
 344 114 344 114 428 114 c 0,53,54
 470 114 470 114 501 147 c 128,-1,55
 532 180 532 180 532 228 c 0,56,57
 532 260 532 260 514 282 c 128,-1,58
 496 304 496 304 466 304 c 0,59,60
 444 304 444 304 426 281 c 128,-1,61
 408 258 408 258 408 228 c 2,62,-1
 408 136 l 1,63,64
 366 152 366 152 340 190 c 128,-1,65
 314 228 314 228 314 278 c 0,66,67
 314 336 314 336 358 378 c 128,-1,68
 402 420 402 420 466 420 c 0,69,70
 550 420 550 420 608 364 c 128,-1,71
 666 308 666 308 666 228 c 0,72,73
 666 132 666 132 598 66 c 128,-1,74
 530 0 530 0 428 0 c 0,75,76
 290 0 290 0 192 100 c 128,-1,77
 94 200 94 200 94 342 c 0,78,79
 94 532 94 532 244 666 c 128,-1,80
 394 800 394 800 608 800 c 0,81,82
 800 800 800 800 932 708 c 1,83,84
 1040 800 1040 800 1190 800 c 2,85,-1
 1302 800 l 1,86,87
 1208 868 1208 868 1208 1020 c 0,88,89
 1208 1162 1208 1162 1324 1262 c 128,-1,90
 1440 1362 1440 1362 1608 1362 c 0,91,92
 1774 1362 1774 1362 1891 1259 c 128,-1,93
 2008 1156 2008 1156 2008 1010 c 2,94,-1
 2008 -18 l 1,0,1
EndSplineSet
Ligature2: "'psts' Post Base Substitutions lookup 8 subtable" tm_nnna tm_ikaar
EndChar

StartChar: tm_p_ikaar
Encoding: 65553 -1 130
Width: 1588
GlyphClass: 2
Flags: W
LayerCount: 2
Fore
SplineSet
1426 -18 m 1,0,1
 1292 60 1292 60 1292 172 c 2,2,-1
 1292 914 l 2,3,4
 1292 1052 1292 1052 1194 1150 c 128,-1,5
 1096 1248 1096 1248 958 1248 c 0,6,7
 836 1248 836 1248 750 1164 c 128,-1,8
 664 1080 664 1080 664 962 c 0,9,10
 664 848 664 848 743 767 c 128,-1,11
 822 686 822 686 930 686 c 1,12,-1
 1006 692 l 1,13,-1
 1006 808 l 1,14,15
 1062 808 1062 808 1101 761 c 128,-1,16
 1140 714 1140 714 1140 648 c 2,17,-1
 1140 172 l 2,18,19
 1140 100 1140 100 1080 50 c 128,-1,20
 1020 0 1020 0 932 0 c 2,21,-1
 300 0 l 2,22,23
 238 0 238 0 194 50 c 128,-1,24
 150 100 150 100 150 172 c 2,25,-1
 150 808 l 1,26,27
 204 808 204 808 243 761 c 128,-1,28
 282 714 282 714 282 648 c 2,29,-1
 282 172 l 2,30,31
 282 148 282 148 299 131 c 128,-1,32
 316 114 316 114 340 114 c 2,33,-1
 930 114 l 2,34,35
 962 114 962 114 984 130 c 128,-1,36
 1006 146 1006 146 1006 172 c 2,37,-1
 1006 578 l 1,38,-1
 930 572 l 1,39,40
 764 572 764 572 650 680 c 0,41,42
 530 794 530 794 530 962 c 0,43,44
 530 1128 530 1128 655 1245 c 128,-1,45
 780 1362 780 1362 958 1362 c 0,46,47
 1152 1362 1152 1362 1289 1231 c 128,-1,48
 1426 1100 1426 1100 1426 914 c 2,49,-1
 1426 -18 l 1,0,1
EndSplineSet
Ligature2: "'psts' Post Base Substitutions lookup 8 subtable" tm_pa tm_ikaar
EndChar

StartChar: tm_m_ikaar
Encoding: 65554 -1 131
Width: 1630
GlyphClass: 2
Flags: W
LayerCount: 2
Fore
SplineSet
1468 -18 m 1,0,1
 1334 58 1334 58 1334 152 c 2,2,-1
 1334 994 l 2,3,4
 1334 1100 1334 1100 1256 1174 c 128,-1,5
 1178 1248 1178 1248 1068 1248 c 0,6,7
 954 1248 954 1248 873 1181 c 128,-1,8
 792 1114 792 1114 792 1020 c 0,9,10
 792 954 792 954 824 896 c 128,-1,11
 856 838 856 838 916 796 c 1,12,13
 1050 760 1050 760 1135 629 c 128,-1,14
 1220 498 1220 498 1220 324 c 0,15,16
 1220 192 1220 192 1140 96 c 128,-1,17
 1060 0 1060 0 946 0 c 2,18,-1
 352 0 l 2,19,20
 268 0 268 0 206 56 c 128,-1,21
 144 112 144 112 144 190 c 2,22,-1
 144 812 l 1,23,24
 204 796 204 796 240 752 c 128,-1,25
 276 708 276 708 276 648 c 2,26,-1
 276 190 l 2,27,28
 276 158 276 158 298 136 c 128,-1,29
 320 114 320 114 352 114 c 2,30,-1
 600 114 l 1,31,-1
 600 620 l 2,32,33
 600 682 600 682 642 730 c 128,-1,34
 684 778 684 778 748 790 c 1,35,36
 706 824 706 824 682 886 c 128,-1,37
 658 948 658 948 658 1020 c 0,38,39
 658 1162 658 1162 778 1262 c 128,-1,40
 898 1362 898 1362 1068 1362 c 0,41,42
 1234 1362 1234 1362 1351 1255 c 128,-1,43
 1468 1148 1468 1148 1468 994 c 2,44,-1
 1468 -18 l 1,0,1
1086 324 m 0,45,46
 1086 476 1086 476 1012 581 c 128,-1,47
 938 686 938 686 830 686 c 0,48,49
 790 686 790 686 762 664 c 128,-1,50
 734 642 734 642 734 610 c 2,51,-1
 734 114 l 1,52,-1
 944 114 l 2,53,54
 1002 114 1002 114 1044 175 c 128,-1,55
 1086 236 1086 236 1086 324 c 0,45,46
EndSplineSet
Ligature2: "'psts' Post Base Substitutions lookup 8 subtable" tm_ma tm_ikaar
EndChar

StartChar: tm_y_ikaar
Encoding: 65555 -1 132
Width: 1706
GlyphClass: 2
Flags: W
LayerCount: 2
Fore
SplineSet
1548 -18 m 1,0,1
 1416 60 1416 60 1416 172 c 2,2,-1
 1416 990 l 2,3,4
 1416 1096 1416 1096 1338 1172 c 128,-1,5
 1260 1248 1260 1248 1148 1248 c 0,6,7
 1026 1248 1026 1248 940 1164 c 128,-1,8
 854 1080 854 1080 854 962 c 0,9,10
 854 848 854 848 926 769 c 128,-1,11
 998 690 998 690 1102 690 c 1,12,-1
 1102 812 l 1,13,14
 1162 796 1162 796 1198 746 c 128,-1,15
 1234 696 1234 696 1234 628 c 2,16,-1
 1234 190 l 2,17,18
 1234 112 1234 112 1180 56 c 128,-1,19
 1126 0 1126 0 1046 0 c 2,20,-1
 700 0 l 2,21,22
 632 0 632 0 585 31 c 128,-1,23
 538 62 538 62 538 106 c 1,24,25
 450 0 450 0 330 0 c 0,26,27
 256 0 256 0 202 44 c 128,-1,28
 148 88 148 88 148 152 c 2,29,-1
 148 808 l 1,30,31
 204 808 204 808 243 761 c 128,-1,32
 282 714 282 714 282 648 c 2,33,-1
 282 152 l 1,34,35
 286 114 286 114 330 114 c 0,36,37
 382 114 382 114 435 154 c 128,-1,38
 488 194 488 194 530 264 c 1,39,-1
 530 814 l 1,40,41
 590 792 590 792 627 741 c 128,-1,42
 664 690 664 690 664 628 c 2,43,-1
 664 152 l 1,44,45
 668 114 668 114 702 114 c 2,46,-1
 1044 114 l 2,47,48
 1066 114 1066 114 1084 137 c 128,-1,49
 1102 160 1102 160 1102 190 c 2,50,-1
 1102 574 l 1,51,52
 944 574 944 574 832 684 c 128,-1,53
 720 794 720 794 720 962 c 0,54,55
 720 1128 720 1128 845 1245 c 128,-1,56
 970 1362 970 1362 1148 1362 c 0,57,58
 1314 1362 1314 1362 1431 1253 c 128,-1,59
 1548 1144 1548 1144 1548 990 c 2,60,-1
 1548 -18 l 1,0,1
EndSplineSet
Ligature2: "'psts' Post Base Substitutions lookup 8 subtable" tm_ya tm_ikaar
EndChar

StartChar: tm_r_ikaar
Encoding: 65556 -1 133
Width: 1298
GlyphClass: 2
Flags: W
LayerCount: 2
Fore
SplineSet
1134 -18 m 1,0,1
 1002 60 1002 60 1002 152 c 2,2,-1
 1002 1020 l 2,3,4
 1002 1116 1002 1116 944 1182 c 128,-1,5
 886 1248 886 1248 802 1248 c 0,6,7
 706 1248 706 1248 639 1181 c 128,-1,8
 572 1114 572 1114 572 1020 c 0,9,10
 572 862 572 862 676 800 c 1,11,-1
 758 800 l 2,12,13
 808 800 808 800 854 770 c 128,-1,14
 900 740 900 740 930 686 c 1,15,-1
 662 686 l 1,16,-1
 664 96 l 2,17,18
 664 -8 664 -8 570 -64 c 1,19,-1
 164 -282 l 1,20,21
 164 -142 164 -142 274 -78 c 1,22,-1
 500 34 l 1,23,24
 532 62 532 62 532 96 c 2,25,-1
 530 686 l 1,26,-1
 332 686 l 2,27,28
 310 686 310 686 296 670 c 128,-1,29
 282 654 282 654 282 628 c 2,30,-1
 282 -18 l 1,31,32
 148 60 148 60 148 172 c 2,33,-1
 148 628 l 2,34,35
 148 700 148 700 200 750 c 128,-1,36
 252 800 252 800 330 800 c 2,37,-1
 510 800 l 1,38,39
 440 860 440 860 440 1020 c 0,40,41
 440 1162 440 1162 546 1262 c 128,-1,42
 652 1362 652 1362 802 1362 c 0,43,44
 940 1362 940 1362 1037 1261 c 128,-1,45
 1134 1160 1134 1160 1134 1020 c 2,46,-1
 1134 -18 l 1,0,1
EndSplineSet
Ligature2: "'psts' Post Base Substitutions lookup 8 subtable" tm_ra tm_ikaar
EndChar

StartChar: tm_rr_ikaar
Encoding: 65557 -1 134
Width: 1648
GlyphClass: 2
Flags: W
LayerCount: 2
Fore
SplineSet
1486 -18 m 1,0,1
 1352 58 1352 58 1352 152 c 2,2,-1
 1352 934 l 2,3,4
 1352 1064 1352 1064 1258 1156 c 128,-1,5
 1164 1248 1164 1248 1028 1248 c 0,6,7
 906 1248 906 1248 820 1182 c 128,-1,8
 734 1116 734 1116 734 1020 c 0,9,10
 734 952 734 952 774 892 c 128,-1,11
 814 832 814 832 886 798 c 1,12,13
 1026 762 1026 762 1113 635 c 128,-1,14
 1200 508 1200 508 1200 342 c 0,15,16
 1200 112 1200 112 1059 -49 c 128,-1,17
 918 -210 918 -210 716 -210 c 2,18,-1
 268 -210 l 2,19,20
 228 -210 228 -210 200 -234 c 128,-1,21
 172 -258 172 -258 172 -296 c 2,22,-1
 172 -458 l 1,23,24
 38 -376 38 -376 38 -266 c 0,25,26
 38 -196 38 -196 104 -146 c 128,-1,27
 170 -96 170 -96 266 -96 c 2,28,-1
 714 -96 l 2,29,30
 858 -96 858 -96 962 32 c 128,-1,31
 1066 160 1066 160 1066 342 c 0,32,33
 1066 486 1066 486 984 586 c 128,-1,34
 902 686 902 686 782 686 c 0,35,36
 762 686 762 686 739 676 c 128,-1,37
 716 666 716 666 692 648 c 0,38,39
 648 610 648 610 648 572 c 2,40,-1
 648 -18 l 1,41,42
 514 58 514 58 514 152 c 2,43,-1
 514 572 l 2,44,45
 514 618 514 618 478 652 c 128,-1,46
 442 686 442 686 390 686 c 0,47,48
 348 686 348 686 317 653 c 128,-1,49
 286 620 286 620 286 572 c 2,50,-1
 286 -18 l 1,51,52
 152 58 152 58 152 152 c 2,53,-1
 152 572 l 2,54,55
 152 668 152 668 220 734 c 128,-1,56
 288 800 288 800 390 800 c 0,57,58
 536 800 536 800 592 706 c 1,59,60
 648 778 648 778 706 790 c 1,61,62
 600 864 600 864 600 1020 c 0,63,64
 600 1162 600 1162 724 1262 c 128,-1,65
 848 1362 848 1362 1028 1362 c 0,66,67
 1218 1362 1218 1362 1352 1238 c 128,-1,68
 1486 1114 1486 1114 1486 934 c 2,69,-1
 1486 -18 l 1,0,1
EndSplineSet
Ligature2: "'psts' Post Base Substitutions lookup 8 subtable" tm_rra tm_ikaar
EndChar

StartChar: tm_l_ikaar
Encoding: 65558 -1 135
Width: 1858
GlyphClass: 2
Flags: W
LayerCount: 2
Fore
SplineSet
1696 -18 m 1,0,1
 1562 58 1562 58 1562 152 c 2,2,-1
 1562 934 l 2,3,4
 1562 1064 1562 1064 1478 1156 c 128,-1,5
 1394 1248 1394 1248 1276 1248 c 0,6,7
 1168 1248 1168 1248 1094 1182 c 128,-1,8
 1020 1116 1020 1116 1020 1020 c 0,9,10
 1020 888 1020 888 1154 796 c 0,11,12
 1268 716 1268 716 1334 610 c 128,-1,13
 1400 504 1400 504 1400 400 c 0,14,15
 1400 220 1400 220 1304 110 c 128,-1,16
 1208 0 1208 0 1058 0 c 0,17,18
 922 0 922 0 838 107 c 128,-1,19
 754 214 754 214 754 390 c 0,20,21
 754 516 754 516 678 606 c 128,-1,22
 602 696 602 696 496 696 c 256,23,24
 390 696 390 696 314 604 c 128,-1,25
 238 512 238 512 238 380 c 0,26,27
 238 270 238 270 294 192 c 128,-1,28
 350 114 350 114 430 114 c 0,29,30
 472 114 472 114 503 147 c 128,-1,31
 534 180 534 180 534 228 c 0,32,33
 534 260 534 260 516 282 c 128,-1,34
 498 304 498 304 468 304 c 0,35,36
 446 304 446 304 428 281 c 128,-1,37
 410 258 410 258 410 228 c 2,38,-1
 410 136 l 1,39,40
 306 184 306 184 306 266 c 0,41,42
 306 330 306 330 355 375 c 128,-1,43
 404 420 404 420 476 420 c 0,44,45
 556 420 556 420 612 364 c 128,-1,46
 668 308 668 308 668 228 c 0,47,48
 668 132 668 132 600 66 c 128,-1,49
 532 0 532 0 430 0 c 0,50,51
 296 0 296 0 201 111 c 128,-1,52
 106 222 106 222 106 380 c 0,53,54
 106 558 106 558 220 684 c 128,-1,55
 334 810 334 810 496 810 c 256,56,57
 658 810 658 810 772 688 c 128,-1,58
 886 566 886 566 886 390 c 0,59,60
 886 264 886 264 934 189 c 128,-1,61
 982 114 982 114 1058 114 c 0,62,63
 1154 114 1154 114 1211 191 c 128,-1,64
 1268 268 1268 268 1268 400 c 0,65,66
 1268 574 1268 574 1076 708 c 0,67,68
 986 772 986 772 936 853 c 128,-1,69
 886 934 886 934 886 1020 c 0,70,71
 886 1162 886 1162 1000 1262 c 128,-1,72
 1114 1362 1114 1362 1276 1362 c 0,73,74
 1450 1362 1450 1362 1573 1237 c 128,-1,75
 1696 1112 1696 1112 1696 934 c 2,76,-1
 1696 -18 l 1,0,1
EndSplineSet
Ligature2: "'psts' Post Base Substitutions lookup 8 subtable" tm_la tm_ikaar
EndChar

StartChar: tm_ll_ikaar
Encoding: 65559 -1 136
Width: 1996
GlyphClass: 2
Flags: W
LayerCount: 2
Fore
SplineSet
1832 -18 m 1,0,1
 1700 60 1700 60 1700 152 c 2,2,-1
 1700 1038 l 2,3,4
 1700 1126 1700 1126 1631 1187 c 128,-1,5
 1562 1248 1562 1248 1462 1248 c 0,6,7
 1366 1248 1366 1248 1299 1181 c 128,-1,8
 1232 1114 1232 1114 1232 1020 c 0,9,10
 1232 950 1232 950 1270 890 c 128,-1,11
 1308 830 1308 830 1372 800 c 1,12,-1
 1452 800 l 2,13,14
 1498 800 1498 800 1541 770 c 128,-1,15
 1584 740 1584 740 1614 686 c 1,16,-1
 1338 686 l 1,17,-1
 1338 -18 l 1,18,19
 1204 58 1204 58 1204 152 c 2,20,-1
 1204 686 l 1,21,-1
 1074 686 l 2,22,23
 1024 686 1024 686 990 642 c 128,-1,24
 956 598 956 598 956 534 c 2,25,-1
 956 -18 l 1,26,27
 824 60 824 60 824 152 c 2,28,-1
 824 538 l 2,29,30
 824 584 824 584 737 635 c 128,-1,31
 650 686 650 686 566 686 c 0,32,33
 428 686 428 686 330 586 c 128,-1,34
 232 486 232 486 232 342 c 0,35,36
 232 246 232 246 290 180 c 128,-1,37
 348 114 348 114 432 114 c 0,38,39
 474 114 474 114 506 148 c 128,-1,40
 538 182 538 182 538 228 c 0,41,42
 538 260 538 260 522 282 c 128,-1,43
 506 304 506 304 480 304 c 256,44,45
 454 304 454 304 434 282 c 128,-1,46
 414 260 414 260 414 228 c 2,47,-1
 414 140 l 1,48,49
 364 160 364 160 332 195 c 128,-1,50
 300 230 300 230 300 266 c 0,51,52
 300 330 300 330 351 375 c 128,-1,53
 402 420 402 420 480 420 c 256,54,55
 558 420 558 420 614 364 c 128,-1,56
 670 308 670 308 670 228 c 0,57,58
 670 132 670 132 602 66 c 128,-1,59
 534 0 534 0 432 0 c 0,60,61
 294 0 294 0 197 101 c 128,-1,62
 100 202 100 202 100 342 c 0,63,64
 100 532 100 532 236 666 c 128,-1,65
 372 800 372 800 566 800 c 0,66,67
 668 800 668 800 749 770 c 128,-1,68
 830 740 830 740 876 686 c 1,69,70
 900 740 900 740 951 770 c 128,-1,71
 1002 800 1002 800 1070 800 c 2,72,-1
 1184 800 l 1,73,74
 1100 854 1100 854 1100 1020 c 0,75,76
 1100 1162 1100 1162 1206 1262 c 128,-1,77
 1312 1362 1312 1362 1462 1362 c 0,78,79
 1616 1362 1616 1362 1724 1268 c 128,-1,80
 1832 1174 1832 1174 1832 1038 c 2,81,-1
 1832 -18 l 1,0,1
EndSplineSet
Ligature2: "'psts' Post Base Substitutions lookup 8 subtable" tm_lla tm_ikaar
EndChar

StartChar: tm_lll_ikaar
Encoding: 65560 -1 137
Width: 1682
GlyphClass: 2
Flags: W
LayerCount: 2
Fore
SplineSet
1518 -18 m 1,0,1
 1386 60 1386 60 1386 152 c 2,2,-1
 1386 934 l 2,3,4
 1386 1064 1386 1064 1292 1156 c 128,-1,5
 1198 1248 1198 1248 1062 1248 c 0,6,7
 938 1248 938 1248 852 1182 c 128,-1,8
 766 1116 766 1116 766 1020 c 0,9,10
 766 952 766 952 806 892 c 128,-1,11
 846 832 846 832 918 798 c 1,12,13
 1054 764 1054 764 1139 631 c 128,-1,14
 1224 498 1224 498 1224 324 c 0,15,16
 1224 192 1224 192 1138 96 c 128,-1,17
 1052 0 1052 0 930 0 c 2,18,-1
 738 0 l 1,19,-1
 738 -58 l 2,20,21
 738 -82 738 -82 760 -98 c 128,-1,22
 782 -114 782 -114 814 -114 c 2,23,-1
 1044 -114 l 1,24,25
 978 -228 978 -228 852 -228 c 0,26,27
 822 -228 822 -228 666 -412 c 0,28,29
 534 -572 534 -572 328 -572 c 0,30,31
 206 -572 206 -572 120 -500 c 128,-1,32
 34 -428 34 -428 34 -324 c 0,33,34
 34 -240 34 -240 86 -182 c 128,-1,35
 138 -124 138 -124 214 -124 c 0,36,37
 256 -124 256 -124 285 -155 c 128,-1,38
 314 -186 314 -186 314 -228 c 1,39,40
 306 -226 306 -226 298 -226 c 128,-1,41
 290 -226 290 -226 286 -226 c 0,42,43
 238 -226 238 -226 202 -254 c 128,-1,44
 166 -282 166 -282 166 -324 c 0,45,46
 166 -380 166 -380 213 -419 c 128,-1,47
 260 -458 260 -458 328 -458 c 0,48,49
 474 -458 474 -458 580 -330 c 0,50,51
 600 -306 600 -306 638 -256 c 128,-1,52
 676 -206 676 -206 694 -198 c 1,53,54
 656 -194 656 -194 630 -154 c 128,-1,55
 604 -114 604 -114 604 -58 c 2,56,-1
 604 0 l 1,57,-1
 336 0 l 2,58,59
 258 0 258 0 203 51 c 128,-1,60
 148 102 148 102 148 172 c 2,61,-1
 148 822 l 1,62,63
 208 778 208 778 244 727 c 128,-1,64
 280 676 280 676 280 628 c 2,65,-1
 280 172 l 2,66,67
 280 148 280 148 297 131 c 128,-1,68
 314 114 314 114 338 114 c 2,69,-1
 604 114 l 1,70,-1
 604 610 l 2,71,72
 604 674 604 674 642 722 c 128,-1,73
 680 770 680 770 744 788 c 1,74,75
 634 852 634 852 634 1020 c 0,76,77
 634 1162 634 1162 758 1262 c 128,-1,78
 882 1362 882 1362 1062 1362 c 0,79,80
 1252 1362 1252 1362 1385 1237 c 128,-1,81
 1518 1112 1518 1112 1518 934 c 2,82,-1
 1518 -18 l 1,0,1
1090 324 m 0,83,84
 1090 474 1090 474 1010 580 c 128,-1,85
 930 686 930 686 814 686 c 0,86,87
 782 686 782 686 760 664 c 128,-1,88
 738 642 738 642 738 610 c 2,89,-1
 738 114 l 1,90,-1
 928 114 l 2,91,92
 996 114 996 114 1043 175 c 128,-1,93
 1090 236 1090 236 1090 324 c 0,83,84
EndSplineSet
Ligature2: "'psts' Post Base Substitutions lookup 8 subtable" tm_llla tm_ikaar
EndChar

StartChar: tm_v_ikaar
Encoding: 65561 -1 138
Width: 1922
GlyphClass: 2
Flags: W
LayerCount: 2
Fore
SplineSet
1756 -18 m 1,0,1
 1622 60 1622 60 1622 172 c 2,2,-1
 1622 914 l 2,3,4
 1622 1052 1622 1052 1526 1150 c 128,-1,5
 1430 1248 1430 1248 1290 1248 c 0,6,7
 1168 1248 1168 1248 1081 1165 c 128,-1,8
 994 1082 994 1082 994 962 c 0,9,10
 994 848 994 848 1073 767 c 128,-1,11
 1152 686 1152 686 1260 686 c 2,12,-1
 1300 686 l 1,13,-1
 1300 810 l 1,14,15
 1356 800 1356 800 1394 754 c 128,-1,16
 1432 708 1432 708 1432 648 c 2,17,-1
 1432 190 l 2,18,19
 1432 112 1432 112 1372 56 c 128,-1,20
 1312 0 1312 0 1224 0 c 2,21,-1
 750 0 l 1,22,23
 744 18 744 18 744 34 c 0,24,25
 744 82 744 82 780 118 c 0,26,27
 890 228 890 228 890 400 c 0,28,29
 890 518 890 518 796 602 c 128,-1,30
 702 686 702 686 566 686 c 0,31,32
 428 686 428 686 330 592 c 128,-1,33
 232 498 232 498 232 362 c 0,34,35
 232 260 232 260 297 187 c 128,-1,36
 362 114 362 114 452 114 c 0,37,38
 502 114 502 114 539 147 c 128,-1,39
 576 180 576 180 576 228 c 0,40,41
 576 260 576 260 554 282 c 128,-1,42
 532 304 532 304 500 304 c 0,43,44
 472 304 472 304 452 282 c 128,-1,45
 432 260 432 260 432 228 c 2,46,-1
 432 140 l 1,47,48
 318 184 318 184 318 276 c 0,49,50
 318 340 318 340 370 384 c 128,-1,51
 422 428 422 428 500 428 c 0,52,53
 586 428 586 428 647 369 c 128,-1,54
 708 310 708 310 708 228 c 0,55,56
 708 132 708 132 634 66 c 128,-1,57
 560 0 560 0 452 0 c 0,58,59
 308 0 308 0 204 106 c 128,-1,60
 100 212 100 212 100 362 c 0,61,62
 100 544 100 544 236 672 c 128,-1,63
 372 800 372 800 566 800 c 0,64,65
 756 800 756 800 889 683 c 128,-1,66
 1022 566 1022 566 1022 400 c 0,67,68
 1022 228 1022 228 926 114 c 1,69,-1
 1222 114 l 2,70,71
 1256 114 1256 114 1278 136 c 128,-1,72
 1300 158 1300 158 1300 190 c 2,73,-1
 1300 572 l 1,74,-1
 1260 572 l 2,75,76
 1096 572 1096 572 978 686 c 128,-1,77
 860 800 860 800 860 962 c 0,78,79
 860 1126 860 1126 986 1244 c 128,-1,80
 1112 1362 1112 1362 1290 1362 c 0,81,82
 1484 1362 1484 1362 1620 1232 c 128,-1,83
 1756 1102 1756 1102 1756 914 c 2,84,-1
 1756 -18 l 1,0,1
EndSplineSet
Ligature2: "'psts' Post Base Substitutions lookup 8 subtable" tm_va tm_ikaar
EndChar

StartChar: tm_ss_ikaar
Encoding: 65562 -1 139
Width: 2252
GlyphClass: 2
Flags: W
LayerCount: 2
Fore
SplineSet
2090 -18 m 1,0,1
 1956 58 1956 58 1956 152 c 2,2,-1
 1956 934 l 2,3,4
 1956 1064 1956 1064 1862 1156 c 128,-1,5
 1768 1248 1768 1248 1632 1248 c 0,6,7
 1502 1248 1502 1248 1410 1182 c 128,-1,8
 1318 1116 1318 1116 1318 1020 c 0,9,10
 1318 872 1318 872 1482 778 c 1,11,12
 1566 716 1566 716 1566 610 c 2,13,-1
 1566 502 l 1,14,15
 1692 502 1692 502 1781 419 c 128,-1,16
 1870 336 1870 336 1870 220 c 0,17,18
 1870 128 1870 128 1788 64 c 128,-1,19
 1706 0 1706 0 1586 0 c 2,20,-1
 1566 0 l 1,21,-1
 1566 -400 l 1,22,23
 1432 -322 1432 -322 1432 -210 c 2,24,-1
 1432 0 l 1,25,-1
 774 0 l 1,26,27
 756 16 756 16 756 42 c 0,28,29
 756 86 756 86 790 126 c 0,30,31
 900 258 900 258 900 400 c 0,32,33
 900 522 900 522 803 609 c 128,-1,34
 706 696 706 696 566 696 c 0,35,36
 428 696 428 696 330 598 c 128,-1,37
 232 500 232 500 232 362 c 0,38,39
 232 260 232 260 293 187 c 128,-1,40
 354 114 354 114 442 114 c 0,41,42
 488 114 488 114 522 148 c 128,-1,43
 556 182 556 182 556 228 c 0,44,45
 556 260 556 260 534 282 c 128,-1,46
 512 304 512 304 480 304 c 0,47,48
 454 304 454 304 434 282 c 128,-1,49
 414 260 414 260 414 228 c 2,50,-1
 414 138 l 1,51,52
 320 180 320 180 320 286 c 0,53,54
 320 342 320 342 367 381 c 128,-1,55
 414 420 414 420 480 420 c 0,56,57
 566 420 566 420 628 364 c 128,-1,58
 690 308 690 308 690 228 c 0,59,60
 690 132 690 132 618 66 c 128,-1,61
 546 0 546 0 442 0 c 0,62,63
 300 0 300 0 200 106 c 128,-1,64
 100 212 100 212 100 362 c 0,65,66
 100 548 100 548 237 679 c 128,-1,67
 374 810 374 810 566 810 c 0,68,69
 760 810 760 810 896 690 c 128,-1,70
 1032 570 1032 570 1032 400 c 0,71,72
 1032 254 1032 254 934 114 c 1,73,-1
 1432 114 l 1,74,-1
 1432 380 l 1,75,-1
 1354 380 l 2,76,77
 1254 380 1254 380 1182 444 c 128,-1,78
 1110 508 1110 508 1110 600 c 0,79,80
 1110 674 1110 674 1167 729 c 128,-1,81
 1224 784 1224 784 1306 792 c 1,82,83
 1186 864 1186 864 1186 1020 c 0,84,85
 1186 1162 1186 1162 1316 1262 c 128,-1,86
 1446 1362 1446 1362 1632 1362 c 0,87,88
 1822 1362 1822 1362 1956 1238 c 128,-1,89
 2090 1114 2090 1114 2090 934 c 2,90,-1
 2090 -18 l 1,0,1
1432 504 m 1,91,-1
 1432 610 l 2,92,93
 1432 642 1432 642 1408 664 c 128,-1,94
 1384 686 1384 686 1348 686 c 0,95,96
 1304 686 1304 686 1273 661 c 128,-1,97
 1242 636 1242 636 1242 600 c 0,98,99
 1242 558 1242 558 1273 531 c 128,-1,100
 1304 504 1304 504 1348 504 c 2,101,-1
 1432 504 l 1,91,-1
1738 220 m 0,102,103
 1738 286 1738 286 1687 333 c 128,-1,104
 1636 380 1636 380 1566 380 c 1,105,-1
 1566 114 l 1,106,-1
 1586 114 l 2,107,108
 1652 114 1652 114 1695 144 c 128,-1,109
 1738 174 1738 174 1738 220 c 0,102,103
EndSplineSet
Ligature2: "'psts' Post Base Substitutions lookup 8 subtable" tm_ssa tm_ikaar
EndChar

StartChar: tm_s_ikaar
Encoding: 65563 -1 140
Width: 2352
GlyphClass: 2
Flags: W
LayerCount: 2
Fore
SplineSet
2190 -18 m 1,0,1
 2056 58 2056 58 2056 152 c 2,2,-1
 2056 934 l 2,3,4
 2056 1064 2056 1064 1964 1156 c 128,-1,5
 1872 1248 1872 1248 1742 1248 c 0,6,7
 1638 1248 1638 1248 1566 1195 c 128,-1,8
 1494 1142 1494 1142 1494 1066 c 0,9,10
 1494 896 1494 896 1668 796 c 1,11,12
 1752 726 1752 726 1799 627 c 128,-1,13
 1846 528 1846 528 1846 420 c 0,14,15
 1846 240 1846 240 1750 115 c 128,-1,16
 1654 -10 1654 -10 1514 -10 c 0,17,18
 1408 -10 1408 -10 1332 66 c 128,-1,19
 1256 142 1256 142 1256 248 c 2,20,-1
 1256 476 l 2,21,22
 1256 564 1256 564 1209 625 c 128,-1,23
 1162 686 1162 686 1094 686 c 0,24,25
 1034 686 1034 686 993 647 c 128,-1,26
 952 608 952 608 952 552 c 2,27,-1
 952 -18 l 1,28,29
 818 60 818 60 818 172 c 2,30,-1
 818 528 l 1,31,32
 796 604 796 604 724 650 c 128,-1,33
 652 696 652 696 552 696 c 0,34,35
 422 696 422 696 329 599 c 128,-1,36
 236 502 236 502 236 362 c 0,37,38
 236 256 236 256 294 180 c 128,-1,39
 352 104 352 104 436 104 c 0,40,41
 490 104 490 104 530 140 c 128,-1,42
 570 176 570 176 570 228 c 0,43,44
 570 268 570 268 546 296 c 128,-1,45
 522 324 522 324 484 324 c 0,46,47
 456 324 456 324 437 293 c 128,-1,48
 418 262 418 262 418 218 c 2,49,-1
 418 130 l 1,50,51
 314 170 314 170 314 266 c 0,52,53
 314 336 314 336 364 388 c 128,-1,54
 414 440 414 440 484 440 c 0,55,56
 576 440 576 440 640 378 c 128,-1,57
 704 316 704 316 704 228 c 0,58,59
 704 130 704 130 626 60 c 128,-1,60
 548 -10 548 -10 436 -10 c 0,61,62
 298 -10 298 -10 201 99 c 128,-1,63
 104 208 104 208 104 362 c 0,64,65
 104 548 104 548 235 679 c 128,-1,66
 366 810 366 810 552 810 c 0,67,68
 652 810 652 810 733 778 c 128,-1,69
 814 746 814 746 864 686 c 1,70,71
 930 800 930 800 1094 800 c 0,72,73
 1218 800 1218 800 1304 706 c 128,-1,74
 1390 612 1390 612 1390 476 c 2,75,-1
 1390 248 l 2,76,77
 1390 188 1390 188 1426 146 c 128,-1,78
 1462 104 1462 104 1514 104 c 0,79,80
 1598 104 1598 104 1656 196 c 128,-1,81
 1714 288 1714 288 1714 420 c 0,82,83
 1714 514 1714 514 1666 600 c 128,-1,84
 1618 686 1618 686 1535 743 c 128,-1,85
 1452 800 1452 800 1406 886 c 128,-1,86
 1360 972 1360 972 1360 1066 c 0,87,88
 1360 1190 1360 1190 1472 1276 c 128,-1,89
 1584 1362 1584 1362 1742 1362 c 0,90,91
 1928 1362 1928 1362 2059 1237 c 128,-1,92
 2190 1112 2190 1112 2190 934 c 2,93,-1
 2190 -18 l 1,0,1
EndSplineSet
Ligature2: "'psts' Post Base Substitutions lookup 8 subtable" tm_sa tm_ikaar
EndChar

StartChar: tm_h_ikaar
Encoding: 65564 -1 141
Width: 2570
GlyphClass: 2
Flags: W
LayerCount: 2
Fore
SplineSet
2408 -20 m 1,0,1
 2276 60 2276 60 2276 152 c 2,2,-1
 2276 934 l 2,3,4
 2276 1066 2276 1066 2189 1157 c 128,-1,5
 2102 1248 2102 1248 1978 1248 c 0,6,7
 1864 1248 1864 1248 1785 1181 c 128,-1,8
 1706 1114 1706 1114 1706 1020 c 0,9,10
 1706 940 1706 940 1742 882 c 128,-1,11
 1778 824 1778 824 1844 798 c 0,12,13
 1970 750 1970 750 2047 625 c 128,-1,14
 2124 500 2124 500 2124 342 c 0,15,16
 2124 114 2124 114 1992 -48 c 128,-1,17
 1860 -210 1860 -210 1672 -210 c 2,18,-1
 322 -210 l 2,19,20
 282 -210 282 -210 254 -232 c 128,-1,21
 226 -254 226 -254 226 -286 c 2,22,-1
 226 -472 l 1,23,24
 164 -450 164 -450 129 -400 c 128,-1,25
 94 -350 94 -350 94 -286 c 0,26,27
 94 -208 94 -208 160 -152 c 128,-1,28
 226 -96 226 -96 320 -96 c 2,29,-1
 1668 -96 l 2,30,31
 1800 -96 1800 -96 1896 33 c 128,-1,32
 1992 162 1992 162 1992 342 c 0,33,34
 1992 486 1992 486 1918 586 c 128,-1,35
 1844 686 1844 686 1738 686 c 0,36,37
 1682 686 1682 686 1641 652 c 128,-1,38
 1600 618 1600 618 1600 572 c 2,39,-1
 1600 -20 l 1,40,41
 1470 64 1470 64 1470 152 c 2,42,-1
 1470 572 l 2,43,44
 1470 618 1470 618 1440 652 c 128,-1,45
 1410 686 1410 686 1366 686 c 256,46,47
 1322 686 1322 686 1292 648 c 128,-1,48
 1262 610 1262 610 1262 552 c 2,49,-1
 1262 174 l 2,50,51
 1262 102 1262 102 1209 51 c 128,-1,52
 1156 0 1156 0 1080 0 c 2,53,-1
 752 0 l 1,54,55
 730 20 730 20 730 54 c 0,56,57
 730 84 730 84 746 106 c 0,58,59
 850 266 850 266 850 400 c 0,60,61
 850 524 850 524 758 610 c 128,-1,62
 666 696 666 696 532 696 c 0,63,64
 408 696 408 696 321 595 c 128,-1,65
 234 494 234 494 234 352 c 0,66,67
 234 252 234 252 285 183 c 128,-1,68
 336 114 336 114 410 114 c 0,69,70
 464 114 464 114 501 145 c 128,-1,71
 538 176 538 176 538 220 c 0,72,73
 538 256 538 256 516 280 c 128,-1,74
 494 304 494 304 462 304 c 0,75,76
 434 304 434 304 414 280 c 128,-1,77
 394 256 394 256 394 220 c 2,78,-1
 394 132 l 1,79,80
 290 200 290 200 290 266 c 256,81,82
 290 332 290 332 340 376 c 128,-1,83
 390 420 390 420 462 420 c 0,84,85
 548 420 548 420 608 362 c 128,-1,86
 668 304 668 304 668 220 c 0,87,88
 668 130 668 130 593 65 c 128,-1,89
 518 0 518 0 410 0 c 0,90,91
 282 0 282 0 193 103 c 128,-1,92
 104 206 104 206 104 352 c 0,93,94
 104 542 104 542 228 676 c 128,-1,95
 352 810 352 810 532 810 c 0,96,97
 718 810 718 810 848 690 c 128,-1,98
 978 570 978 570 978 400 c 0,99,100
 978 238 978 238 896 114 c 1,101,-1
 1078 114 l 2,102,103
 1100 114 1100 114 1116 131 c 128,-1,104
 1132 148 1132 148 1132 174 c 2,105,-1
 1132 552 l 2,106,107
 1132 654 1132 654 1201 727 c 128,-1,108
 1270 800 1270 800 1366 800 c 0,109,110
 1490 800 1490 800 1544 716 c 1,111,112
 1564 750 1564 750 1599 771 c 128,-1,113
 1634 792 1634 792 1676 792 c 1,114,115
 1574 866 1574 866 1574 1020 c 0,116,117
 1574 1162 1574 1162 1692 1262 c 128,-1,118
 1810 1362 1810 1362 1978 1362 c 0,119,120
 2156 1362 2156 1362 2282 1238 c 128,-1,121
 2408 1114 2408 1114 2408 934 c 2,122,-1
 2408 -20 l 1,0,1
EndSplineSet
Ligature2: "'psts' Post Base Substitutions lookup 8 subtable" tm_ha tm_ikaar
EndChar

StartChar: tm_k_iikaar
Encoding: 65565 -1 142
Width: 1246
GlyphClass: 2
Flags: W
LayerCount: 2
Fore
SplineSet
1256 1134 m 0,0,1
 1256 1040 1256 1040 1184 972 c 128,-1,2
 1112 904 1112 904 1010 904 c 0,3,4
 920 904 920 904 856 962 c 128,-1,5
 792 1020 792 1020 792 1104 c 0,6,7
 792 1150 792 1150 838 1182 c 128,-1,8
 884 1214 884 1214 954 1214 c 0,9,10
 966 1214 966 1214 994 1210 c 1,11,12
 904 1142 904 1142 904 1104 c 0,13,14
 904 1068 904 1068 934 1044 c 128,-1,15
 964 1020 964 1020 1010 1020 c 256,16,17
 1056 1020 1056 1020 1090 1054 c 128,-1,18
 1124 1088 1124 1088 1124 1134 c 0,19,20
 1124 1186 1124 1186 1066 1222 c 128,-1,21
 1008 1258 1008 1258 924 1258 c 0,22,23
 818 1258 818 1258 742 1192 c 128,-1,24
 666 1126 666 1126 666 1028 c 0,25,26
 666 964 666 964 706 903 c 128,-1,27
 746 842 746 842 816 800 c 1,28,-1
 848 800 l 2,29,30
 888 800 888 800 929 769 c 128,-1,31
 970 738 970 738 1000 686 c 1,32,-1
 772 686 l 1,33,-1
 772 474 l 1,34,-1
 914 474 l 2,35,36
 1022 474 1022 474 1097 414 c 128,-1,37
 1172 354 1172 354 1172 266 c 0,38,39
 1172 156 1172 156 1106 78 c 128,-1,40
 1040 0 1040 0 944 0 c 2,41,-1
 772 0 l 1,42,43
 830 98 830 98 920 114 c 0,44,45
 970 122 970 122 1004 166 c 128,-1,46
 1038 210 1038 210 1038 266 c 0,47,48
 1038 304 1038 304 1001 332 c 128,-1,49
 964 360 964 360 912 360 c 2,50,-1
 772 360 l 1,51,-1
 772 266 l 2,52,53
 772 156 772 156 672 78 c 128,-1,54
 572 0 572 0 428 0 c 0,55,56
 278 0 278 0 172 78 c 128,-1,57
 66 156 66 156 66 266 c 0,58,59
 66 352 66 352 138 412 c 128,-1,60
 210 472 210 472 314 472 c 1,61,-1
 314 666 l 2,62,63
 314 720 314 720 358 760 c 128,-1,64
 402 800 402 800 466 800 c 2,65,-1
 630 800 l 1,66,67
 534 880 534 880 534 1028 c 0,68,69
 534 1170 534 1170 647 1271 c 128,-1,70
 760 1372 760 1372 924 1372 c 0,71,72
 1064 1372 1064 1372 1160 1303 c 128,-1,73
 1256 1234 1256 1234 1256 1134 c 0,0,1
638 266 m 2,74,-1
 638 686 l 1,75,-1
 508 686 l 2,76,77
 482 686 482 686 465 669 c 128,-1,78
 448 652 448 652 448 626 c 2,79,-1
 448 474 l 1,80,-1
 616 474 l 1,81,82
 550 360 550 360 438 360 c 2,83,-1
 354 360 l 2,84,85
 286 360 286 360 243 334 c 128,-1,86
 200 308 200 308 200 266 c 0,87,88
 200 202 200 202 266 158 c 128,-1,89
 332 114 332 114 428 114 c 0,90,91
 514 114 514 114 576 158 c 128,-1,92
 638 202 638 202 638 266 c 2,74,-1
EndSplineSet
Ligature2: "'abvs' Above Base Substitutions lookup 6 subtable" tm_ka tm_iikaar
EndChar

StartChar: tm_ng_iikaar
Encoding: 65566 -1 143
Width: 1540
GlyphClass: 2
Flags: W
LayerCount: 2
Fore
SplineSet
1570 1124 m 0,0,1
 1570 1030 1570 1030 1495 963 c 128,-1,2
 1420 896 1420 896 1312 896 c 0,3,4
 1220 896 1220 896 1157 944 c 128,-1,5
 1094 992 1094 992 1094 1064 c 0,6,7
 1094 1124 1094 1124 1140 1162 c 128,-1,8
 1186 1200 1186 1200 1254 1200 c 0,9,10
 1264 1200 1264 1200 1288 1196 c 1,11,12
 1218 1158 1218 1158 1218 1104 c 0,13,14
 1218 1064 1218 1064 1245 1037 c 128,-1,15
 1272 1010 1272 1010 1312 1010 c 0,16,17
 1362 1010 1362 1010 1399 1043 c 128,-1,18
 1436 1076 1436 1076 1436 1124 c 0,19,20
 1436 1178 1436 1178 1380 1218 c 128,-1,21
 1324 1258 1324 1258 1246 1258 c 0,22,23
 1124 1258 1124 1258 1038 1174 c 128,-1,24
 952 1090 952 1090 952 972 c 256,25,26
 952 854 952 854 1034 770 c 128,-1,27
 1116 686 1116 686 1232 686 c 0,28,29
 1248 688 1248 688 1256 688 c 1,30,-1
 1256 824 l 1,31,32
 1390 732 1390 732 1390 610 c 2,33,-1
 1390 172 l 2,34,35
 1390 102 1390 102 1335 51 c 128,-1,36
 1280 0 1280 0 1200 0 c 2,37,-1
 478 0 l 1,38,39
 554 114 554 114 662 114 c 2,40,-1
 756 114 l 1,41,42
 830 122 830 122 880 176 c 128,-1,43
 930 230 930 230 930 304 c 0,44,45
 930 370 930 370 886 414 c 128,-1,46
 842 458 842 458 776 458 c 0,47,48
 682 458 682 458 644 402 c 1,49,-1
 644 178 l 1,50,51
 584 198 584 198 547 255 c 128,-1,52
 510 312 510 312 510 382 c 2,53,-1
 510 686 l 1,54,-1
 322 686 l 1,55,56
 282 682 282 682 282 638 c 2,57,-1
 282 -18 l 1,58,59
 148 60 148 60 148 172 c 2,60,-1
 148 638 l 2,61,62
 148 706 148 706 199 753 c 128,-1,63
 250 800 250 800 320 800 c 2,64,-1
 682 800 l 2,65,66
 728 800 728 800 771 770 c 128,-1,67
 814 740 814 740 844 686 c 1,68,-1
 644 686 l 1,69,-1
 644 538 l 1,70,71
 694 572 694 572 776 572 c 0,72,73
 894 572 894 572 978 494 c 128,-1,74
 1062 416 1062 416 1062 304 c 0,75,76
 1062 180 1062 180 984 114 c 1,77,-1
 1198 114 l 2,78,79
 1222 114 1222 114 1239 131 c 128,-1,80
 1256 148 1256 148 1256 172 c 2,81,-1
 1256 574 l 1,82,83
 1244 572 1244 572 1220 572 c 0,84,85
 1054 572 1054 572 936 688 c 128,-1,86
 818 804 818 804 818 972 c 0,87,88
 818 1138 818 1138 943 1255 c 128,-1,89
 1068 1372 1068 1372 1246 1372 c 0,90,91
 1380 1372 1380 1372 1475 1299 c 128,-1,92
 1570 1226 1570 1226 1570 1124 c 0,0,1
EndSplineSet
Ligature2: "'abvs' Above Base Substitutions lookup 6 subtable" tm_nga tm_iikaar
EndChar

StartChar: tm_c_iikaar
Encoding: 65567 -1 144
Width: 1004
GlyphClass: 2
Flags: W
LayerCount: 2
Fore
SplineSet
1194 1134 m 0,0,1
 1194 1038 1194 1038 1119 971 c 128,-1,2
 1044 904 1044 904 938 904 c 0,3,4
 854 904 854 904 792 956 c 128,-1,5
 730 1008 730 1008 730 1084 c 0,6,7
 730 1138 730 1138 778 1176 c 128,-1,8
 826 1214 826 1214 896 1214 c 0,9,10
 908 1214 908 1214 932 1210 c 1,11,12
 892 1200 892 1200 867 1171 c 128,-1,13
 842 1142 842 1142 842 1104 c 0,14,15
 842 1068 842 1068 870 1044 c 128,-1,16
 898 1020 898 1020 938 1020 c 0,17,18
 988 1020 988 1020 1025 1053 c 128,-1,19
 1062 1086 1062 1086 1062 1134 c 0,20,21
 1062 1186 1062 1186 1004 1222 c 128,-1,22
 946 1258 946 1258 862 1258 c 0,23,24
 756 1258 756 1258 680 1192 c 128,-1,25
 604 1126 604 1126 604 1028 c 0,26,27
 604 964 604 964 644 903 c 128,-1,28
 684 842 684 842 754 800 c 1,29,-1
 842 800 l 2,30,31
 918 800 918 800 984 686 c 1,32,-1
 748 686 l 1,33,-1
 748 474 l 1,34,-1
 824 474 l 2,35,36
 870 474 870 474 913 444 c 128,-1,37
 956 414 956 414 986 360 c 1,38,-1
 748 360 l 1,39,-1
 748 286 l 2,40,41
 748 162 748 162 648 76 c 128,-1,42
 548 -10 548 -10 404 -10 c 0,43,44
 266 -10 266 -10 168 68 c 128,-1,45
 70 146 70 146 70 258 c 0,46,47
 70 344 70 344 133 407 c 128,-1,48
 196 470 196 470 290 470 c 1,49,-1
 290 638 l 2,50,51
 290 704 290 704 342 752 c 128,-1,52
 394 800 394 800 470 800 c 2,53,-1
 568 800 l 1,54,55
 470 882 470 882 470 1028 c 0,56,57
 470 1172 470 1172 584 1272 c 128,-1,58
 698 1372 698 1372 862 1372 c 0,59,60
 1002 1372 1002 1372 1098 1303 c 128,-1,61
 1194 1234 1194 1234 1194 1134 c 0,0,1
614 286 m 2,62,-1
 614 686 l 1,63,-1
 474 686 l 2,64,65
 452 686 452 686 438 670 c 128,-1,66
 424 654 424 654 424 628 c 2,67,-1
 424 474 l 1,68,-1
 604 474 l 1,69,70
 574 420 574 420 526 390 c 128,-1,71
 478 360 478 360 422 360 c 2,72,-1
 320 360 l 2,73,74
 272 360 272 360 238 330 c 128,-1,75
 204 300 204 300 204 258 c 0,76,77
 204 192 204 192 262 148 c 128,-1,78
 320 104 320 104 404 104 c 0,79,80
 492 104 492 104 553 157 c 128,-1,81
 614 210 614 210 614 286 c 2,62,-1
EndSplineSet
Ligature2: "'abvs' Above Base Substitutions lookup 6 subtable" tm_ca tm_iikaar
EndChar

StartChar: tm_j_iikaar
Encoding: 65568 -1 145
Width: 1500
GlyphClass: 2
Flags: W
LayerCount: 2
Fore
SplineSet
1572 1134 m 0,0,1
 1572 1038 1572 1038 1499 971 c 128,-1,2
 1426 904 1426 904 1324 904 c 0,3,4
 1226 904 1226 904 1156 956 c 128,-1,5
 1086 1008 1086 1008 1086 1084 c 0,6,7
 1086 1142 1086 1142 1138 1178 c 128,-1,8
 1190 1214 1190 1214 1266 1214 c 0,9,10
 1280 1214 1280 1214 1308 1210 c 1,11,12
 1220 1182 1220 1182 1220 1104 c 0,13,14
 1220 1068 1220 1068 1250 1044 c 128,-1,15
 1280 1020 1280 1020 1324 1020 c 0,16,17
 1370 1020 1370 1020 1404 1054 c 128,-1,18
 1438 1088 1438 1088 1438 1134 c 0,19,20
 1438 1186 1438 1186 1380 1222 c 128,-1,21
 1322 1258 1322 1258 1238 1258 c 0,22,23
 1130 1258 1130 1258 1056 1192 c 128,-1,24
 982 1126 982 1126 982 1028 c 0,25,26
 982 878 982 878 1124 798 c 1,27,28
 1246 766 1246 766 1323 661 c 128,-1,29
 1400 556 1400 556 1400 420 c 0,30,31
 1400 248 1400 248 1278 124 c 128,-1,32
 1156 0 1156 0 984 0 c 2,33,-1
 394 0 l 2,34,35
 306 0 306 0 244 -66 c 128,-1,36
 182 -132 182 -132 182 -228 c 256,37,38
 182 -324 182 -324 249 -391 c 128,-1,39
 316 -458 316 -458 410 -458 c 0,40,41
 558 -458 558 -458 760 -290 c 0,42,43
 1002 -86 1002 -86 1154 -86 c 0,44,45
 1266 -86 1266 -86 1343 -155 c 128,-1,46
 1420 -224 1420 -224 1420 -324 c 0,47,48
 1420 -426 1420 -426 1353 -499 c 128,-1,49
 1286 -572 1286 -572 1192 -572 c 0,50,51
 1100 -572 1100 -572 1036 -522 c 128,-1,52
 972 -472 972 -472 972 -400 c 0,53,54
 972 -360 972 -360 1004 -320 c 128,-1,55
 1036 -280 1036 -280 1096 -252 c 1,56,-1
 1096 -370 l 2,57,58
 1096 -408 1096 -408 1123 -433 c 128,-1,59
 1150 -458 1150 -458 1192 -458 c 0,60,61
 1232 -458 1232 -458 1259 -419 c 128,-1,62
 1286 -380 1286 -380 1286 -324 c 0,63,64
 1286 -272 1286 -272 1248 -236 c 128,-1,65
 1210 -200 1210 -200 1154 -200 c 0,66,67
 1052 -200 1052 -200 842 -376 c 0,68,69
 606 -572 606 -572 410 -572 c 0,70,71
 260 -572 260 -572 154 -472 c 128,-1,72
 48 -372 48 -372 48 -228 c 0,73,74
 48 -86 48 -86 148 14 c 128,-1,75
 248 114 248 114 392 114 c 2,76,-1
 982 114 l 2,77,78
 1102 114 1102 114 1185 203 c 128,-1,79
 1268 292 1268 292 1268 420 c 0,80,81
 1268 530 1268 530 1202 608 c 128,-1,82
 1136 686 1136 686 1038 686 c 0,83,84
 952 686 952 686 895 640 c 128,-1,85
 838 594 838 594 838 524 c 2,86,-1
 838 172 l 1,87,88
 706 250 706 250 706 362 c 2,89,-1
 706 476 l 2,90,91
 706 568 706 568 638 632 c 128,-1,92
 570 696 570 696 468 696 c 256,93,94
 366 696 366 696 293 637 c 128,-1,95
 220 578 220 578 220 496 c 256,96,97
 220 414 220 414 266 359 c 128,-1,98
 312 304 312 304 382 304 c 0,99,100
 426 304 426 304 456 338 c 128,-1,101
 486 372 486 372 486 420 c 0,102,103
 486 452 486 452 468 474 c 128,-1,104
 450 496 450 496 420 496 c 0,105,106
 394 496 394 496 374 476 c 128,-1,107
 354 456 354 456 354 428 c 2,108,-1
 354 344 l 1,109,110
 316 358 316 358 292 387 c 128,-1,111
 268 416 268 416 268 448 c 0,112,113
 262 514 262 514 312 562 c 128,-1,114
 362 610 362 610 440 610 c 0,115,116
 514 610 514 610 567 555 c 128,-1,117
 620 500 620 500 620 420 c 0,118,119
 620 324 620 324 551 257 c 128,-1,120
 482 190 482 190 382 190 c 0,121,122
 260 190 260 190 173 279 c 128,-1,123
 86 368 86 368 86 496 c 0,124,125
 86 626 86 626 198 718 c 128,-1,126
 310 810 310 810 468 810 c 0,127,128
 564 810 564 810 641 776 c 128,-1,129
 718 742 718 742 762 678 c 1,130,131
 818 780 818 780 970 792 c 1,132,133
 848 878 848 878 848 1028 c 0,134,135
 848 1170 848 1170 961 1271 c 128,-1,136
 1074 1372 1074 1372 1238 1372 c 0,137,138
 1378 1372 1378 1372 1475 1303 c 128,-1,139
 1572 1234 1572 1234 1572 1134 c 0,0,1
EndSplineSet
Ligature2: "'abvs' Above Base Substitutions lookup 6 subtable" tm_ja tm_iikaar
EndChar

StartChar: tm_ny_iikaar
Encoding: 65569 -1 146
Width: 1910
GlyphClass: 2
Flags: W
LayerCount: 2
Fore
SplineSet
1834 172 m 0,0,1
 1834 -136 1834 -136 1589 -354 c 128,-1,2
 1344 -572 1344 -572 996 -572 c 0,3,4
 804 -572 804 -572 642 -512 c 128,-1,5
 480 -452 480 -452 367 -339 c 128,-1,6
 254 -226 254 -226 192 -62 c 128,-1,7
 130 102 130 102 130 286 c 0,8,9
 130 566 130 566 316 828 c 1,10,11
 346 744 346 744 346 682 c 0,12,13
 346 650 346 650 338 632 c 0,14,15
 264 422 264 422 264 286 c 0,16,17
 264 -54 264 -54 464 -254 c 0,18,19
 560 -350 560 -350 700 -404 c 128,-1,20
 840 -458 840 -458 996 -458 c 0,21,22
 1290 -458 1290 -458 1496 -274 c 128,-1,23
 1702 -90 1702 -90 1702 172 c 0,24,25
 1702 256 1702 256 1646 314 c 128,-1,26
 1590 372 1590 372 1510 372 c 0,27,28
 1378 372 1378 372 1320 270 c 1,29,-1
 1320 -18 l 1,30,31
 1186 60 1186 60 1186 172 c 2,32,-1
 1186 686 l 1,33,-1
 846 686 l 2,34,35
 722 686 722 686 635 591 c 128,-1,36
 548 496 548 496 548 362 c 0,37,38
 548 260 548 260 605 187 c 128,-1,39
 662 114 662 114 740 114 c 0,40,41
 786 114 786 114 820 148 c 128,-1,42
 854 182 854 182 854 228 c 0,43,44
 854 260 854 260 832 282 c 128,-1,45
 810 304 810 304 778 304 c 0,46,47
 750 304 750 304 730 282 c 128,-1,48
 710 260 710 260 710 230 c 2,49,-1
 710 142 l 1,50,51
 616 210 616 210 616 278 c 0,52,53
 616 338 616 338 663 379 c 128,-1,54
 710 420 710 420 778 420 c 0,55,56
 862 420 862 420 924 364 c 128,-1,57
 986 308 986 308 986 228 c 0,58,59
 986 134 986 134 915 67 c 128,-1,60
 844 0 844 0 740 0 c 0,61,62
 608 0 608 0 512 106 c 128,-1,63
 416 212 416 212 416 362 c 0,64,65
 416 544 416 544 540 672 c 128,-1,66
 664 800 664 800 844 800 c 2,67,-1
 1142 800 l 1,68,69
 1044 882 1044 882 1044 1028 c 0,70,71
 1044 1170 1044 1170 1157 1271 c 128,-1,72
 1270 1372 1270 1372 1434 1372 c 0,73,74
 1574 1372 1574 1372 1671 1303 c 128,-1,75
 1768 1234 1768 1234 1768 1134 c 0,76,77
 1768 1040 1768 1040 1692 972 c 128,-1,78
 1616 904 1616 904 1510 904 c 0,79,80
 1426 904 1426 904 1364 956 c 128,-1,81
 1302 1008 1302 1008 1302 1084 c 0,82,83
 1302 1138 1302 1138 1350 1176 c 128,-1,84
 1398 1214 1398 1214 1468 1214 c 0,85,86
 1480 1214 1480 1214 1504 1210 c 1,87,88
 1416 1182 1416 1182 1416 1104 c 0,89,90
 1416 1068 1416 1068 1442 1044 c 128,-1,91
 1468 1020 1468 1020 1510 1020 c 0,92,93
 1560 1020 1560 1020 1597 1053 c 128,-1,94
 1634 1086 1634 1086 1634 1134 c 0,95,96
 1634 1186 1634 1186 1576 1222 c 128,-1,97
 1518 1258 1518 1258 1434 1258 c 0,98,99
 1326 1258 1326 1258 1252 1192 c 128,-1,100
 1178 1126 1178 1126 1178 1028 c 0,101,102
 1178 954 1178 954 1220 894 c 128,-1,103
 1262 834 1262 834 1336 800 c 1,104,-1
 1454 800 l 2,105,106
 1494 800 1494 800 1535 769 c 128,-1,107
 1576 738 1576 738 1606 686 c 1,108,-1
 1320 686 l 1,109,-1
 1320 410 l 1,110,111
 1400 486 1400 486 1510 486 c 0,112,113
 1642 486 1642 486 1738 394 c 128,-1,114
 1834 302 1834 302 1834 172 c 0,0,1
EndSplineSet
Ligature2: "'abvs' Above Base Substitutions lookup 6 subtable" tm_nya tm_iikaar
EndChar

StartChar: tm_tt_iikaar
Encoding: 65570 -1 147
Width: 1318
GlyphClass: 2
Flags: W
LayerCount: 2
Fore
SplineSet
1304 0 m 1,0,-1
 358 0 l 2,1,2
 274 0 274 0 212 56 c 128,-1,3
 150 112 150 112 150 190 c 2,4,-1
 150 818 l 1,5,6
 284 740 284 740 284 628 c 2,7,-1
 284 190 l 2,8,9
 284 158 284 158 306 136 c 128,-1,10
 328 114 328 114 360 114 c 2,11,-1
 538 114 l 1,12,13
 494 142 494 142 470 197 c 128,-1,14
 446 252 446 252 446 324 c 0,15,16
 446 456 446 456 555 552 c 128,-1,17
 664 648 664 648 816 648 c 0,18,19
 928 648 928 648 1006 584 c 128,-1,20
 1084 520 1084 520 1084 428 c 0,21,22
 1084 344 1084 344 1024 286 c 128,-1,23
 964 228 964 228 874 228 c 0,24,25
 798 228 798 228 746 272 c 128,-1,26
 694 316 694 316 694 380 c 0,27,28
 694 464 694 464 798 512 c 1,29,-1
 798 400 l 2,30,31
 798 378 798 378 821 360 c 128,-1,32
 844 342 844 342 874 342 c 0,33,34
 906 342 906 342 928 366 c 128,-1,35
 950 390 950 390 950 428 c 0,36,37
 950 472 950 472 911 503 c 128,-1,38
 872 534 872 534 816 534 c 0,39,40
 716 534 716 534 647 473 c 128,-1,41
 578 412 578 412 578 324 c 0,42,43
 578 260 578 260 620 204 c 128,-1,44
 662 148 662 148 736 114 c 1,45,-1
 1112 114 l 2,46,47
 1172 114 1172 114 1223 84 c 128,-1,48
 1274 54 1274 54 1304 0 c 1,0,-1
EndSplineSet
Ligature2: "'abvs' Above Base Substitutions lookup 5 subtable" tm_tta tm_iikaar
EndChar

StartChar: tm_nn_iikaar
Encoding: 65571 -1 148
Width: 2226
GlyphClass: 2
Flags: W
LayerCount: 2
Fore
SplineSet
2492 1134 m 0,0,1
 2492 1040 2492 1040 2416 972 c 128,-1,2
 2340 904 2340 904 2234 904 c 0,3,4
 2138 904 2138 904 2072 950 c 128,-1,5
 2006 996 2006 996 2006 1064 c 0,6,7
 2006 1128 2006 1128 2059 1171 c 128,-1,8
 2112 1214 2112 1214 2188 1214 c 0,9,10
 2200 1214 2200 1214 2228 1210 c 1,11,12
 2192 1210 2192 1210 2165 1179 c 128,-1,13
 2138 1148 2138 1148 2138 1104 c 0,14,15
 2138 1068 2138 1068 2166 1044 c 128,-1,16
 2194 1020 2194 1020 2234 1020 c 0,17,18
 2284 1020 2284 1020 2321 1053 c 128,-1,19
 2358 1086 2358 1086 2358 1134 c 0,20,21
 2358 1186 2358 1186 2300 1222 c 128,-1,22
 2242 1258 2242 1258 2158 1258 c 0,23,24
 2052 1258 2052 1258 1976 1192 c 128,-1,25
 1900 1126 1900 1126 1900 1028 c 0,26,27
 1900 960 1900 960 1946 898 c 128,-1,28
 1992 836 1992 836 2068 800 c 1,29,-1
 2158 800 l 2,30,31
 2208 800 2208 800 2254 770 c 128,-1,32
 2300 740 2300 740 2330 686 c 1,33,-1
 2062 686 l 1,34,-1
 2062 -18 l 1,35,36
 1930 60 1930 60 1930 152 c 2,37,-1
 1930 686 l 1,38,-1
 1834 686 l 2,39,40
 1690 686 1690 686 1614 632 c 1,41,42
 1738 484 1738 484 1738 304 c 0,43,44
 1738 178 1738 178 1671 89 c 128,-1,45
 1604 0 1604 0 1510 0 c 0,46,47
 1414 0 1414 0 1348 78 c 128,-1,48
 1282 156 1282 156 1282 266 c 0,49,50
 1282 372 1282 372 1344 451 c 128,-1,51
 1406 530 1406 530 1504 546 c 1,52,53
 1414 440 1414 440 1414 266 c 0,54,55
 1414 202 1414 202 1442 158 c 128,-1,56
 1470 114 1470 114 1510 114 c 256,57,58
 1550 114 1550 114 1578 170 c 128,-1,59
 1606 226 1606 226 1606 304 c 0,60,61
 1606 480 1606 480 1498 583 c 128,-1,62
 1390 686 1390 686 1214 686 c 0,63,64
 1098 686 1098 686 1024 634 c 1,65,66
 1092 568 1092 568 1130 481 c 128,-1,67
 1168 394 1168 394 1168 304 c 0,68,69
 1168 178 1168 178 1101 89 c 128,-1,70
 1034 0 1034 0 938 0 c 0,71,72
 848 0 848 0 784 78 c 128,-1,73
 720 156 720 156 720 266 c 0,74,75
 720 368 720 368 779 444 c 128,-1,76
 838 520 838 520 930 536 c 1,77,78
 892 490 892 490 872 422 c 128,-1,79
 852 354 852 354 852 266 c 0,80,81
 852 202 852 202 876 158 c 128,-1,82
 900 114 900 114 938 114 c 0,83,84
 978 114 978 114 1006 170 c 128,-1,85
 1034 226 1034 226 1034 304 c 0,86,87
 1034 478 1034 478 914 582 c 0,88,89
 856 634 856 634 776 660 c 128,-1,90
 696 686 696 686 596 686 c 0,91,92
 438 686 438 686 326 592 c 128,-1,93
 214 498 214 498 214 362 c 0,94,95
 214 260 214 260 273 187 c 128,-1,96
 332 114 332 114 414 114 c 0,97,98
 456 114 456 114 488 148 c 128,-1,99
 520 182 520 182 520 228 c 0,100,101
 520 260 520 260 500 282 c 128,-1,102
 480 304 480 304 452 304 c 256,103,104
 424 304 424 304 402 282 c 128,-1,105
 380 260 380 260 376 226 c 1,106,-1
 376 130 l 1,107,108
 292 192 292 192 292 266 c 0,109,110
 292 332 292 332 338 376 c 128,-1,111
 384 420 384 420 452 420 c 0,112,113
 536 420 536 420 594 364 c 128,-1,114
 652 308 652 308 652 228 c 0,115,116
 652 132 652 132 584 66 c 128,-1,117
 516 0 516 0 414 0 c 0,118,119
 284 0 284 0 192 108 c 128,-1,120
 100 216 100 216 100 370 c 0,121,122
 100 548 100 548 244 674 c 128,-1,123
 388 800 388 800 596 800 c 0,124,125
 784 800 784 800 928 716 c 1,126,127
 1050 800 1050 800 1214 800 c 0,128,129
 1376 800 1376 800 1520 716 c 1,130,131
 1642 800 1642 800 1834 800 c 2,132,-1
 1884 800 l 1,133,134
 1768 880 1768 880 1768 1028 c 0,135,136
 1768 1170 1768 1170 1881 1271 c 128,-1,137
 1994 1372 1994 1372 2158 1372 c 0,138,139
 2298 1372 2298 1372 2395 1303 c 128,-1,140
 2492 1234 2492 1234 2492 1134 c 0,0,1
EndSplineSet
Ligature2: "'abvs' Above Base Substitutions lookup 6 subtable" tm_nna tm_iikaar
EndChar

StartChar: tm_t_iikaar
Encoding: 65572 -1 149
Width: 1254
GlyphClass: 2
Flags: W
LayerCount: 2
Fore
SplineSet
1190 1134 m 0,0,1
 1190 1040 1190 1040 1114 972 c 128,-1,2
 1038 904 1038 904 932 904 c 0,3,4
 836 904 836 904 770 956 c 128,-1,5
 704 1008 704 1008 704 1084 c 0,6,7
 704 1142 704 1142 756 1178 c 128,-1,8
 808 1214 808 1214 884 1214 c 0,9,10
 898 1214 898 1214 926 1210 c 1,11,12
 886 1200 886 1200 861 1171 c 128,-1,13
 836 1142 836 1142 836 1104 c 0,14,15
 836 1068 836 1068 864 1044 c 128,-1,16
 892 1020 892 1020 932 1020 c 0,17,18
 982 1020 982 1020 1019 1053 c 128,-1,19
 1056 1086 1056 1086 1056 1134 c 0,20,21
 1056 1186 1056 1186 998 1222 c 128,-1,22
 940 1258 940 1258 856 1258 c 0,23,24
 750 1258 750 1258 674 1192 c 128,-1,25
 598 1126 598 1126 598 1028 c 0,26,27
 598 964 598 964 638 903 c 128,-1,28
 678 842 678 842 748 800 c 1,29,-1
 828 800 l 2,30,31
 874 800 874 800 917 770 c 128,-1,32
 960 740 960 740 990 686 c 1,33,-1
 752 686 l 1,34,-1
 752 474 l 1,35,-1
 904 474 l 2,36,37
 1014 474 1014 474 1092 392 c 128,-1,38
 1170 310 1170 310 1170 190 c 0,39,40
 1170 26 1170 26 1048 -92 c 128,-1,41
 926 -210 926 -210 752 -210 c 2,42,-1
 238 -210 l 2,43,44
 204 -210 204 -210 182 -226 c 128,-1,45
 160 -242 160 -242 160 -266 c 2,46,-1
 160 -442 l 1,47,48
 100 -420 100 -420 64 -372 c 128,-1,49
 28 -324 28 -324 28 -266 c 0,50,51
 28 -196 28 -196 88 -146 c 128,-1,52
 148 -96 148 -96 236 -96 c 2,53,-1
 752 -96 l 2,54,55
 868 -96 868 -96 952 -12 c 128,-1,56
 1036 72 1036 72 1036 190 c 0,57,58
 1036 262 1036 262 997 311 c 128,-1,59
 958 360 958 360 900 360 c 2,60,-1
 752 360 l 1,61,-1
 752 248 l 2,62,63
 752 142 752 142 658 66 c 128,-1,64
 564 -10 564 -10 428 -10 c 0,65,66
 278 -10 278 -10 172 68 c 128,-1,67
 66 146 66 146 66 258 c 0,68,69
 66 346 66 346 132 408 c 128,-1,70
 198 470 198 470 294 470 c 1,71,-1
 294 648 l 2,72,73
 294 712 294 712 344 756 c 128,-1,74
 394 800 394 800 466 800 c 2,75,-1
 584 800 l 1,76,77
 466 898 466 898 466 1028 c 0,78,79
 466 1170 466 1170 579 1271 c 128,-1,80
 692 1372 692 1372 856 1372 c 0,81,82
 996 1372 996 1372 1093 1303 c 128,-1,83
 1190 1234 1190 1234 1190 1134 c 0,0,1
618 248 m 2,84,-1
 618 686 l 1,85,-1
 468 686 l 1,86,87
 428 682 428 682 428 648 c 2,88,-1
 428 474 l 1,89,-1
 598 474 l 1,90,91
 566 420 566 420 522 390 c 128,-1,92
 478 360 478 360 428 360 c 2,93,-1
 334 360 l 2,94,95
 278 360 278 360 238 330 c 128,-1,96
 198 300 198 300 198 258 c 0,97,98
 198 192 198 192 263 148 c 128,-1,99
 328 104 328 104 428 104 c 0,100,101
 506 104 506 104 562 146 c 128,-1,102
 618 188 618 188 618 248 c 2,84,-1
EndSplineSet
Ligature2: "'abvs' Above Base Substitutions lookup 6 subtable" tm_ta tm_iikaar
EndChar

